<?xml version="1.0" encoding="utf-8" standalone="no"?>
<!DOCTYPE svg PUBLIC "-//W3C//DTD SVG 1.1//EN"
  "http://www.w3.org/Graphics/SVG/1.1/DTD/svg11.dtd">
<!-- Created with matplotlib (http://matplotlib.org/) -->
<svg height="420pt" version="1.1" viewBox="0 0 404 420" width="404pt" xmlns="http://www.w3.org/2000/svg" xmlns:xlink="http://www.w3.org/1999/xlink">
 <defs>
  <style type="text/css">
*{stroke-linecap:butt;stroke-linejoin:round;}
  </style>
 </defs>
 <g id="figure_1">
  <g id="patch_1">
   <path d="
M0 420.598
L404.502 420.598
L404.502 0
L0 0
z
" style="fill:#ffffff;"/>
  </g>
  <g id="axes_1">
   <g id="patch_2">
    <path d="
M8.56456 413.398
L397.302 413.398
L397.302 21.3181
L8.56456 21.3181
z
" style="fill:#ffffff;"/>
   </g>
   <g id="patch_3">
    <path clip-path="url(#pd65ab3b00b)" d="
M27.8301 225.427
Q32.6432 249.624 37.0201 271.628" style="fill:none;stroke:#000000;stroke-linecap:round;stroke-width:2.0;"/>
    <path clip-path="url(#pd65ab3b00b)" d="
M39.9731 260.845
L37.0201 271.628
L30.1653 262.796
L39.9731 260.845
z
" style="stroke:#000000;stroke-linecap:round;stroke-width:2.0;"/>
   </g>
   <g id="patch_4">
    <path clip-path="url(#pd65ab3b00b)" d="
M214.802 41.0841
Q236.806 45.461 261.004 50.2742" style="fill:none;stroke:#000000;stroke-linecap:round;stroke-width:2.0;"/>
    <path clip-path="url(#pd65ab3b00b)" d="
M223.635 47.939
L214.802 41.0841
L225.586 38.1311
L223.635 47.939
z
" style="stroke:#000000;stroke-linecap:round;stroke-width:2.0;"/>
   </g>
   <g id="patch_5">
    <path clip-path="url(#pd65ab3b00b)" d="
M131.413 61.313
Q87.2844 167.848 44.0119 272.317" style="fill:none;stroke:#000000;stroke-linecap:round;stroke-width:2.0;"/>
    <path clip-path="url(#pd65ab3b00b)" d="
M52.4581 264.992
L44.0119 272.317
L43.2193 261.165
L52.4581 264.992
z
" style="stroke:#000000;stroke-linecap:round;stroke-width:2.0;"/>
   </g>
   <g id="patch_6">
    <path clip-path="url(#pd65ab3b00b)" d="
M135.188 62.0639
Q135.188 215.751 135.188 367.203" style="fill:none;stroke:#000000;stroke-linecap:round;stroke-width:2.0;"/>
    <path clip-path="url(#pd65ab3b00b)" d="
M140.188 357.203
L135.188 367.203
L130.188 357.203
L140.188 357.203
z
" style="stroke:#000000;stroke-linecap:round;stroke-width:2.0;"/>
   </g>
   <g id="patch_7">
    <path clip-path="url(#pd65ab3b00b)" d="
M143.745 370.747
Q250.837 263.655 359.51 154.981" style="fill:none;stroke:#000000;stroke-linecap:round;stroke-width:2.0;"/>
    <path clip-path="url(#pd65ab3b00b)" d="
M154.351 367.212
L143.745 370.747
L147.28 360.14
L154.351 367.212
z
" style="stroke:#000000;stroke-linecap:round;stroke-width:2.0;"/>
   </g>
   <g id="patch_8">
    <path clip-path="url(#pd65ab3b00b)" d="
M49.2461 148.006
Q202.934 148.006 354.385 148.006" style="fill:none;stroke:#000000;stroke-linecap:round;stroke-width:2.0;"/>
    <path clip-path="url(#pd65ab3b00b)" d="
M344.385 143.006
L354.385 148.006
L344.385 153.006
L344.385 143.006
z
" style="stroke:#000000;stroke-linecap:round;stroke-width:2.0;"/>
   </g>
   <g id="patch_9">
    <path clip-path="url(#pd65ab3b00b)" d="
M35.7707 215.751
Q202.934 215.751 367.86 215.751" style="fill:none;stroke:#000000;stroke-linecap:round;stroke-width:2.0;"/>
    <path clip-path="url(#pd65ab3b00b)" d="
M357.86 210.751
L367.86 215.751
L357.86 220.751
L357.86 210.751
z
" style="stroke:#000000;stroke-linecap:round;stroke-width:2.0;"/>
   </g>
   <g id="patch_10">
    <path clip-path="url(#pd65ab3b00b)" d="
M361.005 139.803
Q347.299 119.29 334.834 100.635" style="fill:none;stroke:#000000;stroke-linecap:round;stroke-width:2.0;"/>
    <path clip-path="url(#pd65ab3b00b)" d="
M336.233 111.728
L334.834 100.635
L344.547 106.172
L336.233 111.728
z
" style="stroke:#000000;stroke-linecap:round;stroke-width:2.0;"/>
   </g>
   <g id="patch_11">
    <path clip-path="url(#pd65ab3b00b)" d="
M191.065 41.0841
Q169.061 45.461 144.863 50.2742" style="fill:none;stroke:#000000;stroke-linecap:round;stroke-width:2.0;"/>
    <path clip-path="url(#pd65ab3b00b)" d="
M180.281 38.1311
L191.065 41.0841
L182.232 47.939
L180.281 38.1311
z
" style="stroke:#000000;stroke-linecap:round;stroke-width:2.0;"/>
   </g>
   <g id="patch_12">
    <path clip-path="url(#pd65ab3b00b)" d="
M146.368 374.673
Q250.837 331.4 357.372 287.272" style="fill:none;stroke:#000000;stroke-linecap:round;stroke-width:2.0;"/>
    <path clip-path="url(#pd65ab3b00b)" d="
M157.52 375.466
L146.368 374.673
L153.693 366.227
L157.52 375.466
z
" style="stroke:#000000;stroke-linecap:round;stroke-width:2.0;"/>
   </g>
   <g id="patch_13">
    <path clip-path="url(#pd65ab3b00b)" d="
M201.009 48.3989
Q169.061 209.014 137.549 367.435" style="fill:none;stroke:#000000;stroke-linecap:round;stroke-width:2.0;"/>
    <path clip-path="url(#pd65ab3b00b)" d="
M144.403 358.603
L137.549 367.435
L134.596 356.652
L144.403 358.603
z
" style="stroke:#000000;stroke-linecap:round;stroke-width:2.0;"/>
   </g>
   <g id="patch_14">
    <path clip-path="url(#pd65ab3b00b)" d="
M31.3863 223.954
Q80.5466 297.528 128.465 369.242" style="fill:none;stroke:#000000;stroke-linecap:round;stroke-width:2.0;"/>
    <path clip-path="url(#pd65ab3b00b)" d="
M127.066 358.15
L128.465 369.242
L118.752 363.705
L127.066 358.15
z
" style="stroke:#000000;stroke-linecap:round;stroke-width:2.0;"/>
   </g>
   <g id="patch_15">
    <path clip-path="url(#pd65ab3b00b)" d="
M29.6807 224.866
Q51.8306 278.34 73.1248 329.749" style="fill:none;stroke:#000000;stroke-linecap:round;stroke-width:2.0;"/>
    <path clip-path="url(#pd65ab3b00b)" d="
M73.9174 318.597
L73.1248 329.749
L64.6786 322.424
L73.9174 318.597
z
" style="stroke:#000000;stroke-linecap:round;stroke-width:2.0;"/>
   </g>
   <g id="patch_16">
    <path clip-path="url(#pd65ab3b00b)" d="
M364.561 273.821
Q347.299 187.035 330.472 102.442" style="fill:none;stroke:#000000;stroke-linecap:round;stroke-width:2.0;"/>
    <path clip-path="url(#pd65ab3b00b)" d="
M327.519 113.226
L330.472 102.442
L337.327 111.275
L327.519 113.226
z
" style="stroke:#000000;stroke-linecap:round;stroke-width:2.0;"/>
   </g>
   <g id="patch_17">
    <path clip-path="url(#pd65ab3b00b)" d="
M49.0566 146.081
Q183.746 119.29 316.242 92.9345" style="fill:none;stroke:#000000;stroke-linecap:round;stroke-width:2.0;"/>
    <path clip-path="url(#pd65ab3b00b)" d="
M305.459 89.9814
L316.242 92.9345
L307.41 99.7893
L305.459 89.9814
z
" style="stroke:#000000;stroke-linecap:round;stroke-width:2.0;"/>
   </g>
   <g id="patch_18">
    <path clip-path="url(#pd65ab3b00b)" d="
M198.303 49.9034
Q140.345 189.826 81.531 331.815" style="fill:none;stroke:#000000;stroke-linecap:round;stroke-width:2.0;"/>
    <path clip-path="url(#pd65ab3b00b)" d="
M189.856 57.2288
L198.303 49.9034
L199.095 61.0556
L189.856 57.2288
z
" style="stroke:#000000;stroke-linecap:round;stroke-width:2.0;"/>
   </g>
   <g id="patch_19">
    <path clip-path="url(#pd65ab3b00b)" d="
M207.564 49.9034
Q265.522 189.826 324.336 331.815" style="fill:none;stroke:#000000;stroke-linecap:round;stroke-width:2.0;"/>
    <path clip-path="url(#pd65ab3b00b)" d="
M206.772 61.0556
L207.564 49.9034
L216.011 57.2288
L206.772 61.0556
z
" style="stroke:#000000;stroke-linecap:round;stroke-width:2.0;"/>
   </g>
   <g id="patch_20">
    <path clip-path="url(#pd65ab3b00b)" d="
M47.9378 274.94
Q155.03 167.848 263.703 59.1745" style="fill:none;stroke:#000000;stroke-linecap:round;stroke-width:2.0;"/>
    <path clip-path="url(#pd65ab3b00b)" d="
M58.5444 271.405
L47.9378 274.94
L51.4733 264.334
L58.5444 271.405
z
" style="stroke:#000000;stroke-linecap:round;stroke-width:2.0;"/>
   </g>
   <g id="patch_21">
    <path clip-path="url(#pd65ab3b00b)" d="
M144.863 54.1234
Q231.65 71.3862 316.242 88.2128" style="fill:none;stroke:#000000;stroke-linecap:round;stroke-width:2.0;"/>
    <path clip-path="url(#pd65ab3b00b)" d="
M307.41 81.358
L316.242 88.2128
L305.459 91.1658
L307.41 81.358
z
" style="stroke:#000000;stroke-linecap:round;stroke-width:2.0;"/>
   </g>
   <g id="patch_22">
    <path clip-path="url(#pd65ab3b00b)" d="
M145.25 372.581
Q257.575 297.528 371.759 221.232" style="fill:none;stroke:#000000;stroke-linecap:round;stroke-width:2.0;"/>
    <path clip-path="url(#pd65ab3b00b)" d="
M156.342 371.182
L145.25 372.581
L150.786 362.868
L156.342 371.182
z
" style="stroke:#000000;stroke-linecap:round;stroke-width:2.0;"/>
   </g>
   <g id="patch_23">
    <path clip-path="url(#pd65ab3b00b)" d="
M51.4822 283.497
Q202.934 283.497 356.621 283.497" style="fill:none;stroke:#000000;stroke-linecap:round;stroke-width:2.0;"/>
    <path clip-path="url(#pd65ab3b00b)" d="
M61.4822 288.497
L51.4822 283.497
L61.4822 278.497
L61.4822 288.497
z
" style="stroke:#000000;stroke-linecap:round;stroke-width:2.0;"/>
   </g>
   <g id="patch_24">
    <path clip-path="url(#pd65ab3b00b)" d="
M209.657 48.7851
Q284.71 161.11 361.005 275.294" style="fill:none;stroke:#000000;stroke-linecap:round;stroke-width:2.0;"/>
    <path clip-path="url(#pd65ab3b00b)" d="
M211.055 59.8777
L209.657 48.7851
L219.37 54.322
L211.055 59.8777
z
" style="stroke:#000000;stroke-linecap:round;stroke-width:2.0;"/>
   </g>
   <g id="patch_25">
    <path clip-path="url(#pd65ab3b00b)" d="
M206.709 383.665
Q265.522 241.676 323.48 101.754" style="fill:none;stroke:#000000;stroke-linecap:round;stroke-width:2.0;"/>
    <path clip-path="url(#pd65ab3b00b)" d="
M315.034 109.079
L323.48 101.754
L324.273 112.906
L315.034 109.079
z
" style="stroke:#000000;stroke-linecap:round;stroke-width:2.0;"/>
   </g>
   <g id="patch_26">
    <path clip-path="url(#pd65ab3b00b)" d="
M89.6245 88.2128
Q174.217 71.3862 261.004 54.1234" style="fill:none;stroke:#000000;stroke-linecap:round;stroke-width:2.0;"/>
    <path clip-path="url(#pd65ab3b00b)" d="
M100.408 91.1658
L89.6245 88.2128
L98.4569 81.358
L100.408 91.1658
z
" style="stroke:#000000;stroke-linecap:round;stroke-width:2.0;"/>
   </g>
   <g id="patch_27">
    <path clip-path="url(#pd65ab3b00b)" d="
M194.377 47.2802
Q114.419 127.237 32.8812 208.776" style="fill:none;stroke:#000000;stroke-linecap:round;stroke-width:2.0;"/>
    <path clip-path="url(#pd65ab3b00b)" d="
M183.77 50.8157
L194.377 47.2802
L190.841 57.8868
L183.77 50.8157
z
" style="stroke:#000000;stroke-linecap:round;stroke-width:2.0;"/>
   </g>
   <g id="patch_28">
    <path clip-path="url(#pd65ab3b00b)" d="
M139.819 368.124
Q202.934 215.751 266.904 61.313" style="fill:none;stroke:#000000;stroke-linecap:round;stroke-width:2.0;"/>
    <path clip-path="url(#pd65ab3b00b)" d="
M148.265 360.798
L139.819 368.124
L139.026 356.972
L148.265 360.798
z
" style="stroke:#000000;stroke-linecap:round;stroke-width:2.0;"/>
   </g>
   <g id="patch_29">
    <path clip-path="url(#pd65ab3b00b)" d="
M318.049 83.8505
Q299.395 71.3862 278.882 57.6796" style="fill:none;stroke:#000000;stroke-linecap:round;stroke-width:2.0;"/>
    <path clip-path="url(#pd65ab3b00b)" d="
M312.513 74.1375
L318.049 83.8505
L306.957 82.4522
L312.513 74.1375
z
" style="stroke:#000000;stroke-linecap:round;stroke-width:2.0;"/>
   </g>
   <g id="patch_30">
    <path clip-path="url(#pd65ab3b00b)" d="
M125.126 58.9219
Q106.472 71.3862 85.9584 85.0928" style="fill:none;stroke:#000000;stroke-linecap:round;stroke-width:2.0;"/>
    <path clip-path="url(#pd65ab3b00b)" d="
M114.033 60.3202
L125.126 58.9219
L119.589 68.6349
L114.033 60.3202
z
" style="stroke:#000000;stroke-linecap:round;stroke-width:2.0;"/>
   </g>
   <g id="patch_31">
    <path clip-path="url(#pd65ab3b00b)" d="
M366.486 273.632
Q366.486 215.751 366.486 160.107" style="fill:none;stroke:#000000;stroke-linecap:round;stroke-width:2.0;"/>
    <path clip-path="url(#pd65ab3b00b)" d="
M361.486 170.107
L366.486 160.107
L371.486 170.107
L361.486 170.107
z
" style="stroke:#000000;stroke-linecap:round;stroke-width:2.0;"/>
   </g>
   <g id="patch_32">
    <path clip-path="url(#pd65ab3b00b)" d="
M84.4789 330.867
Q174.217 196.564 265.198 60.4014" style="fill:none;stroke:#000000;stroke-linecap:round;stroke-width:2.0;"/>
    <path clip-path="url(#pd65ab3b00b)" d="
M94.1919 325.33
L84.4789 330.867
L85.8772 319.775
L94.1919 325.33
z
" style="stroke:#000000;stroke-linecap:round;stroke-width:2.0;"/>
   </g>
   <g id="patch_33">
    <path clip-path="url(#pd65ab3b00b)" d="
M50.561 152.637
Q202.934 215.751 357.372 279.722" style="fill:none;stroke:#000000;stroke-linecap:round;stroke-width:2.0;"/>
    <path clip-path="url(#pd65ab3b00b)" d="
M57.8864 161.083
L50.561 152.637
L61.7132 151.844
L57.8864 161.083
z
" style="stroke:#000000;stroke-linecap:round;stroke-width:2.0;"/>
   </g>
   <g id="patch_34">
    <path clip-path="url(#pd65ab3b00b)" d="
M128.465 62.2606
Q80.5466 133.975 31.3863 207.549" style="fill:none;stroke:#000000;stroke-linecap:round;stroke-width:2.0;"/>
    <path clip-path="url(#pd65ab3b00b)" d="
M118.752 67.7974
L128.465 62.2606
L127.066 73.3531
L118.752 67.7974
z
" style="stroke:#000000;stroke-linecap:round;stroke-width:2.0;"/>
   </g>
   <g id="patch_35">
    <path clip-path="url(#pd65ab3b00b)" d="
M73.1248 101.754
Q51.8306 153.162 29.6807 206.637" style="fill:none;stroke:#000000;stroke-linecap:round;stroke-width:2.0;"/>
    <path clip-path="url(#pd65ab3b00b)" d="
M64.6786 109.079
L73.1248 101.754
L73.9174 112.906
L64.6786 109.079
z
" style="stroke:#000000;stroke-linecap:round;stroke-width:2.0;"/>
   </g>
   <g id="patch_36">
    <path clip-path="url(#pd65ab3b00b)" d="
M43.1562 157.12
Q87.2844 263.655 130.557 368.124" style="fill:none;stroke:#000000;stroke-linecap:round;stroke-width:2.0;"/>
    <path clip-path="url(#pd65ab3b00b)" d="
M131.349 356.972
L130.557 368.124
L122.111 360.798
L131.349 356.972
z
" style="stroke:#000000;stroke-linecap:round;stroke-width:2.0;"/>
   </g>
   <g id="patch_37">
    <path clip-path="url(#pd65ab3b00b)" d="
M87.8176 97.2967
Q222.121 187.035 358.283 278.016" style="fill:none;stroke:#000000;stroke-linecap:round;stroke-width:2.0;"/>
    <path clip-path="url(#pd65ab3b00b)" d="
M93.3544 107.01
L87.8176 97.2967
L98.9101 98.6951
L93.3544 107.01
z
" style="stroke:#000000;stroke-linecap:round;stroke-width:2.0;"/>
   </g>
   <g id="patch_38">
    <path clip-path="url(#pd65ab3b00b)" d="
M89.6245 338.568
Q222.121 312.213 356.81 285.422" style="fill:none;stroke:#000000;stroke-linecap:round;stroke-width:2.0;"/>
    <path clip-path="url(#pd65ab3b00b)" d="
M100.408 341.521
L89.6245 338.568
L98.4569 331.713
L100.408 341.521
z
" style="stroke:#000000;stroke-linecap:round;stroke-width:2.0;"/>
   </g>
   <g id="patch_39">
    <path clip-path="url(#pd65ab3b00b)" d="
M49.0566 149.93
Q209.671 181.878 368.093 213.391" style="fill:none;stroke:#000000;stroke-linecap:round;stroke-width:2.0;"/>
    <path clip-path="url(#pd65ab3b00b)" d="
M359.26 206.536
L368.093 213.391
L357.31 216.344
L359.26 206.536
z
" style="stroke:#000000;stroke-linecap:round;stroke-width:2.0;"/>
   </g>
   <g id="patch_40">
    <path clip-path="url(#pd65ab3b00b)" d="
M328.111 331.064
Q328.111 215.751 328.111 102.675" style="fill:none;stroke:#000000;stroke-linecap:round;stroke-width:2.0;"/>
    <path clip-path="url(#pd65ab3b00b)" d="
M323.111 112.675
L328.111 102.675
L333.111 112.675
L323.111 112.675
z
" style="stroke:#000000;stroke-linecap:round;stroke-width:2.0;"/>
   </g>
   <g id="patch_41">
    <path clip-path="url(#pd65ab3b00b)" d="
M35.5811 213.827
Q196.196 181.878 354.617 150.366" style="fill:none;stroke:#000000;stroke-linecap:round;stroke-width:2.0;"/>
    <path clip-path="url(#pd65ab3b00b)" d="
M343.834 147.413
L354.617 150.366
L345.785 157.221
L343.834 147.413
z
" style="stroke:#000000;stroke-linecap:round;stroke-width:2.0;"/>
   </g>
   <g id="patch_42">
    <path clip-path="url(#pd65ab3b00b)" d="
M334.834 330.867
Q347.299 312.213 361.005 291.7" style="fill:none;stroke:#000000;stroke-linecap:round;stroke-width:2.0;"/>
    <path clip-path="url(#pd65ab3b00b)" d="
M344.547 325.33
L334.834 330.867
L336.233 319.775
L344.547 325.33
z
" style="stroke:#000000;stroke-linecap:round;stroke-width:2.0;"/>
   </g>
   <g id="patch_43">
    <path clip-path="url(#pd65ab3b00b)" d="
M373.238 205.69
Q325.32 133.975 276.16 60.4014" style="fill:none;stroke:#000000;stroke-linecap:round;stroke-width:2.0;"/>
    <path clip-path="url(#pd65ab3b00b)" d="
M371.84 194.597
L373.238 205.69
L363.525 200.153
L371.84 194.597
z
" style="stroke:#000000;stroke-linecap:round;stroke-width:2.0;"/>
   </g>
   <g id="patch_44">
    <path clip-path="url(#pd65ab3b00b)" d="
M141.911 369.242
Q231.65 234.939 322.63 98.7762" style="fill:none;stroke:#000000;stroke-linecap:round;stroke-width:2.0;"/>
    <path clip-path="url(#pd65ab3b00b)" d="
M151.624 363.705
L141.911 369.242
L143.309 358.15
L151.624 363.705
z
" style="stroke:#000000;stroke-linecap:round;stroke-width:2.0;"/>
   </g>
   <g id="patch_45">
    <path clip-path="url(#pd65ab3b00b)" d="
M35.0197 211.976
Q177.008 153.162 316.931 95.2046" style="fill:none;stroke:#000000;stroke-linecap:round;stroke-width:2.0;"/>
    <path clip-path="url(#pd65ab3b00b)" d="
M305.779 94.412
L316.931 95.2046
L309.606 103.651
L305.779 94.412
z
" style="stroke:#000000;stroke-linecap:round;stroke-width:2.0;"/>
   </g>
   <g id="patch_46">
    <path clip-path="url(#pd65ab3b00b)" d="
M368.411 273.821
Q373.224 249.624 377.601 227.62" style="fill:none;stroke:#000000;stroke-linecap:round;stroke-width:2.0;"/>
    <path clip-path="url(#pd65ab3b00b)" d="
M370.746 236.452
L377.601 227.62
L380.554 238.403
L370.746 236.452
z
" style="stroke:#000000;stroke-linecap:round;stroke-width:2.0;"/>
   </g>
   <g id="patch_47">
    <path clip-path="url(#pd65ab3b00b)" d="
M147.289 379.304
Q202.934 379.304 260.814 379.304" style="fill:none;stroke:#000000;stroke-linecap:round;stroke-width:2.0;"/>
    <path clip-path="url(#pd65ab3b00b)" d="
M157.289 384.304
L147.289 379.304
L157.289 374.304
L157.289 384.304
z
" style="stroke:#000000;stroke-linecap:round;stroke-width:2.0;"/>
   </g>
   <g id="matplotlib.axis_1"/>
   <g id="matplotlib.axis_2"/>
   <g id="text_1">
    <!-- Risk Averse - 5 guides -->
    <defs>
     <path id="BitstreamVeraSans-Roman-20"/>
     <path d="
M10.7969 72.9062
L49.5156 72.9062
L49.5156 64.5938
L19.8281 64.5938
L19.8281 46.7344
Q21.9688 47.4688 24.1094 47.8281
Q26.2656 48.1875 28.4219 48.1875
Q40.625 48.1875 47.75 41.5
Q54.8906 34.8125 54.8906 23.3906
Q54.8906 11.625 47.5625 5.09375
Q40.2344 -1.42188 26.9062 -1.42188
Q22.3125 -1.42188 17.5469 -0.640625
Q12.7969 0.140625 7.71875 1.70312
L7.71875 11.625
Q12.1094 9.23438 16.7969 8.0625
Q21.4844 6.89062 26.7031 6.89062
Q35.1562 6.89062 40.0781 11.3281
Q45.0156 15.7656 45.0156 23.3906
Q45.0156 31 40.0781 35.4375
Q35.1562 39.8906 26.7031 39.8906
Q22.75 39.8906 18.8125 39.0156
Q14.8906 38.1406 10.7969 36.2812
z
" id="BitstreamVeraSans-Roman-35"/>
     <path d="
M9.07812 75.9844
L18.1094 75.9844
L18.1094 31.1094
L44.9219 54.6875
L56.3906 54.6875
L27.3906 29.1094
L57.625 0
L45.9062 0
L18.1094 26.7031
L18.1094 0
L9.07812 0
z
" id="BitstreamVeraSans-Roman-6b"/>
     <path d="
M56.2031 29.5938
L56.2031 25.2031
L14.8906 25.2031
Q15.4844 15.9219 20.4844 11.0625
Q25.4844 6.20312 34.4219 6.20312
Q39.5938 6.20312 44.4531 7.46875
Q49.3125 8.73438 54.1094 11.2812
L54.1094 2.78125
Q49.2656 0.734375 44.1875 -0.34375
Q39.1094 -1.42188 33.8906 -1.42188
Q20.7969 -1.42188 13.1562 6.1875
Q5.51562 13.8125 5.51562 26.8125
Q5.51562 40.2344 12.7656 48.1094
Q20.0156 56 32.3281 56
Q43.3594 56 49.7812 48.8906
Q56.2031 41.7969 56.2031 29.5938
M47.2188 32.2344
Q47.125 39.5938 43.0938 43.9844
Q39.0625 48.3906 32.4219 48.3906
Q24.9062 48.3906 20.3906 44.1406
Q15.875 39.8906 15.1875 32.1719
z
" id="BitstreamVeraSans-Roman-65"/>
     <path d="
M44.3906 34.1875
Q47.5625 33.1094 50.5625 29.5938
Q53.5625 26.0781 56.5938 19.9219
L66.6094 0
L56 0
L46.6875 18.7031
Q43.0625 26.0312 39.6719 28.4219
Q36.2812 30.8125 30.4219 30.8125
L19.6719 30.8125
L19.6719 0
L9.8125 0
L9.8125 72.9062
L32.0781 72.9062
Q44.5781 72.9062 50.7344 67.6719
Q56.8906 62.4531 56.8906 51.9062
Q56.8906 45.0156 53.6875 40.4688
Q50.4844 35.9375 44.3906 34.1875
M19.6719 64.7969
L19.6719 38.9219
L32.0781 38.9219
Q39.2031 38.9219 42.8438 42.2188
Q46.4844 45.5156 46.4844 51.9062
Q46.4844 58.2969 42.8438 61.5469
Q39.2031 64.7969 32.0781 64.7969
z
" id="BitstreamVeraSans-Roman-52"/>
     <path d="
M9.42188 54.6875
L18.4062 54.6875
L18.4062 0
L9.42188 0
z

M9.42188 75.9844
L18.4062 75.9844
L18.4062 64.5938
L9.42188 64.5938
z
" id="BitstreamVeraSans-Roman-69"/>
     <path d="
M4.89062 31.3906
L31.2031 31.3906
L31.2031 23.3906
L4.89062 23.3906
z
" id="BitstreamVeraSans-Roman-2d"/>
     <path d="
M34.1875 63.1875
L20.7969 26.9062
L47.6094 26.9062
z

M28.6094 72.9062
L39.7969 72.9062
L67.5781 0
L57.3281 0
L50.6875 18.7031
L17.8281 18.7031
L11.1875 0
L0.78125 0
z
" id="BitstreamVeraSans-Roman-41"/>
     <path d="
M2.98438 54.6875
L12.5 54.6875
L29.5938 8.79688
L46.6875 54.6875
L56.2031 54.6875
L35.6875 0
L23.4844 0
z
" id="BitstreamVeraSans-Roman-76"/>
     <path d="
M45.4062 46.3906
L45.4062 75.9844
L54.3906 75.9844
L54.3906 0
L45.4062 0
L45.4062 8.20312
Q42.5781 3.32812 38.25 0.953125
Q33.9375 -1.42188 27.875 -1.42188
Q17.9688 -1.42188 11.7344 6.48438
Q5.51562 14.4062 5.51562 27.2969
Q5.51562 40.1875 11.7344 48.0938
Q17.9688 56 27.875 56
Q33.9375 56 38.25 53.625
Q42.5781 51.2656 45.4062 46.3906
M14.7969 27.2969
Q14.7969 17.3906 18.875 11.75
Q22.9531 6.10938 30.0781 6.10938
Q37.2031 6.10938 41.2969 11.75
Q45.4062 17.3906 45.4062 27.2969
Q45.4062 37.2031 41.2969 42.8438
Q37.2031 48.4844 30.0781 48.4844
Q22.9531 48.4844 18.875 42.8438
Q14.7969 37.2031 14.7969 27.2969" id="BitstreamVeraSans-Roman-64"/>
     <path d="
M45.4062 27.9844
Q45.4062 37.75 41.375 43.1094
Q37.3594 48.4844 30.0781 48.4844
Q22.8594 48.4844 18.8281 43.1094
Q14.7969 37.75 14.7969 27.9844
Q14.7969 18.2656 18.8281 12.8906
Q22.8594 7.51562 30.0781 7.51562
Q37.3594 7.51562 41.375 12.8906
Q45.4062 18.2656 45.4062 27.9844
M54.3906 6.78125
Q54.3906 -7.17188 48.1875 -13.9844
Q42 -20.7969 29.2031 -20.7969
Q24.4688 -20.7969 20.2656 -20.0938
Q16.0625 -19.3906 12.1094 -17.9219
L12.1094 -9.1875
Q16.0625 -11.3281 19.9219 -12.3438
Q23.7812 -13.375 27.7812 -13.375
Q36.625 -13.375 41.0156 -8.76562
Q45.4062 -4.15625 45.4062 5.17188
L45.4062 9.625
Q42.625 4.78125 38.2812 2.39062
Q33.9375 0 27.875 0
Q17.8281 0 11.6719 7.65625
Q5.51562 15.3281 5.51562 27.9844
Q5.51562 40.6719 11.6719 48.3281
Q17.8281 56 27.875 56
Q33.9375 56 38.2812 53.6094
Q42.625 51.2188 45.4062 46.3906
L45.4062 54.6875
L54.3906 54.6875
z
" id="BitstreamVeraSans-Roman-67"/>
     <path d="
M8.5 21.5781
L8.5 54.6875
L17.4844 54.6875
L17.4844 21.9219
Q17.4844 14.1562 20.5 10.2656
Q23.5312 6.39062 29.5938 6.39062
Q36.8594 6.39062 41.0781 11.0312
Q45.3125 15.6719 45.3125 23.6875
L45.3125 54.6875
L54.2969 54.6875
L54.2969 0
L45.3125 0
L45.3125 8.40625
Q42.0469 3.42188 37.7188 1
Q33.4062 -1.42188 27.6875 -1.42188
Q18.2656 -1.42188 13.375 4.4375
Q8.5 10.2969 8.5 21.5781" id="BitstreamVeraSans-Roman-75"/>
     <path d="
M41.1094 46.2969
Q39.5938 47.1719 37.8125 47.5781
Q36.0312 48 33.8906 48
Q26.2656 48 22.1875 43.0469
Q18.1094 38.0938 18.1094 28.8125
L18.1094 0
L9.07812 0
L9.07812 54.6875
L18.1094 54.6875
L18.1094 46.1875
Q20.9531 51.1719 25.4844 53.5781
Q30.0312 56 36.5312 56
Q37.4531 56 38.5781 55.875
Q39.7031 55.7656 41.0625 55.5156
z
" id="BitstreamVeraSans-Roman-72"/>
     <path d="
M44.2812 53.0781
L44.2812 44.5781
Q40.4844 46.5312 36.375 47.5
Q32.2812 48.4844 27.875 48.4844
Q21.1875 48.4844 17.8438 46.4375
Q14.5 44.3906 14.5 40.2812
Q14.5 37.1562 16.8906 35.375
Q19.2812 33.5938 26.5156 31.9844
L29.5938 31.2969
Q39.1562 29.25 43.1875 25.5156
Q47.2188 21.7812 47.2188 15.0938
Q47.2188 7.46875 41.1875 3.01562
Q35.1562 -1.42188 24.6094 -1.42188
Q20.2188 -1.42188 15.4531 -0.5625
Q10.6875 0.296875 5.42188 2
L5.42188 11.2812
Q10.4062 8.6875 15.2344 7.39062
Q20.0625 6.10938 24.8125 6.10938
Q31.1562 6.10938 34.5625 8.28125
Q37.9844 10.4531 37.9844 14.4062
Q37.9844 18.0625 35.5156 20.0156
Q33.0625 21.9688 24.7031 23.7812
L21.5781 24.5156
Q13.2344 26.2656 9.51562 29.9062
Q5.8125 33.5469 5.8125 39.8906
Q5.8125 47.6094 11.2812 51.7969
Q16.75 56 26.8125 56
Q31.7812 56 36.1719 55.2656
Q40.5781 54.5469 44.2812 53.0781" id="BitstreamVeraSans-Roman-73"/>
    </defs>
    <g transform="translate(136.9963152 16.318125)scale(0.12 -0.12)">
     <use xlink:href="#BitstreamVeraSans-Roman-52"/>
     <use x="69.482421875" xlink:href="#BitstreamVeraSans-Roman-69"/>
     <use x="97.265625" xlink:href="#BitstreamVeraSans-Roman-73"/>
     <use x="149.365234375" xlink:href="#BitstreamVeraSans-Roman-6b"/>
     <use x="207.275390625" xlink:href="#BitstreamVeraSans-Roman-20"/>
     <use x="239.0625" xlink:href="#BitstreamVeraSans-Roman-41"/>
     <use x="301.595703125" xlink:href="#BitstreamVeraSans-Roman-76"/>
     <use x="360.775390625" xlink:href="#BitstreamVeraSans-Roman-65"/>
     <use x="422.298828125" xlink:href="#BitstreamVeraSans-Roman-72"/>
     <use x="463.412109375" xlink:href="#BitstreamVeraSans-Roman-73"/>
     <use x="515.51171875" xlink:href="#BitstreamVeraSans-Roman-65"/>
     <use x="577.03515625" xlink:href="#BitstreamVeraSans-Roman-20"/>
     <use x="608.822265625" xlink:href="#BitstreamVeraSans-Roman-2d"/>
     <use x="644.90625" xlink:href="#BitstreamVeraSans-Roman-20"/>
     <use x="676.693359375" xlink:href="#BitstreamVeraSans-Roman-35"/>
     <use x="740.31640625" xlink:href="#BitstreamVeraSans-Roman-20"/>
     <use x="772.103515625" xlink:href="#BitstreamVeraSans-Roman-67"/>
     <use x="835.580078125" xlink:href="#BitstreamVeraSans-Roman-75"/>
     <use x="898.958984375" xlink:href="#BitstreamVeraSans-Roman-69"/>
     <use x="926.7421875" xlink:href="#BitstreamVeraSans-Roman-64"/>
     <use x="990.21875" xlink:href="#BitstreamVeraSans-Roman-65"/>
     <use x="1051.7421875" xlink:href="#BitstreamVeraSans-Roman-73"/>
    </g>
   </g>
   <g id="patch_48">
    <path clip-path="url(#pd65ab3b00b)" d="
M39.3809 310.051
C42.9021 310.051 46.2794 308.652 48.7693 306.162
C51.2591 303.673 52.658 300.295 52.658 296.774
C52.658 293.253 51.2591 289.876 48.7693 287.386
C46.2794 284.896 42.9021 283.497 39.3809 283.497
C35.8598 283.497 32.4824 284.896 29.9926 287.386
C27.5028 289.876 26.1038 293.253 26.1038 296.774
C26.1038 300.295 27.5028 303.673 29.9926 306.162
C32.4824 308.652 35.8598 310.051 39.3809 310.051
L39.3809 310.051" style="fill:none;stroke:#000000;stroke-linejoin:miter;"/>
   </g>
   <g id="patch_49">
    <path clip-path="url(#pd65ab3b00b)" d="
M135.188 405.858
C138.709 405.858 142.086 404.459 144.576 401.969
C147.066 399.48 148.465 396.102 148.465 392.581
C148.465 389.06 147.066 385.683 144.576 383.193
C142.086 380.703 138.709 379.304 135.188 379.304
C131.667 379.304 128.289 380.703 125.799 383.193
C123.31 385.683 121.911 389.06 121.911 392.581
C121.911 396.102 123.31 399.48 125.799 401.969
C128.289 404.459 131.667 405.858 135.188 405.858
L135.188 405.858" style="fill:none;stroke:#000000;stroke-linejoin:miter;"/>
   </g>
   <g id="patch_50">
    <path d="
M202.934 48.5885
C205.55 48.5885 208.059 47.549 209.909 45.699
C211.759 43.8491 212.799 41.3396 212.799 38.7233
C212.799 36.107 211.759 33.5976 209.909 31.7476
C208.059 29.8976 205.55 28.8581 202.934 28.8581
C200.317 28.8581 197.808 29.8976 195.958 31.7476
C194.108 33.5976 193.068 36.107 193.068 38.7233
C193.068 41.3396 194.108 43.8491 195.958 45.699
C197.808 47.549 200.317 48.5885 202.934 48.5885
z
" style="fill:#00bfff;stroke:#000000;stroke-linejoin:miter;"/>
   </g>
   <g id="patch_51">
    <path d="
M135.188 62.0639
C137.804 62.0639 140.314 61.0245 142.164 59.1745
C144.014 57.3245 145.053 54.815 145.053 52.1988
C145.053 49.5825 144.014 47.073 142.164 45.223
C140.314 43.373 137.804 42.3336 135.188 42.3336
C132.572 42.3336 130.062 43.373 128.212 45.223
C126.362 47.073 125.323 49.5825 125.323 52.1988
C125.323 54.815 126.362 57.3245 128.212 59.1745
C130.062 61.0245 132.572 62.0639 135.188 62.0639
z
" style="fill:#00bfff;stroke:#000000;stroke-linejoin:miter;"/>
   </g>
   <g id="patch_52">
    <path d="
M77.7558 100.439
C80.3721 100.439 82.8815 99.3993 84.7315 97.5494
C86.5815 95.6994 87.621 93.1899 87.621 90.5736
C87.621 87.9573 86.5815 85.4479 84.7315 83.5979
C82.8815 81.7479 80.3721 80.7084 77.7558 80.7084
C75.1395 80.7084 72.63 81.7479 70.78 83.5979
C68.9301 85.4479 67.8906 87.9573 67.8906 90.5736
C67.8906 93.1899 68.9301 95.6994 70.78 97.5494
C72.63 99.3993 75.1395 100.439 77.7558 100.439
z
" style="fill:#00bfff;stroke:#000000;stroke-linejoin:miter;"/>
   </g>
   <g id="patch_53">
    <path d="
M366.486 157.871
C369.102 157.871 371.612 156.831 373.462 154.981
C375.312 153.131 376.351 150.622 376.351 148.006
C376.351 145.389 375.312 142.88 373.462 141.03
C371.612 139.18 369.102 138.14 366.486 138.14
C363.87 138.14 361.36 139.18 359.51 141.03
C357.66 142.88 356.621 145.389 356.621 148.006
C356.621 150.622 357.66 153.131 359.51 154.981
C361.36 156.831 363.87 157.871 366.486 157.871
z
" style="fill:#00bfff;stroke:#000000;stroke-linejoin:miter;"/>
   </g>
   <g id="patch_54">
    <path d="
M135.188 389.169
C137.804 389.169 140.314 388.13 142.164 386.28
C144.014 384.43 145.053 381.92 145.053 379.304
C145.053 376.688 144.014 374.178 142.164 372.328
C140.314 370.478 137.804 369.439 135.188 369.439
C132.572 369.439 130.062 370.478 128.212 372.328
C126.362 374.178 125.323 376.688 125.323 379.304
C125.323 381.92 126.362 384.43 128.212 386.28
C130.062 388.13 132.572 389.169 135.188 389.169
z
" style="fill:#00bfff;stroke:#000000;stroke-linejoin:miter;"/>
   </g>
   <g id="patch_55">
    <path d="
M328.111 100.439
C330.728 100.439 333.237 99.3993 335.087 97.5494
C336.937 95.6994 337.976 93.1899 337.976 90.5736
C337.976 87.9573 336.937 85.4479 335.087 83.5979
C333.237 81.7479 330.728 80.7084 328.111 80.7084
C325.495 80.7084 322.985 81.7479 321.135 83.5979
C319.286 85.4479 318.246 87.9573 318.246 90.5736
C318.246 93.1899 319.286 95.6994 321.135 97.5494
C322.985 99.3993 325.495 100.439 328.111 100.439
z
" style="fill:#00bfff;stroke:#000000;stroke-linejoin:miter;"/>
   </g>
   <g id="patch_56">
    <path d="
M39.3809 293.362
C41.9972 293.362 44.5067 292.323 46.3567 290.473
C48.2067 288.623 49.2461 286.113 49.2461 283.497
C49.2461 280.881 48.2067 278.371 46.3567 276.521
C44.5067 274.671 41.9972 273.632 39.3809 273.632
C36.7646 273.632 34.2552 274.671 32.4052 276.521
C30.5552 278.371 29.5157 280.881 29.5157 283.497
C29.5157 286.113 30.5552 288.623 32.4052 290.473
C34.2552 292.323 36.7646 293.362 39.3809 293.362
z
" style="fill:#00bfff;stroke:#000000;stroke-linejoin:miter;"/>
   </g>
   <g id="patch_57">
    <path d="
M379.962 225.617
C382.578 225.617 385.087 224.577 386.937 222.727
C388.787 220.877 389.827 218.368 389.827 215.751
C389.827 213.135 388.787 210.626 386.937 208.776
C385.087 206.926 382.578 205.886 379.962 205.886
C377.345 205.886 374.836 206.926 372.986 208.776
C371.136 210.626 370.096 213.135 370.096 215.751
C370.096 218.368 371.136 220.877 372.986 222.727
C374.836 224.577 377.345 225.617 379.962 225.617
z
" style="fill:#00bfff;stroke:#000000;stroke-linejoin:miter;"/>
   </g>
   <g id="patch_58">
    <path d="
M77.7558 350.794
C80.3721 350.794 82.8815 349.755 84.7315 347.905
C86.5815 346.055 87.621 343.545 87.621 340.929
C87.621 338.313 86.5815 335.803 84.7315 333.953
C82.8815 332.103 80.3721 331.064 77.7558 331.064
C75.1395 331.064 72.63 332.103 70.78 333.953
C68.9301 335.803 67.8906 338.313 67.8906 340.929
C67.8906 343.545 68.9301 346.055 70.78 347.905
C72.63 349.755 75.1395 350.794 77.7558 350.794
z
" style="fill:#00bfff;stroke:#000000;stroke-linejoin:miter;"/>
   </g>
   <g id="patch_59">
    <path d="
M25.9055 225.617
C28.5217 225.617 31.0312 224.577 32.8812 222.727
C34.7312 220.877 35.7707 218.368 35.7707 215.751
C35.7707 213.135 34.7312 210.626 32.8812 208.776
C31.0312 206.926 28.5217 205.886 25.9055 205.886
C23.2892 205.886 20.7797 206.926 18.9297 208.776
C17.0797 210.626 16.0403 213.135 16.0403 215.751
C16.0403 218.368 17.0797 220.877 18.9297 222.727
C20.7797 224.577 23.2892 225.617 25.9055 225.617
z
" style="fill:#00bfff;stroke:#000000;stroke-linejoin:miter;"/>
   </g>
   <g id="patch_60">
    <path d="
M270.679 62.0639
C273.295 62.0639 275.805 61.0245 277.655 59.1745
C279.505 57.3245 280.544 54.815 280.544 52.1988
C280.544 49.5825 279.505 47.073 277.655 45.223
C275.805 43.373 273.295 42.3336 270.679 42.3336
C268.063 42.3336 265.553 43.373 263.703 45.223
C261.853 47.073 260.814 49.5825 260.814 52.1988
C260.814 54.815 261.853 57.3245 263.703 59.1745
C265.553 61.0245 268.063 62.0639 270.679 62.0639
z
" style="fill:#ff0d00;stroke:#000000;stroke-linejoin:miter;"/>
   </g>
   <g id="patch_61">
    <path d="
M202.934 402.645
C205.55 402.645 208.059 401.605 209.909 399.755
C211.759 397.905 212.799 395.396 212.799 392.779
C212.799 390.163 211.759 387.654 209.909 385.804
C208.059 383.954 205.55 382.914 202.934 382.914
C200.317 382.914 197.808 383.954 195.958 385.804
C194.108 387.654 193.068 390.163 193.068 392.779
C193.068 395.396 194.108 397.905 195.958 399.755
C197.808 401.605 200.317 402.645 202.934 402.645
z
" style="fill:#ff0d00;stroke:#000000;stroke-linejoin:miter;"/>
   </g>
   <g id="patch_62">
    <path d="
M39.3809 157.871
C41.9972 157.871 44.5067 156.831 46.3567 154.981
C48.2067 153.131 49.2461 150.622 49.2461 148.006
C49.2461 145.389 48.2067 142.88 46.3567 141.03
C44.5067 139.18 41.9972 138.14 39.3809 138.14
C36.7646 138.14 34.2552 139.18 32.4052 141.03
C30.5552 142.88 29.5157 145.389 29.5157 148.006
C29.5157 150.622 30.5552 153.131 32.4052 154.981
C34.2552 156.831 36.7646 157.871 39.3809 157.871
z
" style="fill:#ff0d00;stroke:#000000;stroke-linejoin:miter;"/>
   </g>
   <g id="patch_63">
    <path d="
M328.111 350.794
C330.728 350.794 333.237 349.755 335.087 347.905
C336.937 346.055 337.976 343.545 337.976 340.929
C337.976 338.313 336.937 335.803 335.087 333.953
C333.237 332.103 330.728 331.064 328.111 331.064
C325.495 331.064 322.985 332.103 321.135 333.953
C319.286 335.803 318.246 338.313 318.246 340.929
C318.246 343.545 319.286 346.055 321.135 347.905
C322.985 349.755 325.495 350.794 328.111 350.794
z
" style="fill:#ff0d00;stroke:#000000;stroke-linejoin:miter;"/>
   </g>
   <g id="patch_64">
    <path d="
M270.679 389.169
C273.295 389.169 275.805 388.13 277.655 386.28
C279.505 384.43 280.544 381.92 280.544 379.304
C280.544 376.688 279.505 374.178 277.655 372.328
C275.805 370.478 273.295 369.439 270.679 369.439
C268.063 369.439 265.553 370.478 263.703 372.328
C261.853 374.178 260.814 376.688 260.814 379.304
C260.814 381.92 261.853 384.43 263.703 386.28
C265.553 388.13 268.063 389.169 270.679 389.169
z
" style="fill:#ff0d00;stroke:#000000;stroke-linejoin:miter;"/>
   </g>
   <g id="patch_65">
    <path d="
M366.486 293.362
C369.102 293.362 371.612 292.323 373.462 290.473
C375.312 288.623 376.351 286.113 376.351 283.497
C376.351 280.881 375.312 278.371 373.462 276.521
C371.612 274.671 369.102 273.632 366.486 273.632
C363.87 273.632 361.36 274.671 359.51 276.521
C357.66 278.371 356.621 280.881 356.621 283.497
C356.621 286.113 357.66 288.623 359.51 290.473
C361.36 292.323 363.87 293.362 366.486 293.362
z
" style="fill:#ff0d00;stroke:#000000;stroke-linejoin:miter;"/>
   </g>
   <g id="text_2">
    <!-- adagio -->
    <defs>
     <path d="
M30.6094 48.3906
Q23.3906 48.3906 19.1875 42.75
Q14.9844 37.1094 14.9844 27.2969
Q14.9844 17.4844 19.1562 11.8438
Q23.3438 6.20312 30.6094 6.20312
Q37.7969 6.20312 41.9844 11.8594
Q46.1875 17.5312 46.1875 27.2969
Q46.1875 37.0156 41.9844 42.7031
Q37.7969 48.3906 30.6094 48.3906
M30.6094 56
Q42.3281 56 49.0156 48.375
Q55.7188 40.7656 55.7188 27.2969
Q55.7188 13.875 49.0156 6.21875
Q42.3281 -1.42188 30.6094 -1.42188
Q18.8438 -1.42188 12.1719 6.21875
Q5.51562 13.875 5.51562 27.2969
Q5.51562 40.7656 12.1719 48.375
Q18.8438 56 30.6094 56" id="BitstreamVeraSans-Roman-6f"/>
     <path d="
M34.2812 27.4844
Q23.3906 27.4844 19.1875 25
Q14.9844 22.5156 14.9844 16.5
Q14.9844 11.7188 18.1406 8.90625
Q21.2969 6.10938 26.7031 6.10938
Q34.1875 6.10938 38.7031 11.4062
Q43.2188 16.7031 43.2188 25.4844
L43.2188 27.4844
z

M52.2031 31.2031
L52.2031 0
L43.2188 0
L43.2188 8.29688
Q40.1406 3.32812 35.5469 0.953125
Q30.9531 -1.42188 24.3125 -1.42188
Q15.9219 -1.42188 10.9531 3.29688
Q6 8.01562 6 15.9219
Q6 25.1406 12.1719 29.8281
Q18.3594 34.5156 30.6094 34.5156
L43.2188 34.5156
L43.2188 35.4062
Q43.2188 41.6094 39.1406 45
Q35.0625 48.3906 27.6875 48.3906
Q23 48.3906 18.5469 47.2656
Q14.1094 46.1406 10.0156 43.8906
L10.0156 52.2031
Q14.9375 54.1094 19.5781 55.0469
Q24.2188 56 28.6094 56
Q40.4844 56 46.3438 49.8438
Q52.2031 43.7031 52.2031 31.2031" id="BitstreamVeraSans-Roman-61"/>
    </defs>
    <g transform="translate(186.5819402 41.4826837101)scale(0.1 -0.1)">
     <use xlink:href="#BitstreamVeraSans-Roman-61"/>
     <use x="61.279296875" xlink:href="#BitstreamVeraSans-Roman-64"/>
     <use x="124.755859375" xlink:href="#BitstreamVeraSans-Roman-61"/>
     <use x="186.03515625" xlink:href="#BitstreamVeraSans-Roman-67"/>
     <use x="249.51171875" xlink:href="#BitstreamVeraSans-Roman-69"/>
     <use x="277.294921875" xlink:href="#BitstreamVeraSans-Roman-6f"/>
    </g>
   </g>
   <g id="text_3">
    <!-- ardan -->
    <defs>
     <path d="
M54.8906 33.0156
L54.8906 0
L45.9062 0
L45.9062 32.7188
Q45.9062 40.4844 42.875 44.3281
Q39.8438 48.1875 33.7969 48.1875
Q26.5156 48.1875 22.3125 43.5469
Q18.1094 38.9219 18.1094 30.9062
L18.1094 0
L9.07812 0
L9.07812 54.6875
L18.1094 54.6875
L18.1094 46.1875
Q21.3438 51.125 25.7031 53.5625
Q30.0781 56 35.7969 56
Q45.2188 56 50.0469 50.1719
Q54.8906 44.3438 54.8906 33.0156" id="BitstreamVeraSans-Roman-6e"/>
    </defs>
    <g transform="translate(121.472963293 54.958140413)scale(0.1 -0.1)">
     <use xlink:href="#BitstreamVeraSans-Roman-61"/>
     <use x="61.279296875" xlink:href="#BitstreamVeraSans-Roman-72"/>
     <use x="100.642578125" xlink:href="#BitstreamVeraSans-Roman-64"/>
     <use x="164.119140625" xlink:href="#BitstreamVeraSans-Roman-61"/>
     <use x="225.3984375" xlink:href="#BitstreamVeraSans-Roman-6e"/>
    </g>
   </g>
   <g id="text_4">
    <!-- catherine -->
    <defs>
     <path d="
M18.3125 70.2188
L18.3125 54.6875
L36.8125 54.6875
L36.8125 47.7031
L18.3125 47.7031
L18.3125 18.0156
Q18.3125 11.3281 20.1406 9.42188
Q21.9688 7.51562 27.5938 7.51562
L36.8125 7.51562
L36.8125 0
L27.5938 0
Q17.1875 0 13.2344 3.875
Q9.28125 7.76562 9.28125 18.0156
L9.28125 47.7031
L2.6875 47.7031
L2.6875 54.6875
L9.28125 54.6875
L9.28125 70.2188
z
" id="BitstreamVeraSans-Roman-74"/>
     <path d="
M54.8906 33.0156
L54.8906 0
L45.9062 0
L45.9062 32.7188
Q45.9062 40.4844 42.875 44.3281
Q39.8438 48.1875 33.7969 48.1875
Q26.5156 48.1875 22.3125 43.5469
Q18.1094 38.9219 18.1094 30.9062
L18.1094 0
L9.07812 0
L9.07812 75.9844
L18.1094 75.9844
L18.1094 46.1875
Q21.3438 51.125 25.7031 53.5625
Q30.0781 56 35.7969 56
Q45.2188 56 50.0469 50.1719
Q54.8906 44.3438 54.8906 33.0156" id="BitstreamVeraSans-Roman-68"/>
     <path d="
M48.7812 52.5938
L48.7812 44.1875
Q44.9688 46.2969 41.1406 47.3438
Q37.3125 48.3906 33.4062 48.3906
Q24.6562 48.3906 19.8125 42.8438
Q14.9844 37.3125 14.9844 27.2969
Q14.9844 17.2812 19.8125 11.7344
Q24.6562 6.20312 33.4062 6.20312
Q37.3125 6.20312 41.1406 7.25
Q44.9688 8.29688 48.7812 10.4062
L48.7812 2.09375
Q45.0156 0.34375 40.9844 -0.53125
Q36.9688 -1.42188 32.4219 -1.42188
Q20.0625 -1.42188 12.7812 6.34375
Q5.51562 14.1094 5.51562 27.2969
Q5.51562 40.6719 12.8594 48.3281
Q20.2188 56 33.0156 56
Q37.1562 56 41.1094 55.1406
Q45.0625 54.2969 48.7812 52.5938" id="BitstreamVeraSans-Roman-63"/>
    </defs>
    <g transform="translate(54.5893731839 93.332994394)scale(0.1 -0.1)">
     <use xlink:href="#BitstreamVeraSans-Roman-63"/>
     <use x="54.98046875" xlink:href="#BitstreamVeraSans-Roman-61"/>
     <use x="116.259765625" xlink:href="#BitstreamVeraSans-Roman-74"/>
     <use x="155.46875" xlink:href="#BitstreamVeraSans-Roman-68"/>
     <use x="218.84765625" xlink:href="#BitstreamVeraSans-Roman-65"/>
     <use x="280.37109375" xlink:href="#BitstreamVeraSans-Roman-72"/>
     <use x="321.484375" xlink:href="#BitstreamVeraSans-Roman-69"/>
     <use x="349.267578125" xlink:href="#BitstreamVeraSans-Roman-6e"/>
     <use x="412.646484375" xlink:href="#BitstreamVeraSans-Roman-65"/>
    </g>
   </g>
   <g id="text_5">
    <!-- celeste -->
    <defs>
     <path d="
M9.42188 75.9844
L18.4062 75.9844
L18.4062 0
L9.42188 0
z
" id="BitstreamVeraSans-Roman-6c"/>
    </defs>
    <g transform="translate(21.9903004529 150.765022003)scale(0.1 -0.1)">
     <use xlink:href="#BitstreamVeraSans-Roman-63"/>
     <use x="54.98046875" xlink:href="#BitstreamVeraSans-Roman-65"/>
     <use x="116.50390625" xlink:href="#BitstreamVeraSans-Roman-6c"/>
     <use x="144.287109375" xlink:href="#BitstreamVeraSans-Roman-65"/>
     <use x="205.810546875" xlink:href="#BitstreamVeraSans-Roman-73"/>
     <use x="257.91015625" xlink:href="#BitstreamVeraSans-Roman-74"/>
     <use x="297.119140625" xlink:href="#BitstreamVeraSans-Roman-65"/>
    </g>
   </g>
   <g id="text_6">
    <!-- fortress -->
    <defs>
     <path d="
M37.1094 75.9844
L37.1094 68.5
L28.5156 68.5
Q23.6875 68.5 21.7969 66.5469
Q19.9219 64.5938 19.9219 59.5156
L19.9219 54.6875
L34.7188 54.6875
L34.7188 47.7031
L19.9219 47.7031
L19.9219 0
L10.8906 0
L10.8906 47.7031
L2.29688 47.7031
L2.29688 54.6875
L10.8906 54.6875
L10.8906 58.5
Q10.8906 67.625 15.1406 71.7969
Q19.3906 75.9844 28.6094 75.9844
z
" id="BitstreamVeraSans-Roman-66"/>
    </defs>
    <g transform="translate(7.2 218.51071766)scale(0.1 -0.1)">
     <use xlink:href="#BitstreamVeraSans-Roman-66"/>
     <use x="35.205078125" xlink:href="#BitstreamVeraSans-Roman-6f"/>
     <use x="96.38671875" xlink:href="#BitstreamVeraSans-Roman-72"/>
     <use x="137.5" xlink:href="#BitstreamVeraSans-Roman-74"/>
     <use x="176.708984375" xlink:href="#BitstreamVeraSans-Roman-72"/>
     <use x="215.572265625" xlink:href="#BitstreamVeraSans-Roman-65"/>
     <use x="277.095703125" xlink:href="#BitstreamVeraSans-Roman-73"/>
     <use x="329.1953125" xlink:href="#BitstreamVeraSans-Roman-73"/>
    </g>
   </g>
   <g id="text_7">
    <!-- glaive -->
    <g transform="translate(24.8707692029 286.256413317)scale(0.1 -0.1)">
     <use xlink:href="#BitstreamVeraSans-Roman-67"/>
     <use x="63.4765625" xlink:href="#BitstreamVeraSans-Roman-6c"/>
     <use x="91.259765625" xlink:href="#BitstreamVeraSans-Roman-61"/>
     <use x="152.5390625" xlink:href="#BitstreamVeraSans-Roman-69"/>
     <use x="180.322265625" xlink:href="#BitstreamVeraSans-Roman-76"/>
     <use x="239.501953125" xlink:href="#BitstreamVeraSans-Roman-65"/>
    </g>
   </g>
   <g id="text_8">
    <!-- joule -->
    <defs>
     <path d="
M9.42188 54.6875
L18.4062 54.6875
L18.4062 -0.984375
Q18.4062 -11.4219 14.4219 -16.1094
Q10.4531 -20.7969 1.60938 -20.7969
L-1.8125 -20.7969
L-1.8125 -13.1875
L0.59375 -13.1875
Q5.71875 -13.1875 7.5625 -10.8125
Q9.42188 -8.45312 9.42188 -0.984375
z

M9.42188 75.9844
L18.4062 75.9844
L18.4062 64.5938
L9.42188 64.5938
z
" id="BitstreamVeraSans-Roman-6a"/>
    </defs>
    <g transform="translate(65.8487481839 343.688440927)scale(0.1 -0.1)">
     <use xlink:href="#BitstreamVeraSans-Roman-6a"/>
     <use x="27.783203125" xlink:href="#BitstreamVeraSans-Roman-6f"/>
     <use x="88.96484375" xlink:href="#BitstreamVeraSans-Roman-75"/>
     <use x="152.34375" xlink:href="#BitstreamVeraSans-Roman-6c"/>
     <use x="180.126953125" xlink:href="#BitstreamVeraSans-Roman-65"/>
    </g>
   </g>
   <g id="text_9">
    <!-- koshka -->
    <g transform="translate(118.676869543 382.063294907)scale(0.1 -0.1)">
     <use xlink:href="#BitstreamVeraSans-Roman-6b"/>
     <use x="54.28515625" xlink:href="#BitstreamVeraSans-Roman-6f"/>
     <use x="115.466796875" xlink:href="#BitstreamVeraSans-Roman-73"/>
     <use x="167.56640625" xlink:href="#BitstreamVeraSans-Roman-68"/>
     <use x="230.9453125" xlink:href="#BitstreamVeraSans-Roman-6b"/>
     <use x="287.10546875" xlink:href="#BitstreamVeraSans-Roman-61"/>
    </g>
   </g>
   <g id="text_10">
    <!-- krul -->
    <g transform="translate(194.3475652 395.53875161)scale(0.1 -0.1)">
     <use xlink:href="#BitstreamVeraSans-Roman-6b"/>
     <use x="57.91015625" xlink:href="#BitstreamVeraSans-Roman-72"/>
     <use x="99.0234375" xlink:href="#BitstreamVeraSans-Roman-75"/>
     <use x="162.40234375" xlink:href="#BitstreamVeraSans-Roman-6c"/>
    </g>
   </g>
   <g id="text_11">
    <!-- petal -->
    <defs>
     <path d="
M18.1094 8.20312
L18.1094 -20.7969
L9.07812 -20.7969
L9.07812 54.6875
L18.1094 54.6875
L18.1094 46.3906
Q20.9531 51.2656 25.2656 53.625
Q29.5938 56 35.5938 56
Q45.5625 56 51.7812 48.0938
Q58.0156 40.1875 58.0156 27.2969
Q58.0156 14.4062 51.7812 6.48438
Q45.5625 -1.42188 35.5938 -1.42188
Q29.5938 -1.42188 25.2656 0.953125
Q20.9531 3.32812 18.1094 8.20312
M48.6875 27.2969
Q48.6875 37.2031 44.6094 42.8438
Q40.5312 48.4844 33.4062 48.4844
Q26.2656 48.4844 22.1875 42.8438
Q18.1094 37.2031 18.1094 27.2969
Q18.1094 17.3906 22.1875 11.75
Q26.2656 6.10938 33.4062 6.10938
Q40.5312 6.10938 44.6094 11.75
Q48.6875 17.3906 48.6875 27.2969" id="BitstreamVeraSans-Roman-70"/>
    </defs>
    <g transform="translate(258.937792107 382.063294907)scale(0.1 -0.1)">
     <use xlink:href="#BitstreamVeraSans-Roman-70"/>
     <use x="63.4765625" xlink:href="#BitstreamVeraSans-Roman-65"/>
     <use x="125.0" xlink:href="#BitstreamVeraSans-Roman-74"/>
     <use x="164.208984375" xlink:href="#BitstreamVeraSans-Roman-61"/>
     <use x="225.48828125" xlink:href="#BitstreamVeraSans-Roman-6c"/>
    </g>
   </g>
   <g id="text_12">
    <!-- ringo -->
    <g transform="translate(315.991694716 343.688440927)scale(0.1 -0.1)">
     <use xlink:href="#BitstreamVeraSans-Roman-72"/>
     <use x="41.11328125" xlink:href="#BitstreamVeraSans-Roman-69"/>
     <use x="68.896484375" xlink:href="#BitstreamVeraSans-Roman-6e"/>
     <use x="132.275390625" xlink:href="#BitstreamVeraSans-Roman-67"/>
     <use x="195.751953125" xlink:href="#BitstreamVeraSans-Roman-6f"/>
    </g>
   </g>
   <g id="text_13">
    <!-- rona -->
    <g transform="translate(356.158736197 286.256413317)scale(0.1 -0.1)">
     <use xlink:href="#BitstreamVeraSans-Roman-72"/>
     <use x="38.86328125" xlink:href="#BitstreamVeraSans-Roman-6f"/>
     <use x="100.044921875" xlink:href="#BitstreamVeraSans-Roman-6e"/>
     <use x="163.423828125" xlink:href="#BitstreamVeraSans-Roman-61"/>
    </g>
   </g>
   <g id="text_14">
    <!-- saw -->
    <defs>
     <path d="
M4.20312 54.6875
L13.1875 54.6875
L24.4219 12.0156
L35.5938 54.6875
L46.1875 54.6875
L57.4219 12.0156
L68.6094 54.6875
L77.5938 54.6875
L63.2812 0
L52.6875 0
L40.9219 44.8281
L29.1094 0
L18.5 0
z
" id="BitstreamVeraSans-Roman-77"/>
    </defs>
    <g transform="translate(370.6841929 218.51071766)scale(0.1 -0.1)">
     <use xlink:href="#BitstreamVeraSans-Roman-73"/>
     <use x="52.099609375" xlink:href="#BitstreamVeraSans-Roman-61"/>
     <use x="113.37890625" xlink:href="#BitstreamVeraSans-Roman-77"/>
    </g>
   </g>
   <g id="text_15">
    <!-- skaarf -->
    <g transform="translate(351.305611197 150.765022003)scale(0.1 -0.1)">
     <use xlink:href="#BitstreamVeraSans-Roman-73"/>
     <use x="52.099609375" xlink:href="#BitstreamVeraSans-Roman-6b"/>
     <use x="108.259765625" xlink:href="#BitstreamVeraSans-Roman-61"/>
     <use x="169.5390625" xlink:href="#BitstreamVeraSans-Roman-61"/>
     <use x="230.818359375" xlink:href="#BitstreamVeraSans-Roman-72"/>
     <use x="271.931640625" xlink:href="#BitstreamVeraSans-Roman-66"/>
    </g>
   </g>
   <g id="text_16">
    <!-- taka -->
    <g transform="translate(317.803413466 93.332994394)scale(0.1 -0.1)">
     <use xlink:href="#BitstreamVeraSans-Roman-74"/>
     <use x="39.208984375" xlink:href="#BitstreamVeraSans-Roman-61"/>
     <use x="100.48828125" xlink:href="#BitstreamVeraSans-Roman-6b"/>
     <use x="156.6484375" xlink:href="#BitstreamVeraSans-Roman-61"/>
    </g>
   </g>
   <g id="text_17">
    <!-- vox -->
    <defs>
     <path d="
M54.8906 54.6875
L35.1094 28.0781
L55.9062 0
L45.3125 0
L29.3906 21.4844
L13.4844 0
L2.875 0
L24.125 28.6094
L4.6875 54.6875
L15.2812 54.6875
L29.7812 35.2031
L44.2812 54.6875
z
" id="BitstreamVeraSans-Roman-78"/>
    </defs>
    <g transform="translate(262.170604607 54.958140413)scale(0.1 -0.1)">
     <use xlink:href="#BitstreamVeraSans-Roman-76"/>
     <use x="59.1796875" xlink:href="#BitstreamVeraSans-Roman-6f"/>
     <use x="117.236328125" xlink:href="#BitstreamVeraSans-Roman-78"/>
    </g>
   </g>
  </g>
 </g>
 <defs>
  <clipPath id="pd65ab3b00b">
   <rect height="392.08" width="388.737892733" x="8.56455633345" y="21.318125"/>
  </clipPath>
 </defs>
</svg>
