<?xml version="1.0" encoding="utf-8" standalone="no"?>
<!DOCTYPE svg PUBLIC "-//W3C//DTD SVG 1.1//EN"
  "http://www.w3.org/Graphics/SVG/1.1/DTD/svg11.dtd">
<!-- Created with matplotlib (http://matplotlib.org/) -->
<svg height="420pt" version="1.1" viewBox="0 0 404 420" width="404pt" xmlns="http://www.w3.org/2000/svg" xmlns:xlink="http://www.w3.org/1999/xlink">
 <defs>
  <style type="text/css">
*{stroke-linecap:butt;stroke-linejoin:round;}
  </style>
 </defs>
 <g id="figure_1">
  <g id="patch_1">
   <path d="
M0 420.598
L404.502 420.598
L404.502 0
L0 0
z
" style="fill:#ffffff;"/>
  </g>
  <g id="axes_1">
   <g id="patch_2">
    <path d="
M8.56456 413.398
L397.302 413.398
L397.302 21.3181
L8.56456 21.3181
z
" style="fill:#ffffff;"/>
   </g>
   <g id="patch_3">
    <path clip-path="url(#pd65ab3b00b)" d="
M144.373 51.8122
Q202.934 28.8581 259.413 50.9961" style="fill:none;stroke:#000000;stroke-linecap:round;stroke-width:2.0;"/>
    <path clip-path="url(#pd65ab3b00b)" d="
M251.927 42.6916
L259.413 50.9961
L248.278 52.002
L251.927 42.6916
z
" style="stroke:#000000;stroke-linecap:round;stroke-width:2.0;"/>
   </g>
   <g id="patch_4">
    <path clip-path="url(#pd65ab3b00b)" d="
M146.454 59.8285
Q202.934 81.9665 261.494 59.0125" style="fill:none;stroke:#000000;stroke-linecap:round;stroke-width:2.0;"/>
    <path clip-path="url(#pd65ab3b00b)" d="
M153.94 68.133
L146.454 59.8285
L157.589 58.8227
L153.94 68.133
z
" style="stroke:#000000;stroke-linecap:round;stroke-width:2.0;"/>
   </g>
   <g id="patch_5">
    <path clip-path="url(#pd65ab3b00b)" d="
M35.6615 217.502
Q202.934 192.411 367.994 217.17" style="fill:none;stroke:#000000;stroke-linecap:round;stroke-width:2.0;"/>
    <path clip-path="url(#pd65ab3b00b)" d="
M358.847 210.742
L367.994 217.17
L357.363 220.631
L358.847 210.742
z
" style="stroke:#000000;stroke-linecap:round;stroke-width:2.0;"/>
   </g>
   <g id="patch_6">
    <path clip-path="url(#pd65ab3b00b)" d="
M37.8728 220.76
Q202.934 245.519 370.205 220.428" style="fill:none;stroke:#000000;stroke-linecap:round;stroke-width:2.0;"/>
    <path clip-path="url(#pd65ab3b00b)" d="
M47.0205 227.188
L37.8728 220.76
L48.5039 217.299
L47.0205 227.188
z
" style="stroke:#000000;stroke-linecap:round;stroke-width:2.0;"/>
   </g>
   <g id="patch_7">
    <path clip-path="url(#pd65ab3b00b)" d="
M87.5986 94.4512
Q179.398 100.644 259.836 60.7853" style="fill:none;stroke:#000000;stroke-linecap:round;stroke-width:2.0;"/>
    <path clip-path="url(#pd65ab3b00b)" d="
M248.656 60.7451
L259.836 60.7853
L253.096 69.7054
L248.656 60.7451
z
" style="stroke:#000000;stroke-linecap:round;stroke-width:2.0;"/>
   </g>
   <g id="patch_8">
    <path clip-path="url(#pd65ab3b00b)" d="
M88.5988 88.4143
Q169.037 48.5558 260.836 54.7484" style="fill:none;stroke:#000000;stroke-linecap:round;stroke-width:2.0;"/>
    <path clip-path="url(#pd65ab3b00b)" d="
M99.7791 88.4544
L88.5988 88.4143
L95.3391 79.4942
L99.7791 88.4544
z
" style="stroke:#000000;stroke-linecap:round;stroke-width:2.0;"/>
   </g>
   <g id="patch_9">
    <path clip-path="url(#pd65ab3b00b)" d="
M32.8812 225.941
Q114.419 307.479 194.377 387.436" style="fill:none;stroke:#000000;stroke-linecap:round;stroke-width:2.0;"/>
    <path clip-path="url(#pd65ab3b00b)" d="
M190.841 376.829
L194.377 387.436
L183.77 383.901
L190.841 376.829
z
" style="stroke:#000000;stroke-linecap:round;stroke-width:2.0;"/>
   </g>
   <g id="patch_10">
    <path clip-path="url(#pd65ab3b00b)" d="
M27.8301 228.641
Q32.6432 252.838 37.0201 274.842" style="fill:none;stroke:#000000;stroke-linecap:round;stroke-width:2.0;"/>
    <path clip-path="url(#pd65ab3b00b)" d="
M39.9731 264.059
L37.0201 274.842
L30.1653 266.009
L39.9731 264.059
z
" style="stroke:#000000;stroke-linecap:round;stroke-width:2.0;"/>
   </g>
   <g id="patch_11">
    <path clip-path="url(#pd65ab3b00b)" d="
M143.745 63.9692
Q250.837 171.061 359.51 279.735" style="fill:none;stroke:#000000;stroke-linecap:round;stroke-width:2.0;"/>
    <path clip-path="url(#pd65ab3b00b)" d="
M147.28 74.5758
L143.745 63.9692
L154.351 67.5047
L147.28 74.5758
z
" style="stroke:#000000;stroke-linecap:round;stroke-width:2.0;"/>
   </g>
   <g id="patch_12">
    <path clip-path="url(#pd65ab3b00b)" d="
M131.413 64.5266
Q87.2844 171.061 44.0119 275.531" style="fill:none;stroke:#000000;stroke-linecap:round;stroke-width:2.0;"/>
    <path clip-path="url(#pd65ab3b00b)" d="
M52.4581 268.205
L44.0119 275.531
L43.2193 264.378
L52.4581 268.205
z
" style="stroke:#000000;stroke-linecap:round;stroke-width:2.0;"/>
   </g>
   <g id="patch_13">
    <path clip-path="url(#pd65ab3b00b)" d="
M135.188 65.2775
Q135.188 218.965 135.188 370.416" style="fill:none;stroke:#000000;stroke-linecap:round;stroke-width:2.0;"/>
    <path clip-path="url(#pd65ab3b00b)" d="
M140.188 360.416
L135.188 370.416
L130.188 360.416
L140.188 360.416
z
" style="stroke:#000000;stroke-linecap:round;stroke-width:2.0;"/>
   </g>
   <g id="patch_14">
    <path clip-path="url(#pd65ab3b00b)" d="
M196.21 51.9987
Q121.157 164.324 44.8617 278.508" style="fill:none;stroke:#000000;stroke-linecap:round;stroke-width:2.0;"/>
    <path clip-path="url(#pd65ab3b00b)" d="
M186.497 57.5355
L196.21 51.9987
L194.812 63.0912
L186.497 57.5355
z
" style="stroke:#000000;stroke-linecap:round;stroke-width:2.0;"/>
   </g>
   <g id="patch_15">
    <path clip-path="url(#pd65ab3b00b)" d="
M47.5835 156.7
Q183.746 247.681 318.049 337.42" style="fill:none;stroke:#000000;stroke-linecap:round;stroke-width:2.0;"/>
    <path clip-path="url(#pd65ab3b00b)" d="
M312.513 327.706
L318.049 337.42
L306.957 336.021
L312.513 327.706
z
" style="stroke:#000000;stroke-linecap:round;stroke-width:2.0;"/>
   </g>
   <g id="patch_16">
    <path clip-path="url(#pd65ab3b00b)" d="
M49.2461 151.219
Q202.934 151.219 354.385 151.219" style="fill:none;stroke:#000000;stroke-linecap:round;stroke-width:2.0;"/>
    <path clip-path="url(#pd65ab3b00b)" d="
M344.385 146.219
L354.385 151.219
L344.385 156.219
L344.385 146.219
z
" style="stroke:#000000;stroke-linecap:round;stroke-width:2.0;"/>
   </g>
   <g id="patch_17">
    <path clip-path="url(#pd65ab3b00b)" d="
M214.114 46.5678
Q265.522 67.862 318.997 90.0119" style="fill:none;stroke:#000000;stroke-linecap:round;stroke-width:2.0;"/>
    <path clip-path="url(#pd65ab3b00b)" d="
M221.439 55.0141
L214.114 46.5678
L225.266 45.7753
L221.439 55.0141
z
" style="stroke:#000000;stroke-linecap:round;stroke-width:2.0;"/>
   </g>
   <g id="patch_18">
    <path clip-path="url(#pd65ab3b00b)" d="
M141.911 372.456
Q231.65 238.152 322.63 101.99" style="fill:none;stroke:#000000;stroke-linecap:round;stroke-width:2.0;"/>
    <path clip-path="url(#pd65ab3b00b)" d="
M151.624 366.919
L141.911 372.456
L143.309 361.363
L151.624 366.919
z
" style="stroke:#000000;stroke-linecap:round;stroke-width:2.0;"/>
   </g>
   <g id="patch_19">
    <path clip-path="url(#pd65ab3b00b)" d="
M361.005 143.017
Q347.299 122.503 334.834 103.849" style="fill:none;stroke:#000000;stroke-linecap:round;stroke-width:2.0;"/>
    <path clip-path="url(#pd65ab3b00b)" d="
M336.233 114.942
L334.834 103.849
L344.547 109.386
L336.233 114.942
z
" style="stroke:#000000;stroke-linecap:round;stroke-width:2.0;"/>
   </g>
   <g id="patch_20">
    <path clip-path="url(#pd65ab3b00b)" d="
M191.065 44.2977
Q169.061 48.6746 144.863 53.4877" style="fill:none;stroke:#000000;stroke-linecap:round;stroke-width:2.0;"/>
    <path clip-path="url(#pd65ab3b00b)" d="
M180.281 41.3447
L191.065 44.2977
L182.232 51.1525
L180.281 41.3447
z
" style="stroke:#000000;stroke-linecap:round;stroke-width:2.0;"/>
   </g>
   <g id="patch_21">
    <path clip-path="url(#pd65ab3b00b)" d="
M192.872 48.66
Q121.157 96.578 47.5835 145.738" style="fill:none;stroke:#000000;stroke-linecap:round;stroke-width:2.0;"/>
    <path clip-path="url(#pd65ab3b00b)" d="
M181.779 50.0583
L192.872 48.66
L187.335 58.373
L181.779 50.0583
z
" style="stroke:#000000;stroke-linecap:round;stroke-width:2.0;"/>
   </g>
   <g id="patch_22">
    <path clip-path="url(#pd65ab3b00b)" d="
M200.573 53.8056
Q169.061 212.227 137.112 372.842" style="fill:none;stroke:#000000;stroke-linecap:round;stroke-width:2.0;"/>
    <path clip-path="url(#pd65ab3b00b)" d="
M193.718 62.638
L200.573 53.8056
L203.526 64.5889
L193.718 62.638
z
" style="stroke:#000000;stroke-linecap:round;stroke-width:2.0;"/>
   </g>
   <g id="patch_23">
    <path clip-path="url(#pd65ab3b00b)" d="
M147.289 382.517
Q202.934 382.517 260.814 382.517" style="fill:none;stroke:#000000;stroke-linecap:round;stroke-width:2.0;"/>
    <path clip-path="url(#pd65ab3b00b)" d="
M157.289 387.517
L147.289 382.517
L157.289 377.517
L157.289 387.517
z
" style="stroke:#000000;stroke-linecap:round;stroke-width:2.0;"/>
   </g>
   <g id="patch_24">
    <path clip-path="url(#pd65ab3b00b)" d="
M31.3863 227.168
Q80.5466 300.741 128.465 372.456" style="fill:none;stroke:#000000;stroke-linecap:round;stroke-width:2.0;"/>
    <path clip-path="url(#pd65ab3b00b)" d="
M127.066 361.363
L128.465 372.456
L118.752 366.919
L127.066 361.363
z
" style="stroke:#000000;stroke-linecap:round;stroke-width:2.0;"/>
   </g>
   <g id="patch_25">
    <path clip-path="url(#pd65ab3b00b)" d="
M29.6807 228.079
Q51.8306 281.554 73.1248 332.963" style="fill:none;stroke:#000000;stroke-linecap:round;stroke-width:2.0;"/>
    <path clip-path="url(#pd65ab3b00b)" d="
M73.9174 321.81
L73.1248 332.963
L64.6786 325.637
L73.9174 321.81
z
" style="stroke:#000000;stroke-linecap:round;stroke-width:2.0;"/>
   </g>
   <g id="patch_26">
    <path clip-path="url(#pd65ab3b00b)" d="
M364.561 277.035
Q347.299 190.249 330.472 105.656" style="fill:none;stroke:#000000;stroke-linecap:round;stroke-width:2.0;"/>
    <path clip-path="url(#pd65ab3b00b)" d="
M327.519 116.439
L330.472 105.656
L337.327 114.488
L327.519 116.439
z
" style="stroke:#000000;stroke-linecap:round;stroke-width:2.0;"/>
   </g>
   <g id="patch_27">
    <path clip-path="url(#pd65ab3b00b)" d="
M49.0566 149.295
Q183.746 122.503 316.242 96.148" style="fill:none;stroke:#000000;stroke-linecap:round;stroke-width:2.0;"/>
    <path clip-path="url(#pd65ab3b00b)" d="
M305.459 93.195
L316.242 96.148
L307.41 103.003
L305.459 93.195
z
" style="stroke:#000000;stroke-linecap:round;stroke-width:2.0;"/>
   </g>
   <g id="patch_28">
    <path clip-path="url(#pd65ab3b00b)" d="
M198.303 53.117
Q140.345 193.04 81.531 335.028" style="fill:none;stroke:#000000;stroke-linecap:round;stroke-width:2.0;"/>
    <path clip-path="url(#pd65ab3b00b)" d="
M189.856 60.4424
L198.303 53.117
L199.095 64.2692
L189.856 60.4424
z
" style="stroke:#000000;stroke-linecap:round;stroke-width:2.0;"/>
   </g>
   <g id="patch_29">
    <path clip-path="url(#pd65ab3b00b)" d="
M207.564 53.117
Q265.522 193.04 324.336 335.028" style="fill:none;stroke:#000000;stroke-linecap:round;stroke-width:2.0;"/>
    <path clip-path="url(#pd65ab3b00b)" d="
M206.772 64.2692
L207.564 53.117
L216.011 60.4424
L206.772 64.2692
z
" style="stroke:#000000;stroke-linecap:round;stroke-width:2.0;"/>
   </g>
   <g id="patch_30">
    <path clip-path="url(#pd65ab3b00b)" d="
M47.9378 278.154
Q155.03 171.061 263.703 62.3881" style="fill:none;stroke:#000000;stroke-linecap:round;stroke-width:2.0;"/>
    <path clip-path="url(#pd65ab3b00b)" d="
M58.5444 274.618
L47.9378 278.154
L51.4733 267.547
L58.5444 274.618
z
" style="stroke:#000000;stroke-linecap:round;stroke-width:2.0;"/>
   </g>
   <g id="patch_31">
    <path clip-path="url(#pd65ab3b00b)" d="
M325.75 332.274
Q299.395 199.777 272.604 65.088" style="fill:none;stroke:#000000;stroke-linecap:round;stroke-width:2.0;"/>
    <path clip-path="url(#pd65ab3b00b)" d="
M328.703 321.491
L325.75 332.274
L318.896 323.441
L328.703 321.491
z
" style="stroke:#000000;stroke-linecap:round;stroke-width:2.0;"/>
   </g>
   <g id="patch_32">
    <path clip-path="url(#pd65ab3b00b)" d="
M143.745 373.961
Q250.837 266.868 359.51 158.195" style="fill:none;stroke:#000000;stroke-linecap:round;stroke-width:2.0;"/>
    <path clip-path="url(#pd65ab3b00b)" d="
M154.351 370.425
L143.745 373.961
L147.28 363.354
L154.351 370.425
z
" style="stroke:#000000;stroke-linecap:round;stroke-width:2.0;"/>
   </g>
   <g id="patch_33">
    <path clip-path="url(#pd65ab3b00b)" d="
M362.711 277.596
Q318.583 171.061 275.31 66.5924" style="fill:none;stroke:#000000;stroke-linecap:round;stroke-width:2.0;"/>
    <path clip-path="url(#pd65ab3b00b)" d="
M274.518 77.7446
L275.31 66.5924
L283.756 73.9178
L274.518 77.7446
z
" style="stroke:#000000;stroke-linecap:round;stroke-width:2.0;"/>
   </g>
   <g id="patch_34">
    <path clip-path="url(#pd65ab3b00b)" d="
M144.863 57.3369
Q231.65 74.5998 316.242 91.4263" style="fill:none;stroke:#000000;stroke-linecap:round;stroke-width:2.0;"/>
    <path clip-path="url(#pd65ab3b00b)" d="
M307.41 84.5715
L316.242 91.4263
L305.459 94.3794
L307.41 84.5715
z
" style="stroke:#000000;stroke-linecap:round;stroke-width:2.0;"/>
   </g>
   <g id="patch_35">
    <path clip-path="url(#pd65ab3b00b)" d="
M139.819 371.337
Q202.934 218.965 266.904 64.5266" style="fill:none;stroke:#000000;stroke-linecap:round;stroke-width:2.0;"/>
    <path clip-path="url(#pd65ab3b00b)" d="
M148.265 364.012
L139.819 371.337
L139.026 360.185
L148.265 364.012
z
" style="stroke:#000000;stroke-linecap:round;stroke-width:2.0;"/>
   </g>
   <g id="patch_36">
    <path clip-path="url(#pd65ab3b00b)" d="
M39.3809 161.084
Q39.3809 218.965 39.3809 274.609" style="fill:none;stroke:#000000;stroke-linecap:round;stroke-width:2.0;"/>
    <path clip-path="url(#pd65ab3b00b)" d="
M44.3809 264.609
L39.3809 274.609
L34.3809 264.609
L44.3809 264.609
z
" style="stroke:#000000;stroke-linecap:round;stroke-width:2.0;"/>
   </g>
   <g id="patch_37">
    <path clip-path="url(#pd65ab3b00b)" d="
M209.657 51.9987
Q284.71 164.324 361.005 278.508" style="fill:none;stroke:#000000;stroke-linecap:round;stroke-width:2.0;"/>
    <path clip-path="url(#pd65ab3b00b)" d="
M211.055 63.0912
L209.657 51.9987
L219.37 57.5355
L211.055 63.0912
z
" style="stroke:#000000;stroke-linecap:round;stroke-width:2.0;"/>
   </g>
   <g id="patch_38">
    <path clip-path="url(#pd65ab3b00b)" d="
M212.995 389.27
Q284.71 341.352 358.283 292.191" style="fill:none;stroke:#000000;stroke-linecap:round;stroke-width:2.0;"/>
    <path clip-path="url(#pd65ab3b00b)" d="
M224.088 387.871
L212.995 389.27
L218.532 379.557
L224.088 387.871
z
" style="stroke:#000000;stroke-linecap:round;stroke-width:2.0;"/>
   </g>
   <g id="patch_39">
    <path clip-path="url(#pd65ab3b00b)" d="
M194.377 50.4938
Q114.419 130.451 32.8812 211.989" style="fill:none;stroke:#000000;stroke-linecap:round;stroke-width:2.0;"/>
    <path clip-path="url(#pd65ab3b00b)" d="
M183.77 54.0293
L194.377 50.4938
L190.841 61.1004
L183.77 54.0293
z
" style="stroke:#000000;stroke-linecap:round;stroke-width:2.0;"/>
   </g>
   <g id="patch_40">
    <path clip-path="url(#pd65ab3b00b)" d="
M49.4427 279.988
Q183.746 190.249 319.909 99.268" style="fill:none;stroke:#000000;stroke-linecap:round;stroke-width:2.0;"/>
    <path clip-path="url(#pd65ab3b00b)" d="
M60.5353 278.589
L49.4427 279.988
L54.9796 270.274
L60.5353 278.589
z
" style="stroke:#000000;stroke-linecap:round;stroke-width:2.0;"/>
   </g>
   <g id="patch_41">
    <path clip-path="url(#pd65ab3b00b)" d="
M318.049 87.0641
Q299.395 74.5998 278.882 60.8931" style="fill:none;stroke:#000000;stroke-linecap:round;stroke-width:2.0;"/>
    <path clip-path="url(#pd65ab3b00b)" d="
M312.513 77.351
L318.049 87.0641
L306.957 85.6657
L312.513 77.351
z
" style="stroke:#000000;stroke-linecap:round;stroke-width:2.0;"/>
   </g>
   <g id="patch_42">
    <path clip-path="url(#pd65ab3b00b)" d="
M51.4822 286.711
Q202.934 286.711 356.621 286.711" style="fill:none;stroke:#000000;stroke-linecap:round;stroke-width:2.0;"/>
    <path clip-path="url(#pd65ab3b00b)" d="
M61.4822 291.711
L51.4822 286.711
L61.4822 281.711
L61.4822 291.711
z
" style="stroke:#000000;stroke-linecap:round;stroke-width:2.0;"/>
   </g>
   <g id="patch_43">
    <path clip-path="url(#pd65ab3b00b)" d="
M87.8176 337.42
Q222.121 247.681 358.283 156.7" style="fill:none;stroke:#000000;stroke-linecap:round;stroke-width:2.0;"/>
    <path clip-path="url(#pd65ab3b00b)" d="
M98.9101 336.021
L87.8176 337.42
L93.3544 327.706
L98.9101 336.021
z
" style="stroke:#000000;stroke-linecap:round;stroke-width:2.0;"/>
   </g>
   <g id="patch_44">
    <path clip-path="url(#pd65ab3b00b)" d="
M84.4789 334.081
Q174.217 199.777 265.198 63.6149" style="fill:none;stroke:#000000;stroke-linecap:round;stroke-width:2.0;"/>
    <path clip-path="url(#pd65ab3b00b)" d="
M94.1919 328.544
L84.4789 334.081
L85.8772 322.988
L94.1919 328.544
z
" style="stroke:#000000;stroke-linecap:round;stroke-width:2.0;"/>
   </g>
   <g id="patch_45">
    <path clip-path="url(#pd65ab3b00b)" d="
M214.802 44.2977
Q236.806 48.6746 261.004 53.4877" style="fill:none;stroke:#000000;stroke-linecap:round;stroke-width:2.0;"/>
    <path clip-path="url(#pd65ab3b00b)" d="
M223.635 51.1525
L214.802 44.2977
L225.586 41.3447
L223.635 51.1525
z
" style="stroke:#000000;stroke-linecap:round;stroke-width:2.0;"/>
   </g>
   <g id="patch_46">
    <path clip-path="url(#pd65ab3b00b)" d="
M50.561 155.85
Q202.934 218.965 357.372 282.935" style="fill:none;stroke:#000000;stroke-linecap:round;stroke-width:2.0;"/>
    <path clip-path="url(#pd65ab3b00b)" d="
M57.8864 164.296
L50.561 155.85
L61.7132 155.058
L57.8864 164.296
z
" style="stroke:#000000;stroke-linecap:round;stroke-width:2.0;"/>
   </g>
   <g id="patch_47">
    <path clip-path="url(#pd65ab3b00b)" d="
M128.465 65.4742
Q80.5466 137.189 31.3863 210.762" style="fill:none;stroke:#000000;stroke-linecap:round;stroke-width:2.0;"/>
    <path clip-path="url(#pd65ab3b00b)" d="
M118.752 71.011
L128.465 65.4742
L127.066 76.5667
L118.752 71.011
z
" style="stroke:#000000;stroke-linecap:round;stroke-width:2.0;"/>
   </g>
   <g id="patch_48">
    <path clip-path="url(#pd65ab3b00b)" d="
M73.1248 104.967
Q51.8306 156.376 29.6807 209.851" style="fill:none;stroke:#000000;stroke-linecap:round;stroke-width:2.0;"/>
    <path clip-path="url(#pd65ab3b00b)" d="
M64.6786 112.293
L73.1248 104.967
L73.9174 116.119
L64.6786 112.293
z
" style="stroke:#000000;stroke-linecap:round;stroke-width:2.0;"/>
   </g>
   <g id="patch_49">
    <path clip-path="url(#pd65ab3b00b)" d="
M43.1562 160.333
Q87.2844 266.868 130.557 371.337" style="fill:none;stroke:#000000;stroke-linecap:round;stroke-width:2.0;"/>
    <path clip-path="url(#pd65ab3b00b)" d="
M131.349 360.185
L130.557 371.337
L122.111 364.012
L131.349 360.185
z
" style="stroke:#000000;stroke-linecap:round;stroke-width:2.0;"/>
   </g>
   <g id="patch_50">
    <path clip-path="url(#pd65ab3b00b)" d="
M41.3055 160.895
Q58.5684 247.681 75.3949 332.274" style="fill:none;stroke:#000000;stroke-linecap:round;stroke-width:2.0;"/>
    <path clip-path="url(#pd65ab3b00b)" d="
M78.348 321.491
L75.3949 332.274
L68.5401 323.441
L78.348 321.491
z
" style="stroke:#000000;stroke-linecap:round;stroke-width:2.0;"/>
   </g>
   <g id="patch_51">
    <path clip-path="url(#pd65ab3b00b)" d="
M87.8176 100.51
Q222.121 190.249 358.283 281.23" style="fill:none;stroke:#000000;stroke-linecap:round;stroke-width:2.0;"/>
    <path clip-path="url(#pd65ab3b00b)" d="
M93.3544 110.223
L87.8176 100.51
L98.9101 101.909
L93.3544 110.223
z
" style="stroke:#000000;stroke-linecap:round;stroke-width:2.0;"/>
   </g>
   <g id="patch_52">
    <path clip-path="url(#pd65ab3b00b)" d="
M89.6245 341.782
Q222.121 315.427 356.81 288.635" style="fill:none;stroke:#000000;stroke-linecap:round;stroke-width:2.0;"/>
    <path clip-path="url(#pd65ab3b00b)" d="
M100.408 344.735
L89.6245 341.782
L98.4569 334.927
L100.408 344.735
z
" style="stroke:#000000;stroke-linecap:round;stroke-width:2.0;"/>
   </g>
   <g id="patch_53">
    <path clip-path="url(#pd65ab3b00b)" d="
M49.0566 153.144
Q209.671 185.092 368.093 216.604" style="fill:none;stroke:#000000;stroke-linecap:round;stroke-width:2.0;"/>
    <path clip-path="url(#pd65ab3b00b)" d="
M359.26 209.749
L368.093 216.604
L357.31 219.557
L359.26 209.749
z
" style="stroke:#000000;stroke-linecap:round;stroke-width:2.0;"/>
   </g>
   <g id="patch_54">
    <path clip-path="url(#pd65ab3b00b)" d="
M334.834 334.081
Q347.299 315.427 361.005 294.913" style="fill:none;stroke:#000000;stroke-linecap:round;stroke-width:2.0;"/>
    <path clip-path="url(#pd65ab3b00b)" d="
M344.547 328.544
L334.834 334.081
L336.233 322.988
L344.547 328.544
z
" style="stroke:#000000;stroke-linecap:round;stroke-width:2.0;"/>
   </g>
   <g id="patch_55">
    <path clip-path="url(#pd65ab3b00b)" d="
M35.5811 217.04
Q196.196 185.092 354.617 153.58" style="fill:none;stroke:#000000;stroke-linecap:round;stroke-width:2.0;"/>
    <path clip-path="url(#pd65ab3b00b)" d="
M343.834 150.627
L354.617 153.58
L345.785 160.435
L343.834 150.627
z
" style="stroke:#000000;stroke-linecap:round;stroke-width:2.0;"/>
   </g>
   <g id="patch_56">
    <path clip-path="url(#pd65ab3b00b)" d="
M202.934 54.0381
Q202.934 218.965 202.934 386.128" style="fill:none;stroke:#000000;stroke-linecap:round;stroke-width:2.0;"/>
    <path clip-path="url(#pd65ab3b00b)" d="
M197.934 64.0381
L202.934 54.0381
L207.934 64.0381
L197.934 64.0381
z
" style="stroke:#000000;stroke-linecap:round;stroke-width:2.0;"/>
   </g>
   <g id="patch_57">
    <path clip-path="url(#pd65ab3b00b)" d="
M133.263 65.088
Q106.472 199.777 80.1166 332.274" style="fill:none;stroke:#000000;stroke-linecap:round;stroke-width:2.0;"/>
    <path clip-path="url(#pd65ab3b00b)" d="
M86.9714 323.441
L80.1166 332.274
L77.1636 321.491
L86.9714 323.441
z
" style="stroke:#000000;stroke-linecap:round;stroke-width:2.0;"/>
   </g>
   <g id="patch_58">
    <path clip-path="url(#pd65ab3b00b)" d="
M34.1081 213.484
Q148.292 137.189 260.617 62.1354" style="fill:none;stroke:#000000;stroke-linecap:round;stroke-width:2.0;"/>
    <path clip-path="url(#pd65ab3b00b)" d="
M249.525 63.5338
L260.617 62.1354
L255.081 71.8485
L249.525 63.5338
z
" style="stroke:#000000;stroke-linecap:round;stroke-width:2.0;"/>
   </g>
   <g id="patch_59">
    <path clip-path="url(#pd65ab3b00b)" d="
M212.995 48.66
Q284.71 96.578 358.283 145.738" style="fill:none;stroke:#000000;stroke-linecap:round;stroke-width:2.0;"/>
    <path clip-path="url(#pd65ab3b00b)" d="
M218.532 58.373
L212.995 48.66
L224.088 50.0583
L218.532 58.373
z
" style="stroke:#000000;stroke-linecap:round;stroke-width:2.0;"/>
   </g>
   <g id="patch_60">
    <path clip-path="url(#pd65ab3b00b)" d="
M373.238 208.903
Q325.32 137.189 276.16 63.6149" style="fill:none;stroke:#000000;stroke-linecap:round;stroke-width:2.0;"/>
    <path clip-path="url(#pd65ab3b00b)" d="
M371.84 197.811
L373.238 208.903
L363.525 203.366
L371.84 197.811
z
" style="stroke:#000000;stroke-linecap:round;stroke-width:2.0;"/>
   </g>
   <g id="patch_61">
    <path clip-path="url(#pd65ab3b00b)" d="
M366.486 276.845
Q366.486 218.965 366.486 163.32" style="fill:none;stroke:#000000;stroke-linecap:round;stroke-width:2.0;"/>
    <path clip-path="url(#pd65ab3b00b)" d="
M361.486 173.32
L366.486 163.32
L371.486 173.32
L361.486 173.32
z
" style="stroke:#000000;stroke-linecap:round;stroke-width:2.0;"/>
   </g>
   <g id="patch_62">
    <path clip-path="url(#pd65ab3b00b)" d="
M368.411 277.035
Q373.224 252.838 377.601 230.834" style="fill:none;stroke:#000000;stroke-linecap:round;stroke-width:2.0;"/>
    <path clip-path="url(#pd65ab3b00b)" d="
M370.746 239.666
L377.601 230.834
L380.554 241.617
L370.746 239.666
z
" style="stroke:#000000;stroke-linecap:round;stroke-width:2.0;"/>
   </g>
   <g id="patch_63">
    <path clip-path="url(#pd65ab3b00b)" d="
M277.655 375.542
Q318.583 334.614 357.929 295.267" style="fill:none;stroke:#000000;stroke-linecap:round;stroke-width:2.0;"/>
    <path clip-path="url(#pd65ab3b00b)" d="
M347.323 298.803
L357.929 295.267
L354.394 305.874
L347.323 298.803
z
" style="stroke:#000000;stroke-linecap:round;stroke-width:2.0;"/>
   </g>
   <g id="patch_64">
    <path clip-path="url(#pd65ab3b00b)" d="
M35.0197 215.19
Q177.008 156.376 316.931 98.4181" style="fill:none;stroke:#000000;stroke-linecap:round;stroke-width:2.0;"/>
    <path clip-path="url(#pd65ab3b00b)" d="
M305.779 97.6256
L316.931 98.4181
L309.606 106.864
L305.779 97.6256
z
" style="stroke:#000000;stroke-linecap:round;stroke-width:2.0;"/>
   </g>
   <g id="patch_65">
    <path clip-path="url(#pd65ab3b00b)" d="
M126.631 63.9692
Q87.2844 103.316 46.3567 144.243" style="fill:none;stroke:#000000;stroke-linecap:round;stroke-width:2.0;"/>
    <path clip-path="url(#pd65ab3b00b)" d="
M116.024 67.5047
L126.631 63.9692
L123.095 74.5758
L116.024 67.5047
z
" style="stroke:#000000;stroke-linecap:round;stroke-width:2.0;"/>
   </g>
   <g id="patch_66">
    <path clip-path="url(#pd65ab3b00b)" d="
M146.368 377.887
Q250.837 334.614 357.372 290.486" style="fill:none;stroke:#000000;stroke-linecap:round;stroke-width:2.0;"/>
    <path clip-path="url(#pd65ab3b00b)" d="
M157.52 378.679
L146.368 377.887
L153.693 369.44
L157.52 378.679
z
" style="stroke:#000000;stroke-linecap:round;stroke-width:2.0;"/>
   </g>
   <g id="patch_67">
    <path clip-path="url(#pd65ab3b00b)" d="
M35.0197 222.74
Q177.008 281.554 316.931 339.512" style="fill:none;stroke:#000000;stroke-linecap:round;stroke-width:2.0;"/>
    <path clip-path="url(#pd65ab3b00b)" d="
M309.606 331.065
L316.931 339.512
L305.779 340.304
L309.606 331.065
z
" style="stroke:#000000;stroke-linecap:round;stroke-width:2.0;"/>
   </g>
   <g id="matplotlib.axis_1"/>
   <g id="matplotlib.axis_2"/>
   <g id="text_1">
    <!-- Risk Averse - 2 guides -->
    <defs>
     <path d="
M19.1875 8.29688
L53.6094 8.29688
L53.6094 0
L7.32812 0
L7.32812 8.29688
Q12.9375 14.1094 22.625 23.8906
Q32.3281 33.6875 34.8125 36.5312
Q39.5469 41.8438 41.4219 45.5312
Q43.3125 49.2188 43.3125 52.7812
Q43.3125 58.5938 39.2344 62.25
Q35.1562 65.9219 28.6094 65.9219
Q23.9688 65.9219 18.8125 64.3125
Q13.6719 62.7031 7.8125 59.4219
L7.8125 69.3906
Q13.7656 71.7812 18.9375 73
Q24.125 74.2188 28.4219 74.2188
Q39.75 74.2188 46.4844 68.5469
Q53.2188 62.8906 53.2188 53.4219
Q53.2188 48.9219 51.5312 44.8906
Q49.8594 40.875 45.4062 35.4062
Q44.1875 33.9844 37.6406 27.2188
Q31.1094 20.4531 19.1875 8.29688" id="BitstreamVeraSans-Roman-32"/>
     <path id="BitstreamVeraSans-Roman-20"/>
     <path d="
M9.07812 75.9844
L18.1094 75.9844
L18.1094 31.1094
L44.9219 54.6875
L56.3906 54.6875
L27.3906 29.1094
L57.625 0
L45.9062 0
L18.1094 26.7031
L18.1094 0
L9.07812 0
z
" id="BitstreamVeraSans-Roman-6b"/>
     <path d="
M56.2031 29.5938
L56.2031 25.2031
L14.8906 25.2031
Q15.4844 15.9219 20.4844 11.0625
Q25.4844 6.20312 34.4219 6.20312
Q39.5938 6.20312 44.4531 7.46875
Q49.3125 8.73438 54.1094 11.2812
L54.1094 2.78125
Q49.2656 0.734375 44.1875 -0.34375
Q39.1094 -1.42188 33.8906 -1.42188
Q20.7969 -1.42188 13.1562 6.1875
Q5.51562 13.8125 5.51562 26.8125
Q5.51562 40.2344 12.7656 48.1094
Q20.0156 56 32.3281 56
Q43.3594 56 49.7812 48.8906
Q56.2031 41.7969 56.2031 29.5938
M47.2188 32.2344
Q47.125 39.5938 43.0938 43.9844
Q39.0625 48.3906 32.4219 48.3906
Q24.9062 48.3906 20.3906 44.1406
Q15.875 39.8906 15.1875 32.1719
z
" id="BitstreamVeraSans-Roman-65"/>
     <path d="
M44.3906 34.1875
Q47.5625 33.1094 50.5625 29.5938
Q53.5625 26.0781 56.5938 19.9219
L66.6094 0
L56 0
L46.6875 18.7031
Q43.0625 26.0312 39.6719 28.4219
Q36.2812 30.8125 30.4219 30.8125
L19.6719 30.8125
L19.6719 0
L9.8125 0
L9.8125 72.9062
L32.0781 72.9062
Q44.5781 72.9062 50.7344 67.6719
Q56.8906 62.4531 56.8906 51.9062
Q56.8906 45.0156 53.6875 40.4688
Q50.4844 35.9375 44.3906 34.1875
M19.6719 64.7969
L19.6719 38.9219
L32.0781 38.9219
Q39.2031 38.9219 42.8438 42.2188
Q46.4844 45.5156 46.4844 51.9062
Q46.4844 58.2969 42.8438 61.5469
Q39.2031 64.7969 32.0781 64.7969
z
" id="BitstreamVeraSans-Roman-52"/>
     <path d="
M9.42188 54.6875
L18.4062 54.6875
L18.4062 0
L9.42188 0
z

M9.42188 75.9844
L18.4062 75.9844
L18.4062 64.5938
L9.42188 64.5938
z
" id="BitstreamVeraSans-Roman-69"/>
     <path d="
M4.89062 31.3906
L31.2031 31.3906
L31.2031 23.3906
L4.89062 23.3906
z
" id="BitstreamVeraSans-Roman-2d"/>
     <path d="
M34.1875 63.1875
L20.7969 26.9062
L47.6094 26.9062
z

M28.6094 72.9062
L39.7969 72.9062
L67.5781 0
L57.3281 0
L50.6875 18.7031
L17.8281 18.7031
L11.1875 0
L0.78125 0
z
" id="BitstreamVeraSans-Roman-41"/>
     <path d="
M2.98438 54.6875
L12.5 54.6875
L29.5938 8.79688
L46.6875 54.6875
L56.2031 54.6875
L35.6875 0
L23.4844 0
z
" id="BitstreamVeraSans-Roman-76"/>
     <path d="
M45.4062 46.3906
L45.4062 75.9844
L54.3906 75.9844
L54.3906 0
L45.4062 0
L45.4062 8.20312
Q42.5781 3.32812 38.25 0.953125
Q33.9375 -1.42188 27.875 -1.42188
Q17.9688 -1.42188 11.7344 6.48438
Q5.51562 14.4062 5.51562 27.2969
Q5.51562 40.1875 11.7344 48.0938
Q17.9688 56 27.875 56
Q33.9375 56 38.25 53.625
Q42.5781 51.2656 45.4062 46.3906
M14.7969 27.2969
Q14.7969 17.3906 18.875 11.75
Q22.9531 6.10938 30.0781 6.10938
Q37.2031 6.10938 41.2969 11.75
Q45.4062 17.3906 45.4062 27.2969
Q45.4062 37.2031 41.2969 42.8438
Q37.2031 48.4844 30.0781 48.4844
Q22.9531 48.4844 18.875 42.8438
Q14.7969 37.2031 14.7969 27.2969" id="BitstreamVeraSans-Roman-64"/>
     <path d="
M45.4062 27.9844
Q45.4062 37.75 41.375 43.1094
Q37.3594 48.4844 30.0781 48.4844
Q22.8594 48.4844 18.8281 43.1094
Q14.7969 37.75 14.7969 27.9844
Q14.7969 18.2656 18.8281 12.8906
Q22.8594 7.51562 30.0781 7.51562
Q37.3594 7.51562 41.375 12.8906
Q45.4062 18.2656 45.4062 27.9844
M54.3906 6.78125
Q54.3906 -7.17188 48.1875 -13.9844
Q42 -20.7969 29.2031 -20.7969
Q24.4688 -20.7969 20.2656 -20.0938
Q16.0625 -19.3906 12.1094 -17.9219
L12.1094 -9.1875
Q16.0625 -11.3281 19.9219 -12.3438
Q23.7812 -13.375 27.7812 -13.375
Q36.625 -13.375 41.0156 -8.76562
Q45.4062 -4.15625 45.4062 5.17188
L45.4062 9.625
Q42.625 4.78125 38.2812 2.39062
Q33.9375 0 27.875 0
Q17.8281 0 11.6719 7.65625
Q5.51562 15.3281 5.51562 27.9844
Q5.51562 40.6719 11.6719 48.3281
Q17.8281 56 27.875 56
Q33.9375 56 38.2812 53.6094
Q42.625 51.2188 45.4062 46.3906
L45.4062 54.6875
L54.3906 54.6875
z
" id="BitstreamVeraSans-Roman-67"/>
     <path d="
M8.5 21.5781
L8.5 54.6875
L17.4844 54.6875
L17.4844 21.9219
Q17.4844 14.1562 20.5 10.2656
Q23.5312 6.39062 29.5938 6.39062
Q36.8594 6.39062 41.0781 11.0312
Q45.3125 15.6719 45.3125 23.6875
L45.3125 54.6875
L54.2969 54.6875
L54.2969 0
L45.3125 0
L45.3125 8.40625
Q42.0469 3.42188 37.7188 1
Q33.4062 -1.42188 27.6875 -1.42188
Q18.2656 -1.42188 13.375 4.4375
Q8.5 10.2969 8.5 21.5781" id="BitstreamVeraSans-Roman-75"/>
     <path d="
M41.1094 46.2969
Q39.5938 47.1719 37.8125 47.5781
Q36.0312 48 33.8906 48
Q26.2656 48 22.1875 43.0469
Q18.1094 38.0938 18.1094 28.8125
L18.1094 0
L9.07812 0
L9.07812 54.6875
L18.1094 54.6875
L18.1094 46.1875
Q20.9531 51.1719 25.4844 53.5781
Q30.0312 56 36.5312 56
Q37.4531 56 38.5781 55.875
Q39.7031 55.7656 41.0625 55.5156
z
" id="BitstreamVeraSans-Roman-72"/>
     <path d="
M44.2812 53.0781
L44.2812 44.5781
Q40.4844 46.5312 36.375 47.5
Q32.2812 48.4844 27.875 48.4844
Q21.1875 48.4844 17.8438 46.4375
Q14.5 44.3906 14.5 40.2812
Q14.5 37.1562 16.8906 35.375
Q19.2812 33.5938 26.5156 31.9844
L29.5938 31.2969
Q39.1562 29.25 43.1875 25.5156
Q47.2188 21.7812 47.2188 15.0938
Q47.2188 7.46875 41.1875 3.01562
Q35.1562 -1.42188 24.6094 -1.42188
Q20.2188 -1.42188 15.4531 -0.5625
Q10.6875 0.296875 5.42188 2
L5.42188 11.2812
Q10.4062 8.6875 15.2344 7.39062
Q20.0625 6.10938 24.8125 6.10938
Q31.1562 6.10938 34.5625 8.28125
Q37.9844 10.4531 37.9844 14.4062
Q37.9844 18.0625 35.5156 20.0156
Q33.0625 21.9688 24.7031 23.7812
L21.5781 24.5156
Q13.2344 26.2656 9.51562 29.9062
Q5.8125 33.5469 5.8125 39.8906
Q5.8125 47.6094 11.2812 51.7969
Q16.75 56 26.8125 56
Q31.7812 56 36.1719 55.2656
Q40.5781 54.5469 44.2812 53.0781" id="BitstreamVeraSans-Roman-73"/>
    </defs>
    <g transform="translate(136.9963152 16.318125)scale(0.12 -0.12)">
     <use xlink:href="#BitstreamVeraSans-Roman-52"/>
     <use x="69.482421875" xlink:href="#BitstreamVeraSans-Roman-69"/>
     <use x="97.265625" xlink:href="#BitstreamVeraSans-Roman-73"/>
     <use x="149.365234375" xlink:href="#BitstreamVeraSans-Roman-6b"/>
     <use x="207.275390625" xlink:href="#BitstreamVeraSans-Roman-20"/>
     <use x="239.0625" xlink:href="#BitstreamVeraSans-Roman-41"/>
     <use x="301.595703125" xlink:href="#BitstreamVeraSans-Roman-76"/>
     <use x="360.775390625" xlink:href="#BitstreamVeraSans-Roman-65"/>
     <use x="422.298828125" xlink:href="#BitstreamVeraSans-Roman-72"/>
     <use x="463.412109375" xlink:href="#BitstreamVeraSans-Roman-73"/>
     <use x="515.51171875" xlink:href="#BitstreamVeraSans-Roman-65"/>
     <use x="577.03515625" xlink:href="#BitstreamVeraSans-Roman-20"/>
     <use x="608.822265625" xlink:href="#BitstreamVeraSans-Roman-2d"/>
     <use x="644.90625" xlink:href="#BitstreamVeraSans-Roman-20"/>
     <use x="676.693359375" xlink:href="#BitstreamVeraSans-Roman-32"/>
     <use x="740.31640625" xlink:href="#BitstreamVeraSans-Roman-20"/>
     <use x="772.103515625" xlink:href="#BitstreamVeraSans-Roman-67"/>
     <use x="835.580078125" xlink:href="#BitstreamVeraSans-Roman-75"/>
     <use x="898.958984375" xlink:href="#BitstreamVeraSans-Roman-69"/>
     <use x="926.7421875" xlink:href="#BitstreamVeraSans-Roman-64"/>
     <use x="990.21875" xlink:href="#BitstreamVeraSans-Roman-65"/>
     <use x="1051.7421875" xlink:href="#BitstreamVeraSans-Roman-73"/>
    </g>
   </g>
   <g id="patch_68">
    <path clip-path="url(#pd65ab3b00b)" d="
M39.3809 313.265
C42.9021 313.265 46.2794 311.866 48.7693 309.376
C51.2591 306.886 52.658 303.509 52.658 299.988
C52.658 296.467 51.2591 293.089 48.7693 290.599
C46.2794 288.11 42.9021 286.711 39.3809 286.711
C35.8598 286.711 32.4824 288.11 29.9926 290.599
C27.5028 293.089 26.1038 296.467 26.1038 299.988
C26.1038 303.509 27.5028 306.886 29.9926 309.376
C32.4824 311.866 35.8598 313.265 39.3809 313.265
L39.3809 313.265" style="fill:none;stroke:#000000;stroke-linejoin:miter;"/>
   </g>
   <g id="patch_69">
    <path clip-path="url(#pd65ab3b00b)" d="
M202.934 68.4911
C206.455 68.4911 209.832 67.0921 212.322 64.6023
C214.812 62.1125 216.211 58.7351 216.211 55.214
C216.211 51.6928 214.812 48.3155 212.322 45.8256
C209.832 43.3358 206.455 41.9369 202.934 41.9369
C199.412 41.9369 196.035 43.3358 193.545 45.8256
C191.055 48.3155 189.656 51.6928 189.656 55.214
C189.656 58.7351 191.055 62.1125 193.545 64.6023
C196.035 67.0921 199.412 68.4911 202.934 68.4911
L202.934 68.4911" style="fill:none;stroke:#000000;stroke-linejoin:miter;"/>
   </g>
   <g id="patch_70">
    <path d="
M202.934 51.8021
C205.55 51.8021 208.059 50.7626 209.909 48.9126
C211.759 47.0626 212.799 44.5532 212.799 41.9369
C212.799 39.3206 211.759 36.8111 209.909 34.9611
C208.059 33.1111 205.55 32.0717 202.934 32.0717
C200.317 32.0717 197.808 33.1111 195.958 34.9611
C194.108 36.8111 193.068 39.3206 193.068 41.9369
C193.068 44.5532 194.108 47.0626 195.958 48.9126
C197.808 50.7626 200.317 51.8021 202.934 51.8021
z
" style="fill:#00bfff;stroke:#000000;stroke-linejoin:miter;"/>
   </g>
   <g id="patch_71">
    <path d="
M135.188 65.2775
C137.804 65.2775 140.314 64.2381 142.164 62.3881
C144.014 60.5381 145.053 58.0286 145.053 55.4123
C145.053 52.7961 144.014 50.2866 142.164 48.4366
C140.314 46.5866 137.804 45.5471 135.188 45.5471
C132.572 45.5471 130.062 46.5866 128.212 48.4366
C126.362 50.2866 125.323 52.7961 125.323 55.4123
C125.323 58.0286 126.362 60.5381 128.212 62.3881
C130.062 64.2381 132.572 65.2775 135.188 65.2775
z
" style="fill:#00bfff;stroke:#000000;stroke-linejoin:miter;"/>
   </g>
   <g id="patch_72">
    <path d="
M270.679 65.2775
C273.295 65.2775 275.805 64.2381 277.655 62.3881
C279.505 60.5381 280.544 58.0286 280.544 55.4123
C280.544 52.7961 279.505 50.2866 277.655 48.4366
C275.805 46.5866 273.295 45.5471 270.679 45.5471
C268.063 45.5471 265.553 46.5866 263.703 48.4366
C261.853 50.2866 260.814 52.7961 260.814 55.4123
C260.814 58.0286 261.853 60.5381 263.703 62.3881
C265.553 64.2381 268.063 65.2775 270.679 65.2775
z
" style="fill:#00bfff;stroke:#000000;stroke-linejoin:miter;"/>
   </g>
   <g id="patch_73">
    <path d="
M202.934 405.858
C205.55 405.858 208.059 404.819 209.909 402.969
C211.759 401.119 212.799 398.609 212.799 395.993
C212.799 393.377 211.759 390.867 209.909 389.017
C208.059 387.167 205.55 386.128 202.934 386.128
C200.317 386.128 197.808 387.167 195.958 389.017
C194.108 390.867 193.068 393.377 193.068 395.993
C193.068 398.609 194.108 401.119 195.958 402.969
C197.808 404.819 200.317 405.858 202.934 405.858
z
" style="fill:#00bfff;stroke:#000000;stroke-linejoin:miter;"/>
   </g>
   <g id="patch_74">
    <path d="
M39.3809 161.084
C41.9972 161.084 44.5067 160.045 46.3567 158.195
C48.2067 156.345 49.2461 153.835 49.2461 151.219
C49.2461 148.603 48.2067 146.093 46.3567 144.243
C44.5067 142.393 41.9972 141.354 39.3809 141.354
C36.7646 141.354 34.2552 142.393 32.4052 144.243
C30.5552 146.093 29.5157 148.603 29.5157 151.219
C29.5157 153.835 30.5552 156.345 32.4052 158.195
C34.2552 160.045 36.7646 161.084 39.3809 161.084
z
" style="fill:#00bfff;stroke:#000000;stroke-linejoin:miter;"/>
   </g>
   <g id="patch_75">
    <path d="
M328.111 354.008
C330.728 354.008 333.237 352.968 335.087 351.118
C336.937 349.268 337.976 346.759 337.976 344.143
C337.976 341.526 336.937 339.017 335.087 337.167
C333.237 335.317 330.728 334.277 328.111 334.277
C325.495 334.277 322.985 335.317 321.135 337.167
C319.286 339.017 318.246 341.526 318.246 344.143
C318.246 346.759 319.286 349.268 321.135 351.118
C322.985 352.968 325.495 354.008 328.111 354.008
z
" style="fill:#00bfff;stroke:#000000;stroke-linejoin:miter;"/>
   </g>
   <g id="patch_76">
    <path d="
M77.7558 103.652
C80.3721 103.652 82.8815 102.613 84.7315 100.763
C86.5815 98.9129 87.621 96.4035 87.621 93.7872
C87.621 91.1709 86.5815 88.6614 84.7315 86.8114
C82.8815 84.9615 80.3721 83.922 77.7558 83.922
C75.1395 83.922 72.63 84.9615 70.78 86.8114
C68.9301 88.6614 67.8906 91.1709 67.8906 93.7872
C67.8906 96.4035 68.9301 98.9129 70.78 100.763
C72.63 102.613 75.1395 103.652 77.7558 103.652
z
" style="fill:#00bfff;stroke:#000000;stroke-linejoin:miter;"/>
   </g>
   <g id="patch_77">
    <path d="
M366.486 161.084
C369.102 161.084 371.612 160.045 373.462 158.195
C375.312 156.345 376.351 153.835 376.351 151.219
C376.351 148.603 375.312 146.093 373.462 144.243
C371.612 142.393 369.102 141.354 366.486 141.354
C363.87 141.354 361.36 142.393 359.51 144.243
C357.66 146.093 356.621 148.603 356.621 151.219
C356.621 153.835 357.66 156.345 359.51 158.195
C361.36 160.045 363.87 161.084 366.486 161.084
z
" style="fill:#00bfff;stroke:#000000;stroke-linejoin:miter;"/>
   </g>
   <g id="patch_78">
    <path d="
M135.188 392.383
C137.804 392.383 140.314 391.343 142.164 389.493
C144.014 387.643 145.053 385.134 145.053 382.517
C145.053 379.901 144.014 377.392 142.164 375.542
C140.314 373.692 137.804 372.652 135.188 372.652
C132.572 372.652 130.062 373.692 128.212 375.542
C126.362 377.392 125.323 379.901 125.323 382.517
C125.323 385.134 126.362 387.643 128.212 389.493
C130.062 391.343 132.572 392.383 135.188 392.383
z
" style="fill:#00bfff;stroke:#000000;stroke-linejoin:miter;"/>
   </g>
   <g id="patch_79">
    <path d="
M328.111 103.652
C330.728 103.652 333.237 102.613 335.087 100.763
C336.937 98.9129 337.976 96.4035 337.976 93.7872
C337.976 91.1709 336.937 88.6614 335.087 86.8114
C333.237 84.9615 330.728 83.922 328.111 83.922
C325.495 83.922 322.985 84.9615 321.135 86.8114
C319.286 88.6614 318.246 91.1709 318.246 93.7872
C318.246 96.4035 319.286 98.9129 321.135 100.763
C322.985 102.613 325.495 103.652 328.111 103.652
z
" style="fill:#00bfff;stroke:#000000;stroke-linejoin:miter;"/>
   </g>
   <g id="patch_80">
    <path d="
M366.486 296.576
C369.102 296.576 371.612 295.536 373.462 293.686
C375.312 291.836 376.351 289.327 376.351 286.711
C376.351 284.094 375.312 281.585 373.462 279.735
C371.612 277.885 369.102 276.845 366.486 276.845
C363.87 276.845 361.36 277.885 359.51 279.735
C357.66 281.585 356.621 284.094 356.621 286.711
C356.621 289.327 357.66 291.836 359.51 293.686
C361.36 295.536 363.87 296.576 366.486 296.576
z
" style="fill:#00bfff;stroke:#000000;stroke-linejoin:miter;"/>
   </g>
   <g id="patch_81">
    <path d="
M39.3809 296.576
C41.9972 296.576 44.5067 295.536 46.3567 293.686
C48.2067 291.836 49.2461 289.327 49.2461 286.711
C49.2461 284.094 48.2067 281.585 46.3567 279.735
C44.5067 277.885 41.9972 276.845 39.3809 276.845
C36.7646 276.845 34.2552 277.885 32.4052 279.735
C30.5552 281.585 29.5157 284.094 29.5157 286.711
C29.5157 289.327 30.5552 291.836 32.4052 293.686
C34.2552 295.536 36.7646 296.576 39.3809 296.576
z
" style="fill:#00bfff;stroke:#000000;stroke-linejoin:miter;"/>
   </g>
   <g id="patch_82">
    <path d="
M379.962 228.83
C382.578 228.83 385.087 227.791 386.937 225.941
C388.787 224.091 389.827 221.581 389.827 218.965
C389.827 216.349 388.787 213.839 386.937 211.989
C385.087 210.139 382.578 209.1 379.962 209.1
C377.345 209.1 374.836 210.139 372.986 211.989
C371.136 213.839 370.096 216.349 370.096 218.965
C370.096 221.581 371.136 224.091 372.986 225.941
C374.836 227.791 377.345 228.83 379.962 228.83
z
" style="fill:#00bfff;stroke:#000000;stroke-linejoin:miter;"/>
   </g>
   <g id="patch_83">
    <path d="
M77.7558 354.008
C80.3721 354.008 82.8815 352.968 84.7315 351.118
C86.5815 349.268 87.621 346.759 87.621 344.143
C87.621 341.526 86.5815 339.017 84.7315 337.167
C82.8815 335.317 80.3721 334.277 77.7558 334.277
C75.1395 334.277 72.63 335.317 70.78 337.167
C68.9301 339.017 67.8906 341.526 67.8906 344.143
C67.8906 346.759 68.9301 349.268 70.78 351.118
C72.63 352.968 75.1395 354.008 77.7558 354.008
z
" style="fill:#00bfff;stroke:#000000;stroke-linejoin:miter;"/>
   </g>
   <g id="patch_84">
    <path d="
M25.9055 228.83
C28.5217 228.83 31.0312 227.791 32.8812 225.941
C34.7312 224.091 35.7707 221.581 35.7707 218.965
C35.7707 216.349 34.7312 213.839 32.8812 211.989
C31.0312 210.139 28.5217 209.1 25.9055 209.1
C23.2892 209.1 20.7797 210.139 18.9297 211.989
C17.0797 213.839 16.0403 216.349 16.0403 218.965
C16.0403 221.581 17.0797 224.091 18.9297 225.941
C20.7797 227.791 23.2892 228.83 25.9055 228.83
z
" style="fill:#00bfff;stroke:#000000;stroke-linejoin:miter;"/>
   </g>
   <g id="patch_85">
    <path d="
M270.679 392.383
C273.295 392.383 275.805 391.343 277.655 389.493
C279.505 387.643 280.544 385.134 280.544 382.517
C280.544 379.901 279.505 377.392 277.655 375.542
C275.805 373.692 273.295 372.652 270.679 372.652
C268.063 372.652 265.553 373.692 263.703 375.542
C261.853 377.392 260.814 379.901 260.814 382.517
C260.814 385.134 261.853 387.643 263.703 389.493
C265.553 391.343 268.063 392.383 270.679 392.383
z
" style="fill:#ff0d00;stroke:#000000;stroke-linejoin:miter;"/>
   </g>
   <g id="text_2">
    <!-- adagio -->
    <defs>
     <path d="
M30.6094 48.3906
Q23.3906 48.3906 19.1875 42.75
Q14.9844 37.1094 14.9844 27.2969
Q14.9844 17.4844 19.1562 11.8438
Q23.3438 6.20312 30.6094 6.20312
Q37.7969 6.20312 41.9844 11.8594
Q46.1875 17.5312 46.1875 27.2969
Q46.1875 37.0156 41.9844 42.7031
Q37.7969 48.3906 30.6094 48.3906
M30.6094 56
Q42.3281 56 49.0156 48.375
Q55.7188 40.7656 55.7188 27.2969
Q55.7188 13.875 49.0156 6.21875
Q42.3281 -1.42188 30.6094 -1.42188
Q18.8438 -1.42188 12.1719 6.21875
Q5.51562 13.875 5.51562 27.2969
Q5.51562 40.7656 12.1719 48.375
Q18.8438 56 30.6094 56" id="BitstreamVeraSans-Roman-6f"/>
     <path d="
M34.2812 27.4844
Q23.3906 27.4844 19.1875 25
Q14.9844 22.5156 14.9844 16.5
Q14.9844 11.7188 18.1406 8.90625
Q21.2969 6.10938 26.7031 6.10938
Q34.1875 6.10938 38.7031 11.4062
Q43.2188 16.7031 43.2188 25.4844
L43.2188 27.4844
z

M52.2031 31.2031
L52.2031 0
L43.2188 0
L43.2188 8.29688
Q40.1406 3.32812 35.5469 0.953125
Q30.9531 -1.42188 24.3125 -1.42188
Q15.9219 -1.42188 10.9531 3.29688
Q6 8.01562 6 15.9219
Q6 25.1406 12.1719 29.8281
Q18.3594 34.5156 30.6094 34.5156
L43.2188 34.5156
L43.2188 35.4062
Q43.2188 41.6094 39.1406 45
Q35.0625 48.3906 27.6875 48.3906
Q23 48.3906 18.5469 47.2656
Q14.1094 46.1406 10.0156 43.8906
L10.0156 52.2031
Q14.9375 54.1094 19.5781 55.0469
Q24.2188 56 28.6094 56
Q40.4844 56 46.3438 49.8438
Q52.2031 43.7031 52.2031 31.2031" id="BitstreamVeraSans-Roman-61"/>
    </defs>
    <g transform="translate(186.5819402 44.6962483896)scale(0.1 -0.1)">
     <use xlink:href="#BitstreamVeraSans-Roman-61"/>
     <use x="61.279296875" xlink:href="#BitstreamVeraSans-Roman-64"/>
     <use x="124.755859375" xlink:href="#BitstreamVeraSans-Roman-61"/>
     <use x="186.03515625" xlink:href="#BitstreamVeraSans-Roman-67"/>
     <use x="249.51171875" xlink:href="#BitstreamVeraSans-Roman-69"/>
     <use x="277.294921875" xlink:href="#BitstreamVeraSans-Roman-6f"/>
    </g>
   </g>
   <g id="text_3">
    <!-- ardan -->
    <defs>
     <path d="
M54.8906 33.0156
L54.8906 0
L45.9062 0
L45.9062 32.7188
Q45.9062 40.4844 42.875 44.3281
Q39.8438 48.1875 33.7969 48.1875
Q26.5156 48.1875 22.3125 43.5469
Q18.1094 38.9219 18.1094 30.9062
L18.1094 0
L9.07812 0
L9.07812 54.6875
L18.1094 54.6875
L18.1094 46.1875
Q21.3438 51.125 25.7031 53.5625
Q30.0781 56 35.7969 56
Q45.2188 56 50.0469 50.1719
Q54.8906 44.3438 54.8906 33.0156" id="BitstreamVeraSans-Roman-6e"/>
    </defs>
    <g transform="translate(121.472963293 58.1717050925)scale(0.1 -0.1)">
     <use xlink:href="#BitstreamVeraSans-Roman-61"/>
     <use x="61.279296875" xlink:href="#BitstreamVeraSans-Roman-72"/>
     <use x="100.642578125" xlink:href="#BitstreamVeraSans-Roman-64"/>
     <use x="164.119140625" xlink:href="#BitstreamVeraSans-Roman-61"/>
     <use x="225.3984375" xlink:href="#BitstreamVeraSans-Roman-6e"/>
    </g>
   </g>
   <g id="text_4">
    <!-- catherine -->
    <defs>
     <path d="
M18.3125 70.2188
L18.3125 54.6875
L36.8125 54.6875
L36.8125 47.7031
L18.3125 47.7031
L18.3125 18.0156
Q18.3125 11.3281 20.1406 9.42188
Q21.9688 7.51562 27.5938 7.51562
L36.8125 7.51562
L36.8125 0
L27.5938 0
Q17.1875 0 13.2344 3.875
Q9.28125 7.76562 9.28125 18.0156
L9.28125 47.7031
L2.6875 47.7031
L2.6875 54.6875
L9.28125 54.6875
L9.28125 70.2188
z
" id="BitstreamVeraSans-Roman-74"/>
     <path d="
M54.8906 33.0156
L54.8906 0
L45.9062 0
L45.9062 32.7188
Q45.9062 40.4844 42.875 44.3281
Q39.8438 48.1875 33.7969 48.1875
Q26.5156 48.1875 22.3125 43.5469
Q18.1094 38.9219 18.1094 30.9062
L18.1094 0
L9.07812 0
L9.07812 75.9844
L18.1094 75.9844
L18.1094 46.1875
Q21.3438 51.125 25.7031 53.5625
Q30.0781 56 35.7969 56
Q45.2188 56 50.0469 50.1719
Q54.8906 44.3438 54.8906 33.0156" id="BitstreamVeraSans-Roman-68"/>
     <path d="
M48.7812 52.5938
L48.7812 44.1875
Q44.9688 46.2969 41.1406 47.3438
Q37.3125 48.3906 33.4062 48.3906
Q24.6562 48.3906 19.8125 42.8438
Q14.9844 37.3125 14.9844 27.2969
Q14.9844 17.2812 19.8125 11.7344
Q24.6562 6.20312 33.4062 6.20312
Q37.3125 6.20312 41.1406 7.25
Q44.9688 8.29688 48.7812 10.4062
L48.7812 2.09375
Q45.0156 0.34375 40.9844 -0.53125
Q36.9688 -1.42188 32.4219 -1.42188
Q20.0625 -1.42188 12.7812 6.34375
Q5.51562 14.1094 5.51562 27.2969
Q5.51562 40.6719 12.8594 48.3281
Q20.2188 56 33.0156 56
Q37.1562 56 41.1094 55.1406
Q45.0625 54.2969 48.7812 52.5938" id="BitstreamVeraSans-Roman-63"/>
    </defs>
    <g transform="translate(54.5893731839 96.5465590735)scale(0.1 -0.1)">
     <use xlink:href="#BitstreamVeraSans-Roman-63"/>
     <use x="54.98046875" xlink:href="#BitstreamVeraSans-Roman-61"/>
     <use x="116.259765625" xlink:href="#BitstreamVeraSans-Roman-74"/>
     <use x="155.46875" xlink:href="#BitstreamVeraSans-Roman-68"/>
     <use x="218.84765625" xlink:href="#BitstreamVeraSans-Roman-65"/>
     <use x="280.37109375" xlink:href="#BitstreamVeraSans-Roman-72"/>
     <use x="321.484375" xlink:href="#BitstreamVeraSans-Roman-69"/>
     <use x="349.267578125" xlink:href="#BitstreamVeraSans-Roman-6e"/>
     <use x="412.646484375" xlink:href="#BitstreamVeraSans-Roman-65"/>
    </g>
   </g>
   <g id="text_5">
    <!-- celeste -->
    <defs>
     <path d="
M9.42188 75.9844
L18.4062 75.9844
L18.4062 0
L9.42188 0
z
" id="BitstreamVeraSans-Roman-6c"/>
    </defs>
    <g transform="translate(21.9903004529 153.978586683)scale(0.1 -0.1)">
     <use xlink:href="#BitstreamVeraSans-Roman-63"/>
     <use x="54.98046875" xlink:href="#BitstreamVeraSans-Roman-65"/>
     <use x="116.50390625" xlink:href="#BitstreamVeraSans-Roman-6c"/>
     <use x="144.287109375" xlink:href="#BitstreamVeraSans-Roman-65"/>
     <use x="205.810546875" xlink:href="#BitstreamVeraSans-Roman-73"/>
     <use x="257.91015625" xlink:href="#BitstreamVeraSans-Roman-74"/>
     <use x="297.119140625" xlink:href="#BitstreamVeraSans-Roman-65"/>
    </g>
   </g>
   <g id="text_6">
    <!-- fortress -->
    <defs>
     <path d="
M37.1094 75.9844
L37.1094 68.5
L28.5156 68.5
Q23.6875 68.5 21.7969 66.5469
Q19.9219 64.5938 19.9219 59.5156
L19.9219 54.6875
L34.7188 54.6875
L34.7188 47.7031
L19.9219 47.7031
L19.9219 0
L10.8906 0
L10.8906 47.7031
L2.29688 47.7031
L2.29688 54.6875
L10.8906 54.6875
L10.8906 58.5
Q10.8906 67.625 15.1406 71.7969
Q19.3906 75.9844 28.6094 75.9844
z
" id="BitstreamVeraSans-Roman-66"/>
    </defs>
    <g transform="translate(7.2 221.72428234)scale(0.1 -0.1)">
     <use xlink:href="#BitstreamVeraSans-Roman-66"/>
     <use x="35.205078125" xlink:href="#BitstreamVeraSans-Roman-6f"/>
     <use x="96.38671875" xlink:href="#BitstreamVeraSans-Roman-72"/>
     <use x="137.5" xlink:href="#BitstreamVeraSans-Roman-74"/>
     <use x="176.708984375" xlink:href="#BitstreamVeraSans-Roman-72"/>
     <use x="215.572265625" xlink:href="#BitstreamVeraSans-Roman-65"/>
     <use x="277.095703125" xlink:href="#BitstreamVeraSans-Roman-73"/>
     <use x="329.1953125" xlink:href="#BitstreamVeraSans-Roman-73"/>
    </g>
   </g>
   <g id="text_7">
    <!-- glaive -->
    <g transform="translate(24.8707692029 289.469977997)scale(0.1 -0.1)">
     <use xlink:href="#BitstreamVeraSans-Roman-67"/>
     <use x="63.4765625" xlink:href="#BitstreamVeraSans-Roman-6c"/>
     <use x="91.259765625" xlink:href="#BitstreamVeraSans-Roman-61"/>
     <use x="152.5390625" xlink:href="#BitstreamVeraSans-Roman-69"/>
     <use x="180.322265625" xlink:href="#BitstreamVeraSans-Roman-76"/>
     <use x="239.501953125" xlink:href="#BitstreamVeraSans-Roman-65"/>
    </g>
   </g>
   <g id="text_8">
    <!-- joule -->
    <defs>
     <path d="
M9.42188 54.6875
L18.4062 54.6875
L18.4062 -0.984375
Q18.4062 -11.4219 14.4219 -16.1094
Q10.4531 -20.7969 1.60938 -20.7969
L-1.8125 -20.7969
L-1.8125 -13.1875
L0.59375 -13.1875
Q5.71875 -13.1875 7.5625 -10.8125
Q9.42188 -8.45312 9.42188 -0.984375
z

M9.42188 75.9844
L18.4062 75.9844
L18.4062 64.5938
L9.42188 64.5938
z
" id="BitstreamVeraSans-Roman-6a"/>
    </defs>
    <g transform="translate(65.8487481839 346.902005606)scale(0.1 -0.1)">
     <use xlink:href="#BitstreamVeraSans-Roman-6a"/>
     <use x="27.783203125" xlink:href="#BitstreamVeraSans-Roman-6f"/>
     <use x="88.96484375" xlink:href="#BitstreamVeraSans-Roman-75"/>
     <use x="152.34375" xlink:href="#BitstreamVeraSans-Roman-6c"/>
     <use x="180.126953125" xlink:href="#BitstreamVeraSans-Roman-65"/>
    </g>
   </g>
   <g id="text_9">
    <!-- koshka -->
    <g transform="translate(118.676869543 385.276859587)scale(0.1 -0.1)">
     <use xlink:href="#BitstreamVeraSans-Roman-6b"/>
     <use x="54.28515625" xlink:href="#BitstreamVeraSans-Roman-6f"/>
     <use x="115.466796875" xlink:href="#BitstreamVeraSans-Roman-73"/>
     <use x="167.56640625" xlink:href="#BitstreamVeraSans-Roman-68"/>
     <use x="230.9453125" xlink:href="#BitstreamVeraSans-Roman-6b"/>
     <use x="287.10546875" xlink:href="#BitstreamVeraSans-Roman-61"/>
    </g>
   </g>
   <g id="text_10">
    <!-- krul -->
    <g transform="translate(194.3475652 398.75231629)scale(0.1 -0.1)">
     <use xlink:href="#BitstreamVeraSans-Roman-6b"/>
     <use x="57.91015625" xlink:href="#BitstreamVeraSans-Roman-72"/>
     <use x="99.0234375" xlink:href="#BitstreamVeraSans-Roman-75"/>
     <use x="162.40234375" xlink:href="#BitstreamVeraSans-Roman-6c"/>
    </g>
   </g>
   <g id="text_11">
    <!-- petal -->
    <defs>
     <path d="
M18.1094 8.20312
L18.1094 -20.7969
L9.07812 -20.7969
L9.07812 54.6875
L18.1094 54.6875
L18.1094 46.3906
Q20.9531 51.2656 25.2656 53.625
Q29.5938 56 35.5938 56
Q45.5625 56 51.7812 48.0938
Q58.0156 40.1875 58.0156 27.2969
Q58.0156 14.4062 51.7812 6.48438
Q45.5625 -1.42188 35.5938 -1.42188
Q29.5938 -1.42188 25.2656 0.953125
Q20.9531 3.32812 18.1094 8.20312
M48.6875 27.2969
Q48.6875 37.2031 44.6094 42.8438
Q40.5312 48.4844 33.4062 48.4844
Q26.2656 48.4844 22.1875 42.8438
Q18.1094 37.2031 18.1094 27.2969
Q18.1094 17.3906 22.1875 11.75
Q26.2656 6.10938 33.4062 6.10938
Q40.5312 6.10938 44.6094 11.75
Q48.6875 17.3906 48.6875 27.2969" id="BitstreamVeraSans-Roman-70"/>
    </defs>
    <g transform="translate(258.937792107 385.276859587)scale(0.1 -0.1)">
     <use xlink:href="#BitstreamVeraSans-Roman-70"/>
     <use x="63.4765625" xlink:href="#BitstreamVeraSans-Roman-65"/>
     <use x="125.0" xlink:href="#BitstreamVeraSans-Roman-74"/>
     <use x="164.208984375" xlink:href="#BitstreamVeraSans-Roman-61"/>
     <use x="225.48828125" xlink:href="#BitstreamVeraSans-Roman-6c"/>
    </g>
   </g>
   <g id="text_12">
    <!-- ringo -->
    <g transform="translate(315.991694716 346.902005606)scale(0.1 -0.1)">
     <use xlink:href="#BitstreamVeraSans-Roman-72"/>
     <use x="41.11328125" xlink:href="#BitstreamVeraSans-Roman-69"/>
     <use x="68.896484375" xlink:href="#BitstreamVeraSans-Roman-6e"/>
     <use x="132.275390625" xlink:href="#BitstreamVeraSans-Roman-67"/>
     <use x="195.751953125" xlink:href="#BitstreamVeraSans-Roman-6f"/>
    </g>
   </g>
   <g id="text_13">
    <!-- rona -->
    <g transform="translate(356.158736197 289.469977997)scale(0.1 -0.1)">
     <use xlink:href="#BitstreamVeraSans-Roman-72"/>
     <use x="38.86328125" xlink:href="#BitstreamVeraSans-Roman-6f"/>
     <use x="100.044921875" xlink:href="#BitstreamVeraSans-Roman-6e"/>
     <use x="163.423828125" xlink:href="#BitstreamVeraSans-Roman-61"/>
    </g>
   </g>
   <g id="text_14">
    <!-- saw -->
    <defs>
     <path d="
M4.20312 54.6875
L13.1875 54.6875
L24.4219 12.0156
L35.5938 54.6875
L46.1875 54.6875
L57.4219 12.0156
L68.6094 54.6875
L77.5938 54.6875
L63.2812 0
L52.6875 0
L40.9219 44.8281
L29.1094 0
L18.5 0
z
" id="BitstreamVeraSans-Roman-77"/>
    </defs>
    <g transform="translate(370.6841929 221.72428234)scale(0.1 -0.1)">
     <use xlink:href="#BitstreamVeraSans-Roman-73"/>
     <use x="52.099609375" xlink:href="#BitstreamVeraSans-Roman-61"/>
     <use x="113.37890625" xlink:href="#BitstreamVeraSans-Roman-77"/>
    </g>
   </g>
   <g id="text_15">
    <!-- skaarf -->
    <g transform="translate(351.305611197 153.978586683)scale(0.1 -0.1)">
     <use xlink:href="#BitstreamVeraSans-Roman-73"/>
     <use x="52.099609375" xlink:href="#BitstreamVeraSans-Roman-6b"/>
     <use x="108.259765625" xlink:href="#BitstreamVeraSans-Roman-61"/>
     <use x="169.5390625" xlink:href="#BitstreamVeraSans-Roman-61"/>
     <use x="230.818359375" xlink:href="#BitstreamVeraSans-Roman-72"/>
     <use x="271.931640625" xlink:href="#BitstreamVeraSans-Roman-66"/>
    </g>
   </g>
   <g id="text_16">
    <!-- taka -->
    <g transform="translate(317.803413466 96.5465590735)scale(0.1 -0.1)">
     <use xlink:href="#BitstreamVeraSans-Roman-74"/>
     <use x="39.208984375" xlink:href="#BitstreamVeraSans-Roman-61"/>
     <use x="100.48828125" xlink:href="#BitstreamVeraSans-Roman-6b"/>
     <use x="156.6484375" xlink:href="#BitstreamVeraSans-Roman-61"/>
    </g>
   </g>
   <g id="text_17">
    <!-- vox -->
    <defs>
     <path d="
M54.8906 54.6875
L35.1094 28.0781
L55.9062 0
L45.3125 0
L29.3906 21.4844
L13.4844 0
L2.875 0
L24.125 28.6094
L4.6875 54.6875
L15.2812 54.6875
L29.7812 35.2031
L44.2812 54.6875
z
" id="BitstreamVeraSans-Roman-78"/>
    </defs>
    <g transform="translate(262.170604607 58.1717050925)scale(0.1 -0.1)">
     <use xlink:href="#BitstreamVeraSans-Roman-76"/>
     <use x="59.1796875" xlink:href="#BitstreamVeraSans-Roman-6f"/>
     <use x="117.236328125" xlink:href="#BitstreamVeraSans-Roman-78"/>
    </g>
   </g>
  </g>
 </g>
 <defs>
  <clipPath id="pd65ab3b00b">
   <rect height="392.08" width="388.737892733" x="8.56455633345" y="21.318125"/>
  </clipPath>
 </defs>
</svg>
