<?xml version="1.0" encoding="utf-8" standalone="no"?>
<!DOCTYPE svg PUBLIC "-//W3C//DTD SVG 1.1//EN"
  "http://www.w3.org/Graphics/SVG/1.1/DTD/svg11.dtd">
<!-- Created with matplotlib (http://matplotlib.org/) -->
<svg height="420pt" version="1.1" viewBox="0 0 395 420" width="395pt" xmlns="http://www.w3.org/2000/svg" xmlns:xlink="http://www.w3.org/1999/xlink">
 <defs>
  <style type="text/css">
*{stroke-linecap:butt;stroke-linejoin:round;}
  </style>
 </defs>
 <g id="figure_1">
  <g id="patch_1">
   <path d="
M0 420.598
L395.429 420.598
L395.429 0
L0 0
z
" style="fill:#ffffff;"/>
  </g>
  <g id="axes_1">
   <g id="patch_2">
    <path d="
M8.98821 413.398
L388.229 413.398
L388.229 21.3181
L8.98821 21.3181
z
" style="fill:#ffffff;"/>
   </g>
   <g id="patch_3">
    <path clip-path="url(#p9294ba8a6a)" d="
M192.27 54.9347
Q170.617 79.6735 143.15 66.0949" style="fill:none;stroke:#000000;stroke-linecap:round;stroke-width:2.0;"/>
    <path clip-path="url(#p9294ba8a6a)" d="
M149.899 75.0088
L143.15 66.0949
L154.33 66.0443
L149.899 75.0088
z
" style="stroke:#000000;stroke-linecap:round;stroke-width:2.0;"/>
   </g>
   <g id="patch_4">
    <path clip-path="url(#p9294ba8a6a)" d="
M187.977 42.4367
Q160.509 28.8581 138.857 53.5969" style="fill:none;stroke:#000000;stroke-linecap:round;stroke-width:2.0;"/>
    <path clip-path="url(#p9294ba8a6a)" d="
M181.228 33.5229
L187.977 42.4367
L176.796 42.4873
L181.228 33.5229
z
" style="stroke:#000000;stroke-linecap:round;stroke-width:2.0;"/>
   </g>
   <g id="patch_5">
    <path clip-path="url(#p9294ba8a6a)" d="
M356.288 277.047
Q339.447 192.381 323.042 109.909" style="fill:none;stroke:#000000;stroke-linecap:round;stroke-width:2.0;"/>
    <path clip-path="url(#p9294ba8a6a)" d="
M320.089 120.692
L323.042 109.909
L329.897 118.741
L320.089 120.692
z
" style="stroke:#000000;stroke-linecap:round;stroke-width:2.0;"/>
   </g>
   <g id="patch_6">
    <path clip-path="url(#p9294ba8a6a)" d="
M132.518 70.4631
Q132.518 220.396 132.518 368.092" style="fill:none;stroke:#000000;stroke-linecap:round;stroke-width:2.0;"/>
    <path clip-path="url(#p9294ba8a6a)" d="
M137.518 358.092
L132.518 368.092
L127.518 358.092
L137.518 358.092
z
" style="stroke:#000000;stroke-linecap:round;stroke-width:2.0;"/>
   </g>
   <g id="patch_7">
    <path clip-path="url(#p9294ba8a6a)" d="
M140.904 371.566
Q245.342 267.129 351.36 161.111" style="fill:none;stroke:#000000;stroke-linecap:round;stroke-width:2.0;"/>
    <path clip-path="url(#p9294ba8a6a)" d="
M151.511 368.031
L140.904 371.566
L144.44 360.96
L151.511 368.031
z
" style="stroke:#000000;stroke-linecap:round;stroke-width:2.0;"/>
   </g>
   <g id="patch_8">
    <path clip-path="url(#p9294ba8a6a)" d="
M210.241 50.0065
Q231.654 54.2658 255.26 58.9614" style="fill:none;stroke:#000000;stroke-linecap:round;stroke-width:2.0;"/>
    <path clip-path="url(#p9294ba8a6a)" d="
M219.073 56.8614
L210.241 50.0065
L221.024 47.0535
L219.073 56.8614
z
" style="stroke:#000000;stroke-linecap:round;stroke-width:2.0;"/>
   </g>
   <g id="patch_9">
    <path clip-path="url(#p9294ba8a6a)" d="
M48.6759 154.305
Q198.609 154.305 346.305 154.305" style="fill:none;stroke:#000000;stroke-linecap:round;stroke-width:2.0;"/>
    <path clip-path="url(#p9294ba8a6a)" d="
M336.305 149.305
L346.305 154.305
L336.305 159.305
L336.305 149.305
z
" style="stroke:#000000;stroke-linecap:round;stroke-width:2.0;"/>
   </g>
   <g id="patch_10">
    <path clip-path="url(#p9294ba8a6a)" d="
M143.475 375.414
Q245.342 333.22 349.274 290.169" style="fill:none;stroke:#000000;stroke-linecap:round;stroke-width:2.0;"/>
    <path clip-path="url(#p9294ba8a6a)" d="
M154.628 376.207
L143.475 375.414
L150.801 366.968
L154.628 376.207
z
" style="stroke:#000000;stroke-linecap:round;stroke-width:2.0;"/>
   </g>
   <g id="patch_11">
    <path clip-path="url(#p9294ba8a6a)" d="
M81.8359 106.278
Q170.594 239.114 258.11 370.091" style="fill:none;stroke:#000000;stroke-linecap:round;stroke-width:2.0;"/>
    <path clip-path="url(#p9294ba8a6a)" d="
M256.712 358.999
L258.11 370.091
L248.397 364.554
L256.712 358.999
z
" style="stroke:#000000;stroke-linecap:round;stroke-width:2.0;"/>
   </g>
   <g id="patch_12">
    <path clip-path="url(#p9294ba8a6a)" d="
M196.731 57.1319
Q165.563 213.823 134.832 368.32" style="fill:none;stroke:#000000;stroke-linecap:round;stroke-width:2.0;"/>
    <path clip-path="url(#p9294ba8a6a)" d="
M141.687 359.488
L134.832 368.32
L131.879 357.537
L141.687 359.488
z
" style="stroke:#000000;stroke-linecap:round;stroke-width:2.0;"/>
   </g>
   <g id="patch_13">
    <path clip-path="url(#p9294ba8a6a)" d="
M31.2524 228.398
Q79.2117 300.174 125.929 370.091" style="fill:none;stroke:#000000;stroke-linecap:round;stroke-width:2.0;"/>
    <path clip-path="url(#p9294ba8a6a)" d="
M124.53 358.999
L125.929 370.091
L116.216 364.554
L124.53 358.999
z
" style="stroke:#000000;stroke-linecap:round;stroke-width:2.0;"/>
   </g>
   <g id="patch_14">
    <path clip-path="url(#p9294ba8a6a)" d="
M29.5885 229.287
Q51.1973 281.456 71.9503 331.558" style="fill:none;stroke:#000000;stroke-linecap:round;stroke-width:2.0;"/>
    <path clip-path="url(#p9294ba8a6a)" d="
M72.7429 320.406
L71.9503 331.558
L63.5041 324.233
L72.7429 320.406
z
" style="stroke:#000000;stroke-linecap:round;stroke-width:2.0;"/>
   </g>
   <g id="patch_15">
    <path clip-path="url(#p9294ba8a6a)" d="
M194.07 58.6501
Q137.549 195.104 80.172 333.624" style="fill:none;stroke:#000000;stroke-linecap:round;stroke-width:2.0;"/>
    <path clip-path="url(#p9294ba8a6a)" d="
M185.624 65.9755
L194.07 58.6501
L194.862 69.8023
L185.624 65.9755
z
" style="stroke:#000000;stroke-linecap:round;stroke-width:2.0;"/>
   </g>
   <g id="patch_16">
    <path clip-path="url(#p9294ba8a6a)" d="
M203.147 58.6501
Q259.668 195.104 317.045 333.624" style="fill:none;stroke:#000000;stroke-linecap:round;stroke-width:2.0;"/>
    <path clip-path="url(#p9294ba8a6a)" d="
M202.355 69.8023
L203.147 58.6501
L211.594 65.9755
L202.355 69.8023
z
" style="stroke:#000000;stroke-linecap:round;stroke-width:2.0;"/>
   </g>
   <g id="patch_17">
    <path clip-path="url(#p9294ba8a6a)" d="
M142.379 373.363
Q251.915 300.174 363.309 225.743" style="fill:none;stroke:#000000;stroke-linecap:round;stroke-width:2.0;"/>
    <path clip-path="url(#p9294ba8a6a)" d="
M153.472 371.965
L142.379 373.363
L147.916 363.65
L153.472 371.965
z
" style="stroke:#000000;stroke-linecap:round;stroke-width:2.0;"/>
   </g>
   <g id="patch_18">
    <path clip-path="url(#p9294ba8a6a)" d="
M358.165 276.862
Q358.165 220.396 358.165 166.165" style="fill:none;stroke:#000000;stroke-linecap:round;stroke-width:2.0;"/>
    <path clip-path="url(#p9294ba8a6a)" d="
M353.165 176.165
L358.165 166.165
L363.165 176.165
L353.165 176.165
z
" style="stroke:#000000;stroke-linecap:round;stroke-width:2.0;"/>
   </g>
   <g id="patch_19">
    <path clip-path="url(#p9294ba8a6a)" d="
M205.198 57.5541
Q278.387 167.09 352.819 278.484" style="fill:none;stroke:#000000;stroke-linecap:round;stroke-width:2.0;"/>
    <path clip-path="url(#p9294ba8a6a)" d="
M206.596 68.6467
L205.198 57.5541
L214.911 63.091
L206.596 68.6467
z
" style="stroke:#000000;stroke-linecap:round;stroke-width:2.0;"/>
   </g>
   <g id="patch_20">
    <path clip-path="url(#p9294ba8a6a)" d="
M88.1214 95.9625
Q170.594 79.5576 255.26 62.7165" style="fill:none;stroke:#000000;stroke-linecap:round;stroke-width:2.0;"/>
    <path clip-path="url(#p9294ba8a6a)" d="
M98.9047 98.9155
L88.1214 95.9625
L96.9538 89.1076
L98.9047 98.9155
z
" style="stroke:#000000;stroke-linecap:round;stroke-width:2.0;"/>
   </g>
   <g id="patch_21">
    <path clip-path="url(#p9294ba8a6a)" d="
M190.222 56.0792
Q112.257 134.044 32.7108 213.59" style="fill:none;stroke:#000000;stroke-linecap:round;stroke-width:2.0;"/>
    <path clip-path="url(#p9294ba8a6a)" d="
M179.616 59.6147
L190.222 56.0792
L186.687 66.6858
L179.616 59.6147
z
" style="stroke:#000000;stroke-linecap:round;stroke-width:2.0;"/>
   </g>
   <g id="patch_22">
    <path clip-path="url(#p9294ba8a6a)" d="
M137.057 368.995
Q198.609 220.396 261.016 69.7305" style="fill:none;stroke:#000000;stroke-linecap:round;stroke-width:2.0;"/>
    <path clip-path="url(#p9294ba8a6a)" d="
M145.503 361.67
L137.057 368.995
L136.264 357.843
L145.503 361.67
z
" style="stroke:#000000;stroke-linecap:round;stroke-width:2.0;"/>
   </g>
   <g id="patch_23">
    <path clip-path="url(#p9294ba8a6a)" d="
M122.657 67.4281
Q104.503 79.5576 84.4912 92.9294" style="fill:none;stroke:#000000;stroke-linecap:round;stroke-width:2.0;"/>
    <path clip-path="url(#p9294ba8a6a)" d="
M111.564 68.8265
L122.657 67.4281
L117.12 77.1412
L111.564 68.8265
z
" style="stroke:#000000;stroke-linecap:round;stroke-width:2.0;"/>
   </g>
   <g id="patch_24">
    <path clip-path="url(#p9294ba8a6a)" d="
M83.0782 332.654
Q170.594 201.677 259.352 68.8411" style="fill:none;stroke:#000000;stroke-linecap:round;stroke-width:2.0;"/>
    <path clip-path="url(#p9294ba8a6a)" d="
M92.7913 327.117
L83.0782 332.654
L84.4766 321.561
L92.7913 327.117
z
" style="stroke:#000000;stroke-linecap:round;stroke-width:2.0;"/>
   </g>
   <g id="patch_25">
    <path clip-path="url(#p9294ba8a6a)" d="
M50.0091 158.844
Q198.609 220.396 349.274 282.803" style="fill:none;stroke:#000000;stroke-linecap:round;stroke-width:2.0;"/>
    <path clip-path="url(#p9294ba8a6a)" d="
M57.3345 167.29
L50.0091 158.844
L61.1614 158.051
L57.3345 167.29
z
" style="stroke:#000000;stroke-linecap:round;stroke-width:2.0;"/>
   </g>
   <g id="patch_26">
    <path clip-path="url(#p9294ba8a6a)" d="
M125.929 70.7004
Q79.2117 140.617 31.2524 212.394" style="fill:none;stroke:#000000;stroke-linecap:round;stroke-width:2.0;"/>
    <path clip-path="url(#p9294ba8a6a)" d="
M116.216 76.2372
L125.929 70.7004
L124.53 81.7929
L116.216 76.2372
z
" style="stroke:#000000;stroke-linecap:round;stroke-width:2.0;"/>
   </g>
   <g id="patch_27">
    <path clip-path="url(#p9294ba8a6a)" d="
M144.378 379.953
Q198.609 379.953 255.075 379.953" style="fill:none;stroke:#000000;stroke-linecap:round;stroke-width:2.0;"/>
    <path clip-path="url(#p9294ba8a6a)" d="
M154.378 384.953
L144.378 379.953
L154.378 374.953
L154.378 384.953
z
" style="stroke:#000000;stroke-linecap:round;stroke-width:2.0;"/>
   </g>
   <g id="patch_28">
    <path clip-path="url(#p9294ba8a6a)" d="
M42.7347 163.197
Q85.7848 267.129 127.979 368.995" style="fill:none;stroke:#000000;stroke-linecap:round;stroke-width:2.0;"/>
    <path clip-path="url(#p9294ba8a6a)" d="
M128.772 357.843
L127.979 368.995
L119.533 361.67
L128.772 357.843
z
" style="stroke:#000000;stroke-linecap:round;stroke-width:2.0;"/>
   </g>
   <g id="patch_29">
    <path clip-path="url(#p9294ba8a6a)" d="
M86.3505 104.865
Q217.327 192.381 350.163 281.14" style="fill:none;stroke:#000000;stroke-linecap:round;stroke-width:2.0;"/>
    <path clip-path="url(#p9294ba8a6a)" d="
M91.8873 114.579
L86.3505 104.865
L97.443 106.264
L91.8873 114.579
z
" style="stroke:#000000;stroke-linecap:round;stroke-width:2.0;"/>
   </g>
   <g id="patch_30">
    <path clip-path="url(#p9294ba8a6a)" d="
M88.1214 340.202
Q217.327 314.501 348.726 288.364" style="fill:none;stroke:#000000;stroke-linecap:round;stroke-width:2.0;"/>
    <path clip-path="url(#p9294ba8a6a)" d="
M98.9047 343.155
L88.1214 340.202
L96.9538 333.347
L98.9047 343.155
z
" style="stroke:#000000;stroke-linecap:round;stroke-width:2.0;"/>
   </g>
   <g id="patch_31">
    <path clip-path="url(#p9294ba8a6a)" d="
M35.3447 218.518
Q192.035 187.35 346.533 156.619" style="fill:none;stroke:#000000;stroke-linecap:round;stroke-width:2.0;"/>
    <path clip-path="url(#p9294ba8a6a)" d="
M335.75 153.666
L346.533 156.619
L337.701 163.474
L335.75 153.666
z
" style="stroke:#000000;stroke-linecap:round;stroke-width:2.0;"/>
   </g>
   <g id="patch_32">
    <path clip-path="url(#p9294ba8a6a)" d="
M327.317 332.654
Q339.447 314.501 352.819 294.489" style="fill:none;stroke:#000000;stroke-linecap:round;stroke-width:2.0;"/>
    <path clip-path="url(#p9294ba8a6a)" d="
M337.03 327.117
L327.317 332.654
L328.716 321.561
L337.03 327.117
z
" style="stroke:#000000;stroke-linecap:round;stroke-width:2.0;"/>
   </g>
   <g id="patch_33">
    <path clip-path="url(#p9294ba8a6a)" d="
M198.609 59.5529
Q198.609 220.396 198.609 383.475" style="fill:none;stroke:#000000;stroke-linecap:round;stroke-width:2.0;"/>
    <path clip-path="url(#p9294ba8a6a)" d="
M193.609 69.5529
L198.609 59.5529
L203.609 69.5529
L193.609 69.5529
z
" style="stroke:#000000;stroke-linecap:round;stroke-width:2.0;"/>
   </g>
   <g id="patch_34">
    <path clip-path="url(#p9294ba8a6a)" d="
M208.048 391.221
Q231.654 386.526 253.067 382.266" style="fill:none;stroke:#000000;stroke-linecap:round;stroke-width:2.0;"/>
    <path clip-path="url(#p9294ba8a6a)" d="
M242.284 379.313
L253.067 382.266
L244.234 389.121
L242.284 379.313
z
" style="stroke:#000000;stroke-linecap:round;stroke-width:2.0;"/>
   </g>
   <g id="patch_35">
    <path clip-path="url(#p9294ba8a6a)" d="
M139.107 370.091
Q226.623 239.114 315.381 106.278" style="fill:none;stroke:#000000;stroke-linecap:round;stroke-width:2.0;"/>
    <path clip-path="url(#p9294ba8a6a)" d="
M148.82 364.554
L139.107 370.091
L140.506 358.999
L148.82 364.554
z
" style="stroke:#000000;stroke-linecap:round;stroke-width:2.0;"/>
   </g>
   <g id="patch_36">
    <path clip-path="url(#p9294ba8a6a)" d="
M360.043 277.047
Q364.739 253.441 368.998 232.028" style="fill:none;stroke:#000000;stroke-linecap:round;stroke-width:2.0;"/>
    <path clip-path="url(#p9294ba8a6a)" d="
M362.143 240.861
L368.998 232.028
L371.951 242.811
L362.143 240.861
z
" style="stroke:#000000;stroke-linecap:round;stroke-width:2.0;"/>
   </g>
   <g id="patch_37">
    <path clip-path="url(#p9294ba8a6a)" d="
M71.9503 109.234
Q51.1973 159.336 29.5885 211.504" style="fill:none;stroke:#000000;stroke-linecap:round;stroke-width:2.0;"/>
    <path clip-path="url(#p9294ba8a6a)" d="
M63.5041 116.559
L71.9503 109.234
L72.7429 120.386
L63.5041 116.559
z
" style="stroke:#000000;stroke-linecap:round;stroke-width:2.0;"/>
   </g>
   <g id="matplotlib.axis_1"/>
   <g id="matplotlib.axis_2"/>
   <g id="text_1">
    <!-- Risk Averse - 8 guides -->
    <defs>
     <path id="BitstreamVeraSans-Roman-20"/>
     <path d="
M31.7812 34.625
Q24.75 34.625 20.7188 30.8594
Q16.7031 27.0938 16.7031 20.5156
Q16.7031 13.9219 20.7188 10.1562
Q24.75 6.39062 31.7812 6.39062
Q38.8125 6.39062 42.8594 10.1719
Q46.9219 13.9688 46.9219 20.5156
Q46.9219 27.0938 42.8906 30.8594
Q38.875 34.625 31.7812 34.625
M21.9219 38.8125
Q15.5781 40.375 12.0312 44.7188
Q8.5 49.0781 8.5 55.3281
Q8.5 64.0625 14.7188 69.1406
Q20.9531 74.2188 31.7812 74.2188
Q42.6719 74.2188 48.875 69.1406
Q55.0781 64.0625 55.0781 55.3281
Q55.0781 49.0781 51.5312 44.7188
Q48 40.375 41.7031 38.8125
Q48.8281 37.1562 52.7969 32.3125
Q56.7812 27.4844 56.7812 20.5156
Q56.7812 9.90625 50.3125 4.23438
Q43.8438 -1.42188 31.7812 -1.42188
Q19.7344 -1.42188 13.25 4.23438
Q6.78125 9.90625 6.78125 20.5156
Q6.78125 27.4844 10.7812 32.3125
Q14.7969 37.1562 21.9219 38.8125
M18.3125 54.3906
Q18.3125 48.7344 21.8438 45.5625
Q25.3906 42.3906 31.7812 42.3906
Q38.1406 42.3906 41.7188 45.5625
Q45.3125 48.7344 45.3125 54.3906
Q45.3125 60.0625 41.7188 63.2344
Q38.1406 66.4062 31.7812 66.4062
Q25.3906 66.4062 21.8438 63.2344
Q18.3125 60.0625 18.3125 54.3906" id="BitstreamVeraSans-Roman-38"/>
     <path d="
M9.07812 75.9844
L18.1094 75.9844
L18.1094 31.1094
L44.9219 54.6875
L56.3906 54.6875
L27.3906 29.1094
L57.625 0
L45.9062 0
L18.1094 26.7031
L18.1094 0
L9.07812 0
z
" id="BitstreamVeraSans-Roman-6b"/>
     <path d="
M56.2031 29.5938
L56.2031 25.2031
L14.8906 25.2031
Q15.4844 15.9219 20.4844 11.0625
Q25.4844 6.20312 34.4219 6.20312
Q39.5938 6.20312 44.4531 7.46875
Q49.3125 8.73438 54.1094 11.2812
L54.1094 2.78125
Q49.2656 0.734375 44.1875 -0.34375
Q39.1094 -1.42188 33.8906 -1.42188
Q20.7969 -1.42188 13.1562 6.1875
Q5.51562 13.8125 5.51562 26.8125
Q5.51562 40.2344 12.7656 48.1094
Q20.0156 56 32.3281 56
Q43.3594 56 49.7812 48.8906
Q56.2031 41.7969 56.2031 29.5938
M47.2188 32.2344
Q47.125 39.5938 43.0938 43.9844
Q39.0625 48.3906 32.4219 48.3906
Q24.9062 48.3906 20.3906 44.1406
Q15.875 39.8906 15.1875 32.1719
z
" id="BitstreamVeraSans-Roman-65"/>
     <path d="
M44.3906 34.1875
Q47.5625 33.1094 50.5625 29.5938
Q53.5625 26.0781 56.5938 19.9219
L66.6094 0
L56 0
L46.6875 18.7031
Q43.0625 26.0312 39.6719 28.4219
Q36.2812 30.8125 30.4219 30.8125
L19.6719 30.8125
L19.6719 0
L9.8125 0
L9.8125 72.9062
L32.0781 72.9062
Q44.5781 72.9062 50.7344 67.6719
Q56.8906 62.4531 56.8906 51.9062
Q56.8906 45.0156 53.6875 40.4688
Q50.4844 35.9375 44.3906 34.1875
M19.6719 64.7969
L19.6719 38.9219
L32.0781 38.9219
Q39.2031 38.9219 42.8438 42.2188
Q46.4844 45.5156 46.4844 51.9062
Q46.4844 58.2969 42.8438 61.5469
Q39.2031 64.7969 32.0781 64.7969
z
" id="BitstreamVeraSans-Roman-52"/>
     <path d="
M9.42188 54.6875
L18.4062 54.6875
L18.4062 0
L9.42188 0
z

M9.42188 75.9844
L18.4062 75.9844
L18.4062 64.5938
L9.42188 64.5938
z
" id="BitstreamVeraSans-Roman-69"/>
     <path d="
M4.89062 31.3906
L31.2031 31.3906
L31.2031 23.3906
L4.89062 23.3906
z
" id="BitstreamVeraSans-Roman-2d"/>
     <path d="
M34.1875 63.1875
L20.7969 26.9062
L47.6094 26.9062
z

M28.6094 72.9062
L39.7969 72.9062
L67.5781 0
L57.3281 0
L50.6875 18.7031
L17.8281 18.7031
L11.1875 0
L0.78125 0
z
" id="BitstreamVeraSans-Roman-41"/>
     <path d="
M2.98438 54.6875
L12.5 54.6875
L29.5938 8.79688
L46.6875 54.6875
L56.2031 54.6875
L35.6875 0
L23.4844 0
z
" id="BitstreamVeraSans-Roman-76"/>
     <path d="
M45.4062 46.3906
L45.4062 75.9844
L54.3906 75.9844
L54.3906 0
L45.4062 0
L45.4062 8.20312
Q42.5781 3.32812 38.25 0.953125
Q33.9375 -1.42188 27.875 -1.42188
Q17.9688 -1.42188 11.7344 6.48438
Q5.51562 14.4062 5.51562 27.2969
Q5.51562 40.1875 11.7344 48.0938
Q17.9688 56 27.875 56
Q33.9375 56 38.25 53.625
Q42.5781 51.2656 45.4062 46.3906
M14.7969 27.2969
Q14.7969 17.3906 18.875 11.75
Q22.9531 6.10938 30.0781 6.10938
Q37.2031 6.10938 41.2969 11.75
Q45.4062 17.3906 45.4062 27.2969
Q45.4062 37.2031 41.2969 42.8438
Q37.2031 48.4844 30.0781 48.4844
Q22.9531 48.4844 18.875 42.8438
Q14.7969 37.2031 14.7969 27.2969" id="BitstreamVeraSans-Roman-64"/>
     <path d="
M45.4062 27.9844
Q45.4062 37.75 41.375 43.1094
Q37.3594 48.4844 30.0781 48.4844
Q22.8594 48.4844 18.8281 43.1094
Q14.7969 37.75 14.7969 27.9844
Q14.7969 18.2656 18.8281 12.8906
Q22.8594 7.51562 30.0781 7.51562
Q37.3594 7.51562 41.375 12.8906
Q45.4062 18.2656 45.4062 27.9844
M54.3906 6.78125
Q54.3906 -7.17188 48.1875 -13.9844
Q42 -20.7969 29.2031 -20.7969
Q24.4688 -20.7969 20.2656 -20.0938
Q16.0625 -19.3906 12.1094 -17.9219
L12.1094 -9.1875
Q16.0625 -11.3281 19.9219 -12.3438
Q23.7812 -13.375 27.7812 -13.375
Q36.625 -13.375 41.0156 -8.76562
Q45.4062 -4.15625 45.4062 5.17188
L45.4062 9.625
Q42.625 4.78125 38.2812 2.39062
Q33.9375 0 27.875 0
Q17.8281 0 11.6719 7.65625
Q5.51562 15.3281 5.51562 27.9844
Q5.51562 40.6719 11.6719 48.3281
Q17.8281 56 27.875 56
Q33.9375 56 38.2812 53.6094
Q42.625 51.2188 45.4062 46.3906
L45.4062 54.6875
L54.3906 54.6875
z
" id="BitstreamVeraSans-Roman-67"/>
     <path d="
M8.5 21.5781
L8.5 54.6875
L17.4844 54.6875
L17.4844 21.9219
Q17.4844 14.1562 20.5 10.2656
Q23.5312 6.39062 29.5938 6.39062
Q36.8594 6.39062 41.0781 11.0312
Q45.3125 15.6719 45.3125 23.6875
L45.3125 54.6875
L54.2969 54.6875
L54.2969 0
L45.3125 0
L45.3125 8.40625
Q42.0469 3.42188 37.7188 1
Q33.4062 -1.42188 27.6875 -1.42188
Q18.2656 -1.42188 13.375 4.4375
Q8.5 10.2969 8.5 21.5781" id="BitstreamVeraSans-Roman-75"/>
     <path d="
M41.1094 46.2969
Q39.5938 47.1719 37.8125 47.5781
Q36.0312 48 33.8906 48
Q26.2656 48 22.1875 43.0469
Q18.1094 38.0938 18.1094 28.8125
L18.1094 0
L9.07812 0
L9.07812 54.6875
L18.1094 54.6875
L18.1094 46.1875
Q20.9531 51.1719 25.4844 53.5781
Q30.0312 56 36.5312 56
Q37.4531 56 38.5781 55.875
Q39.7031 55.7656 41.0625 55.5156
z
" id="BitstreamVeraSans-Roman-72"/>
     <path d="
M44.2812 53.0781
L44.2812 44.5781
Q40.4844 46.5312 36.375 47.5
Q32.2812 48.4844 27.875 48.4844
Q21.1875 48.4844 17.8438 46.4375
Q14.5 44.3906 14.5 40.2812
Q14.5 37.1562 16.8906 35.375
Q19.2812 33.5938 26.5156 31.9844
L29.5938 31.2969
Q39.1562 29.25 43.1875 25.5156
Q47.2188 21.7812 47.2188 15.0938
Q47.2188 7.46875 41.1875 3.01562
Q35.1562 -1.42188 24.6094 -1.42188
Q20.2188 -1.42188 15.4531 -0.5625
Q10.6875 0.296875 5.42188 2
L5.42188 11.2812
Q10.4062 8.6875 15.2344 7.39062
Q20.0625 6.10938 24.8125 6.10938
Q31.1562 6.10938 34.5625 8.28125
Q37.9844 10.4531 37.9844 14.4062
Q37.9844 18.0625 35.5156 20.0156
Q33.0625 21.9688 24.7031 23.7812
L21.5781 24.5156
Q13.2344 26.2656 9.51562 29.9062
Q5.8125 33.5469 5.8125 39.8906
Q5.8125 47.6094 11.2812 51.7969
Q16.75 56 26.8125 56
Q31.7812 56 36.1719 55.2656
Q40.5781 54.5469 44.2812 53.0781" id="BitstreamVeraSans-Roman-73"/>
    </defs>
    <g transform="translate(132.671380017 16.318125)scale(0.12 -0.12)">
     <use xlink:href="#BitstreamVeraSans-Roman-52"/>
     <use x="69.482421875" xlink:href="#BitstreamVeraSans-Roman-69"/>
     <use x="97.265625" xlink:href="#BitstreamVeraSans-Roman-73"/>
     <use x="149.365234375" xlink:href="#BitstreamVeraSans-Roman-6b"/>
     <use x="207.275390625" xlink:href="#BitstreamVeraSans-Roman-20"/>
     <use x="239.0625" xlink:href="#BitstreamVeraSans-Roman-41"/>
     <use x="301.595703125" xlink:href="#BitstreamVeraSans-Roman-76"/>
     <use x="360.775390625" xlink:href="#BitstreamVeraSans-Roman-65"/>
     <use x="422.298828125" xlink:href="#BitstreamVeraSans-Roman-72"/>
     <use x="463.412109375" xlink:href="#BitstreamVeraSans-Roman-73"/>
     <use x="515.51171875" xlink:href="#BitstreamVeraSans-Roman-65"/>
     <use x="577.03515625" xlink:href="#BitstreamVeraSans-Roman-20"/>
     <use x="608.822265625" xlink:href="#BitstreamVeraSans-Roman-2d"/>
     <use x="644.90625" xlink:href="#BitstreamVeraSans-Roman-20"/>
     <use x="676.693359375" xlink:href="#BitstreamVeraSans-Roman-38"/>
     <use x="740.31640625" xlink:href="#BitstreamVeraSans-Roman-20"/>
     <use x="772.103515625" xlink:href="#BitstreamVeraSans-Roman-67"/>
     <use x="835.580078125" xlink:href="#BitstreamVeraSans-Roman-75"/>
     <use x="898.958984375" xlink:href="#BitstreamVeraSans-Roman-69"/>
     <use x="926.7421875" xlink:href="#BitstreamVeraSans-Roman-64"/>
     <use x="990.21875" xlink:href="#BitstreamVeraSans-Roman-65"/>
     <use x="1051.7421875" xlink:href="#BitstreamVeraSans-Roman-73"/>
    </g>
   </g>
   <g id="patch_38">
    <path clip-path="url(#p9294ba8a6a)" d="
M39.0517 312.392
C42.4868 312.392 45.7817 311.027 48.2107 308.598
C50.6397 306.169 52.0044 302.874 52.0044 299.439
C52.0044 296.004 50.6397 292.709 48.2107 290.28
C45.7817 287.851 42.4868 286.486 39.0517 286.486
C35.6166 286.486 32.3217 287.851 29.8927 290.28
C27.4638 292.709 26.099 296.004 26.099 299.439
C26.099 302.874 27.4638 306.169 29.8927 308.598
C32.3217 311.027 35.6166 312.392 39.0517 312.392
L39.0517 312.392" style="fill:none;stroke:#000000;stroke-linejoin:miter;"/>
   </g>
   <g id="patch_39">
    <path clip-path="url(#p9294ba8a6a)" d="
M132.518 405.858
C135.953 405.858 139.248 404.493 141.677 402.064
C144.106 399.635 145.471 396.34 145.471 392.905
C145.471 389.47 144.106 386.175 141.677 383.746
C139.248 381.317 135.953 379.953 132.518 379.953
C129.083 379.953 125.788 381.317 123.359 383.746
C120.93 386.175 119.565 389.47 119.565 392.905
C119.565 396.34 120.93 399.635 123.359 402.064
C125.788 404.493 129.083 405.858 132.518 405.858
L132.518 405.858" style="fill:none;stroke:#000000;stroke-linejoin:miter;"/>
   </g>
   <g id="patch_40">
    <path clip-path="url(#p9294ba8a6a)" d="
M198.609 73.5982
C202.044 73.5982 205.339 72.2334 207.768 69.8044
C210.197 67.3754 211.561 64.0805 211.561 60.6454
C211.561 57.2103 210.197 53.9155 207.768 51.4865
C205.339 49.0575 202.044 47.6927 198.609 47.6927
C195.173 47.6927 191.879 49.0575 189.45 51.4865
C187.021 53.9155 185.656 57.2103 185.656 60.6454
C185.656 64.0805 187.021 67.3754 189.45 69.8044
C191.879 72.2334 195.173 73.5982 198.609 73.5982
L198.609 73.5982" style="fill:none;stroke:#000000;stroke-linejoin:miter;"/>
   </g>
   <g id="patch_41">
    <path d="
M198.609 57.3169
C201.161 57.3169 203.609 56.3028 205.414 54.498
C207.219 52.6932 208.233 50.2451 208.233 47.6927
C208.233 45.1403 207.219 42.6922 205.414 40.8874
C203.609 39.0826 201.161 38.0685 198.609 38.0685
C196.056 38.0685 193.608 39.0826 191.803 40.8874
C189.998 42.6922 188.984 45.1403 188.984 47.6927
C188.984 50.2451 189.998 52.6932 191.803 54.498
C193.608 56.3028 196.056 57.3169 198.609 57.3169
z
" style="fill:#00bfff;stroke:#000000;stroke-linejoin:miter;"/>
   </g>
   <g id="patch_42">
    <path d="
M132.518 70.4631
C135.07 70.4631 137.518 69.4491 139.323 67.6443
C141.128 65.8395 142.142 63.3913 142.142 60.8389
C142.142 58.2866 141.128 55.8384 139.323 54.0336
C137.518 52.2288 135.07 51.2148 132.518 51.2148
C129.966 51.2148 127.517 52.2288 125.713 54.0336
C123.908 55.8384 122.894 58.2866 122.894 60.8389
C122.894 63.3913 123.908 65.8395 125.713 67.6443
C127.517 69.4491 129.966 70.4631 132.518 70.4631
z
" style="fill:#00bfff;stroke:#000000;stroke-linejoin:miter;"/>
   </g>
   <g id="patch_43">
    <path d="
M264.699 70.4631
C267.252 70.4631 269.7 69.4491 271.504 67.6443
C273.309 65.8395 274.323 63.3913 274.323 60.8389
C274.323 58.2866 273.309 55.8384 271.504 54.0336
C269.7 52.2288 267.252 51.2148 264.699 51.2148
C262.147 51.2148 259.699 52.2288 257.894 54.0336
C256.089 55.8384 255.075 58.2866 255.075 60.8389
C255.075 63.3913 256.089 65.8395 257.894 67.6443
C259.699 69.4491 262.147 70.4631 264.699 70.4631
z
" style="fill:#00bfff;stroke:#000000;stroke-linejoin:miter;"/>
   </g>
   <g id="patch_44">
    <path d="
M76.489 107.9
C79.0414 107.9 81.4896 106.886 83.2944 105.082
C85.0991 103.277 86.1132 100.829 86.1132 98.2763
C86.1132 95.7239 85.0991 93.2757 83.2944 91.471
C81.4896 89.6662 79.0414 88.6521 76.489 88.6521
C73.9367 88.6521 71.4885 89.6662 69.6837 91.471
C67.8789 93.2757 66.8649 95.7239 66.8649 98.2763
C66.8649 100.829 67.8789 103.277 69.6837 105.082
C71.4885 106.886 73.9367 107.9 76.489 107.9
z
" style="fill:#00bfff;stroke:#000000;stroke-linejoin:miter;"/>
   </g>
   <g id="patch_45">
    <path d="
M132.518 389.577
C135.07 389.577 137.518 388.563 139.323 386.758
C141.128 384.953 142.142 382.505 142.142 379.953
C142.142 377.4 141.128 374.952 139.323 373.147
C137.518 371.343 135.07 370.328 132.518 370.328
C129.966 370.328 127.517 371.343 125.713 373.147
C123.908 374.952 122.894 377.4 122.894 379.953
C122.894 382.505 123.908 384.953 125.713 386.758
C127.517 388.563 129.966 389.577 132.518 389.577
z
" style="fill:#00bfff;stroke:#000000;stroke-linejoin:miter;"/>
   </g>
   <g id="patch_46">
    <path d="
M39.0517 296.111
C41.6041 296.111 44.0522 295.097 45.857 293.292
C47.6618 291.487 48.6759 289.039 48.6759 286.486
C48.6759 283.934 47.6618 281.486 45.857 279.681
C44.0522 277.876 41.6041 276.862 39.0517 276.862
C36.4993 276.862 34.0512 277.876 32.2464 279.681
C30.4416 281.486 29.4275 283.934 29.4275 286.486
C29.4275 289.039 30.4416 291.487 32.2464 293.292
C34.0512 295.097 36.4993 296.111 39.0517 296.111
z
" style="fill:#00bfff;stroke:#000000;stroke-linejoin:miter;"/>
   </g>
   <g id="patch_47">
    <path d="
M76.489 352.14
C79.0414 352.14 81.4896 351.125 83.2944 349.321
C85.0991 347.516 86.1132 345.068 86.1132 342.515
C86.1132 339.963 85.0991 337.515 83.2944 335.71
C81.4896 333.905 79.0414 332.891 76.489 332.891
C73.9367 332.891 71.4885 333.905 69.6837 335.71
C67.8789 337.515 66.8649 339.963 66.8649 342.515
C66.8649 345.068 67.8789 347.516 69.6837 349.321
C71.4885 351.125 73.9367 352.14 76.489 352.14
z
" style="fill:#00bfff;stroke:#000000;stroke-linejoin:miter;"/>
   </g>
   <g id="patch_48">
    <path d="
M198.609 402.723
C201.161 402.723 203.609 401.709 205.414 399.904
C207.219 398.099 208.233 395.651 208.233 393.099
C208.233 390.547 207.219 388.098 205.414 386.294
C203.609 384.489 201.161 383.475 198.609 383.475
C196.056 383.475 193.608 384.489 191.803 386.294
C189.998 388.098 188.984 390.547 188.984 393.099
C188.984 395.651 189.998 398.099 191.803 399.904
C193.608 401.709 196.056 402.723 198.609 402.723
z
" style="fill:#ff0d00;stroke:#000000;stroke-linejoin:miter;"/>
   </g>
   <g id="patch_49">
    <path d="
M39.0517 163.929
C41.6041 163.929 44.0522 162.915 45.857 161.111
C47.6618 159.306 48.6759 156.858 48.6759 154.305
C48.6759 151.753 47.6618 149.305 45.857 147.5
C44.0522 145.695 41.6041 144.681 39.0517 144.681
C36.4993 144.681 34.0512 145.695 32.2464 147.5
C30.4416 149.305 29.4275 151.753 29.4275 154.305
C29.4275 156.858 30.4416 159.306 32.2464 161.111
C34.0512 162.915 36.4993 163.929 39.0517 163.929
z
" style="fill:#ff0d00;stroke:#000000;stroke-linejoin:miter;"/>
   </g>
   <g id="patch_50">
    <path d="
M320.728 352.14
C323.28 352.14 325.729 351.125 327.533 349.321
C329.338 347.516 330.352 345.068 330.352 342.515
C330.352 339.963 329.338 337.515 327.533 335.71
C325.729 333.905 323.28 332.891 320.728 332.891
C318.176 332.891 315.728 333.905 313.923 335.71
C312.118 337.515 311.104 339.963 311.104 342.515
C311.104 345.068 312.118 347.516 313.923 349.321
C315.728 351.125 318.176 352.14 320.728 352.14
z
" style="fill:#ff0d00;stroke:#000000;stroke-linejoin:miter;"/>
   </g>
   <g id="patch_51">
    <path d="
M358.165 163.929
C360.718 163.929 363.166 162.915 364.971 161.111
C366.776 159.306 367.79 156.858 367.79 154.305
C367.79 151.753 366.776 149.305 364.971 147.5
C363.166 145.695 360.718 144.681 358.165 144.681
C355.613 144.681 353.165 145.695 351.36 147.5
C349.555 149.305 348.541 151.753 348.541 154.305
C348.541 156.858 349.555 159.306 351.36 161.111
C353.165 162.915 355.613 163.929 358.165 163.929
z
" style="fill:#ff0d00;stroke:#000000;stroke-linejoin:miter;"/>
   </g>
   <g id="patch_52">
    <path d="
M320.728 107.9
C323.28 107.9 325.729 106.886 327.533 105.082
C329.338 103.277 330.352 100.829 330.352 98.2763
C330.352 95.7239 329.338 93.2757 327.533 91.471
C325.729 89.6662 323.28 88.6521 320.728 88.6521
C318.176 88.6521 315.728 89.6662 313.923 91.471
C312.118 93.2757 311.104 95.7239 311.104 98.2763
C311.104 100.829 312.118 103.277 313.923 105.082
C315.728 106.886 318.176 107.9 320.728 107.9
z
" style="fill:#ff0d00;stroke:#000000;stroke-linejoin:miter;"/>
   </g>
   <g id="patch_53">
    <path d="
M264.699 389.577
C267.252 389.577 269.7 388.563 271.504 386.758
C273.309 384.953 274.323 382.505 274.323 379.953
C274.323 377.4 273.309 374.952 271.504 373.147
C269.7 371.343 267.252 370.328 264.699 370.328
C262.147 370.328 259.699 371.343 257.894 373.147
C256.089 374.952 255.075 377.4 255.075 379.953
C255.075 382.505 256.089 384.953 257.894 386.758
C259.699 388.563 262.147 389.577 264.699 389.577
z
" style="fill:#ff0d00;stroke:#000000;stroke-linejoin:miter;"/>
   </g>
   <g id="patch_54">
    <path d="
M358.165 296.111
C360.718 296.111 363.166 295.097 364.971 293.292
C366.776 291.487 367.79 289.039 367.79 286.486
C367.79 283.934 366.776 281.486 364.971 279.681
C363.166 277.876 360.718 276.862 358.165 276.862
C355.613 276.862 353.165 277.876 351.36 279.681
C349.555 281.486 348.541 283.934 348.541 286.486
C348.541 289.039 349.555 291.487 351.36 293.292
C353.165 295.097 355.613 296.111 358.165 296.111
z
" style="fill:#ff0d00;stroke:#000000;stroke-linejoin:miter;"/>
   </g>
   <g id="patch_55">
    <path d="
M371.312 230.02
C373.864 230.02 376.312 229.006 378.117 227.201
C379.922 225.396 380.936 222.948 380.936 220.396
C380.936 217.843 379.922 215.395 378.117 213.59
C376.312 211.786 373.864 210.772 371.312 210.772
C368.759 210.772 366.311 211.786 364.506 213.59
C362.702 215.395 361.687 217.843 361.687 220.396
C361.687 222.948 362.702 225.396 364.506 227.201
C366.311 229.006 368.759 230.02 371.312 230.02
z
" style="fill:#ff0d00;stroke:#000000;stroke-linejoin:miter;"/>
   </g>
   <g id="patch_56">
    <path d="
M25.9055 230.02
C28.4578 230.02 30.906 229.006 32.7108 227.201
C34.5156 225.396 35.5296 222.948 35.5296 220.396
C35.5296 217.843 34.5156 215.395 32.7108 213.59
C30.906 211.786 28.4578 210.772 25.9055 210.772
C23.3531 210.772 20.9049 211.786 19.1002 213.59
C17.2954 215.395 16.2813 217.843 16.2813 220.396
C16.2813 222.948 17.2954 225.396 19.1002 227.201
C20.9049 229.006 23.3531 230.02 25.9055 230.02
z
" style="fill:#ff0d00;stroke:#000000;stroke-linejoin:miter;"/>
   </g>
   <g id="text_2">
    <!-- adagio -->
    <defs>
     <path d="
M30.6094 48.3906
Q23.3906 48.3906 19.1875 42.75
Q14.9844 37.1094 14.9844 27.2969
Q14.9844 17.4844 19.1562 11.8438
Q23.3438 6.20312 30.6094 6.20312
Q37.7969 6.20312 41.9844 11.8594
Q46.1875 17.5312 46.1875 27.2969
Q46.1875 37.0156 41.9844 42.7031
Q37.7969 48.3906 30.6094 48.3906
M30.6094 56
Q42.3281 56 49.0156 48.375
Q55.7188 40.7656 55.7188 27.2969
Q55.7188 13.875 49.0156 6.21875
Q42.3281 -1.42188 30.6094 -1.42188
Q18.8438 -1.42188 12.1719 6.21875
Q5.51562 13.875 5.51562 27.2969
Q5.51562 40.7656 12.1719 48.375
Q18.8438 56 30.6094 56" id="BitstreamVeraSans-Roman-6f"/>
     <path d="
M34.2812 27.4844
Q23.3906 27.4844 19.1875 25
Q14.9844 22.5156 14.9844 16.5
Q14.9844 11.7188 18.1406 8.90625
Q21.2969 6.10938 26.7031 6.10938
Q34.1875 6.10938 38.7031 11.4062
Q43.2188 16.7031 43.2188 25.4844
L43.2188 27.4844
z

M52.2031 31.2031
L52.2031 0
L43.2188 0
L43.2188 8.29688
Q40.1406 3.32812 35.5469 0.953125
Q30.9531 -1.42188 24.3125 -1.42188
Q15.9219 -1.42188 10.9531 3.29688
Q6 8.01562 6 15.9219
Q6 25.1406 12.1719 29.8281
Q18.3594 34.5156 30.6094 34.5156
L43.2188 34.5156
L43.2188 35.4062
Q43.2188 41.6094 39.1406 45
Q35.0625 48.3906 27.6875 48.3906
Q23 48.3906 18.5469 47.2656
Q14.1094 46.1406 10.0156 43.8906
L10.0156 52.2031
Q14.9375 54.1094 19.5781 55.0469
Q24.2188 56 28.6094 56
Q40.4844 56 46.3438 49.8438
Q52.2031 43.7031 52.2031 31.2031" id="BitstreamVeraSans-Roman-61"/>
    </defs>
    <g transform="translate(182.257005017 50.4520782652)scale(0.1 -0.1)">
     <use xlink:href="#BitstreamVeraSans-Roman-61"/>
     <use x="61.279296875" xlink:href="#BitstreamVeraSans-Roman-64"/>
     <use x="124.755859375" xlink:href="#BitstreamVeraSans-Roman-61"/>
     <use x="186.03515625" xlink:href="#BitstreamVeraSans-Roman-67"/>
     <use x="249.51171875" xlink:href="#BitstreamVeraSans-Roman-69"/>
     <use x="277.294921875" xlink:href="#BitstreamVeraSans-Roman-6f"/>
    </g>
   </g>
   <g id="text_3">
    <!-- ardan -->
    <defs>
     <path d="
M54.8906 33.0156
L54.8906 0
L45.9062 0
L45.9062 32.7188
Q45.9062 40.4844 42.875 44.3281
Q39.8438 48.1875 33.7969 48.1875
Q26.5156 48.1875 22.3125 43.5469
Q18.1094 38.9219 18.1094 30.9062
L18.1094 0
L9.07812 0
L9.07812 54.6875
L18.1094 54.6875
L18.1094 46.1875
Q21.3438 51.125 25.7031 53.5625
Q30.0781 56 35.7969 56
Q45.2188 56 50.0469 50.1719
Q54.8906 44.3438 54.8906 33.0156" id="BitstreamVeraSans-Roman-6e"/>
    </defs>
    <g transform="translate(118.803109151 63.5983188801)scale(0.1 -0.1)">
     <use xlink:href="#BitstreamVeraSans-Roman-61"/>
     <use x="61.279296875" xlink:href="#BitstreamVeraSans-Roman-72"/>
     <use x="100.642578125" xlink:href="#BitstreamVeraSans-Roman-64"/>
     <use x="164.119140625" xlink:href="#BitstreamVeraSans-Roman-61"/>
     <use x="225.3984375" xlink:href="#BitstreamVeraSans-Roman-6e"/>
    </g>
   </g>
   <g id="text_4">
    <!-- catherine -->
    <defs>
     <path d="
M18.3125 70.2188
L18.3125 54.6875
L36.8125 54.6875
L36.8125 47.7031
L18.3125 47.7031
L18.3125 18.0156
Q18.3125 11.3281 20.1406 9.42188
Q21.9688 7.51562 27.5938 7.51562
L36.8125 7.51562
L36.8125 0
L27.5938 0
Q17.1875 0 13.2344 3.875
Q9.28125 7.76562 9.28125 18.0156
L9.28125 47.7031
L2.6875 47.7031
L2.6875 54.6875
L9.28125 54.6875
L9.28125 70.2188
z
" id="BitstreamVeraSans-Roman-74"/>
     <path d="
M54.8906 33.0156
L54.8906 0
L45.9062 0
L45.9062 32.7188
Q45.9062 40.4844 42.875 44.3281
Q39.8438 48.1875 33.7969 48.1875
Q26.5156 48.1875 22.3125 43.5469
Q18.1094 38.9219 18.1094 30.9062
L18.1094 0
L9.07812 0
L9.07812 75.9844
L18.1094 75.9844
L18.1094 46.1875
Q21.3438 51.125 25.7031 53.5625
Q30.0781 56 35.7969 56
Q45.2188 56 50.0469 50.1719
Q54.8906 44.3438 54.8906 33.0156" id="BitstreamVeraSans-Roman-68"/>
     <path d="
M48.7812 52.5938
L48.7812 44.1875
Q44.9688 46.2969 41.1406 47.3438
Q37.3125 48.3906 33.4062 48.3906
Q24.6562 48.3906 19.8125 42.8438
Q14.9844 37.3125 14.9844 27.2969
Q14.9844 17.2812 19.8125 11.7344
Q24.6562 6.20312 33.4062 6.20312
Q37.3125 6.20312 41.1406 7.25
Q44.9688 8.29688 48.7812 10.4062
L48.7812 2.09375
Q45.0156 0.34375 40.9844 -0.53125
Q36.9688 -1.42188 32.4219 -1.42188
Q20.0625 -1.42188 12.7812 6.34375
Q5.51562 14.1094 5.51562 27.2969
Q5.51562 40.6719 12.8594 48.3281
Q20.2188 56 33.0156 56
Q37.1562 56 41.1094 55.1406
Q45.0625 54.2969 48.7812 52.5938" id="BitstreamVeraSans-Roman-63"/>
    </defs>
    <g transform="translate(53.322628997 101.035644762)scale(0.1 -0.1)">
     <use xlink:href="#BitstreamVeraSans-Roman-63"/>
     <use x="54.98046875" xlink:href="#BitstreamVeraSans-Roman-61"/>
     <use x="116.259765625" xlink:href="#BitstreamVeraSans-Roman-74"/>
     <use x="155.46875" xlink:href="#BitstreamVeraSans-Roman-68"/>
     <use x="218.84765625" xlink:href="#BitstreamVeraSans-Roman-65"/>
     <use x="280.37109375" xlink:href="#BitstreamVeraSans-Roman-72"/>
     <use x="321.484375" xlink:href="#BitstreamVeraSans-Roman-69"/>
     <use x="349.267578125" xlink:href="#BitstreamVeraSans-Roman-6e"/>
     <use x="412.646484375" xlink:href="#BitstreamVeraSans-Roman-65"/>
    </g>
   </g>
   <g id="text_5">
    <!-- celeste -->
    <defs>
     <path d="
M9.42188 75.9844
L18.4062 75.9844
L18.4062 0
L9.42188 0
z
" id="BitstreamVeraSans-Roman-6c"/>
    </defs>
    <g transform="translate(21.6610843649 157.064562416)scale(0.1 -0.1)">
     <use xlink:href="#BitstreamVeraSans-Roman-63"/>
     <use x="54.98046875" xlink:href="#BitstreamVeraSans-Roman-65"/>
     <use x="116.50390625" xlink:href="#BitstreamVeraSans-Roman-6c"/>
     <use x="144.287109375" xlink:href="#BitstreamVeraSans-Roman-65"/>
     <use x="205.810546875" xlink:href="#BitstreamVeraSans-Roman-73"/>
     <use x="257.91015625" xlink:href="#BitstreamVeraSans-Roman-74"/>
     <use x="297.119140625" xlink:href="#BitstreamVeraSans-Roman-65"/>
    </g>
   </g>
   <g id="text_6">
    <!-- fortress -->
    <defs>
     <path d="
M37.1094 75.9844
L37.1094 68.5
L28.5156 68.5
Q23.6875 68.5 21.7969 66.5469
Q19.9219 64.5938 19.9219 59.5156
L19.9219 54.6875
L34.7188 54.6875
L34.7188 47.7031
L19.9219 47.7031
L19.9219 0
L10.8906 0
L10.8906 47.7031
L2.29688 47.7031
L2.29688 54.6875
L10.8906 54.6875
L10.8906 58.5
Q10.8906 67.625 15.1406 71.7969
Q19.3906 75.9844 28.6094 75.9844
z
" id="BitstreamVeraSans-Roman-66"/>
    </defs>
    <g transform="translate(7.2 223.155177033)scale(0.1 -0.1)">
     <use xlink:href="#BitstreamVeraSans-Roman-66"/>
     <use x="35.205078125" xlink:href="#BitstreamVeraSans-Roman-6f"/>
     <use x="96.38671875" xlink:href="#BitstreamVeraSans-Roman-72"/>
     <use x="137.5" xlink:href="#BitstreamVeraSans-Roman-74"/>
     <use x="176.708984375" xlink:href="#BitstreamVeraSans-Roman-72"/>
     <use x="215.572265625" xlink:href="#BitstreamVeraSans-Roman-65"/>
     <use x="277.095703125" xlink:href="#BitstreamVeraSans-Roman-73"/>
     <use x="329.1953125" xlink:href="#BitstreamVeraSans-Roman-73"/>
    </g>
   </g>
   <g id="text_7">
    <!-- glaive -->
    <g transform="translate(24.5415531149 289.245791649)scale(0.1 -0.1)">
     <use xlink:href="#BitstreamVeraSans-Roman-67"/>
     <use x="63.4765625" xlink:href="#BitstreamVeraSans-Roman-6c"/>
     <use x="91.259765625" xlink:href="#BitstreamVeraSans-Roman-61"/>
     <use x="152.5390625" xlink:href="#BitstreamVeraSans-Roman-69"/>
     <use x="180.322265625" xlink:href="#BitstreamVeraSans-Roman-76"/>
     <use x="239.501953125" xlink:href="#BitstreamVeraSans-Roman-65"/>
    </g>
   </g>
   <g id="text_8">
    <!-- joule -->
    <defs>
     <path d="
M9.42188 54.6875
L18.4062 54.6875
L18.4062 -0.984375
Q18.4062 -11.4219 14.4219 -16.1094
Q10.4531 -20.7969 1.60938 -20.7969
L-1.8125 -20.7969
L-1.8125 -13.1875
L0.59375 -13.1875
Q5.71875 -13.1875 7.5625 -10.8125
Q9.42188 -8.45312 9.42188 -0.984375
z

M9.42188 75.9844
L18.4062 75.9844
L18.4062 64.5938
L9.42188 64.5938
z
" id="BitstreamVeraSans-Roman-6a"/>
    </defs>
    <g transform="translate(64.582003997 345.274709303)scale(0.1 -0.1)">
     <use xlink:href="#BitstreamVeraSans-Roman-6a"/>
     <use x="27.783203125" xlink:href="#BitstreamVeraSans-Roman-6f"/>
     <use x="88.96484375" xlink:href="#BitstreamVeraSans-Roman-75"/>
     <use x="152.34375" xlink:href="#BitstreamVeraSans-Roman-6c"/>
     <use x="180.126953125" xlink:href="#BitstreamVeraSans-Roman-65"/>
    </g>
   </g>
   <g id="text_9">
    <!-- koshka -->
    <g transform="translate(116.007015401 382.712035185)scale(0.1 -0.1)">
     <use xlink:href="#BitstreamVeraSans-Roman-6b"/>
     <use x="54.28515625" xlink:href="#BitstreamVeraSans-Roman-6f"/>
     <use x="115.466796875" xlink:href="#BitstreamVeraSans-Roman-73"/>
     <use x="167.56640625" xlink:href="#BitstreamVeraSans-Roman-68"/>
     <use x="230.9453125" xlink:href="#BitstreamVeraSans-Roman-6b"/>
     <use x="287.10546875" xlink:href="#BitstreamVeraSans-Roman-61"/>
    </g>
   </g>
   <g id="text_10">
    <!-- krul -->
    <g transform="translate(190.022630017 395.8582758)scale(0.1 -0.1)">
     <use xlink:href="#BitstreamVeraSans-Roman-6b"/>
     <use x="57.91015625" xlink:href="#BitstreamVeraSans-Roman-72"/>
     <use x="99.0234375" xlink:href="#BitstreamVeraSans-Roman-75"/>
     <use x="162.40234375" xlink:href="#BitstreamVeraSans-Roman-6c"/>
    </g>
   </g>
   <g id="text_11">
    <!-- petal -->
    <defs>
     <path d="
M18.1094 8.20312
L18.1094 -20.7969
L9.07812 -20.7969
L9.07812 54.6875
L18.1094 54.6875
L18.1094 46.3906
Q20.9531 51.2656 25.2656 53.625
Q29.5938 56 35.5938 56
Q45.5625 56 51.7812 48.0938
Q58.0156 40.1875 58.0156 27.2969
Q58.0156 14.4062 51.7812 6.48438
Q45.5625 -1.42188 35.5938 -1.42188
Q29.5938 -1.42188 25.2656 0.953125
Q20.9531 3.32812 18.1094 8.20312
M48.6875 27.2969
Q48.6875 37.2031 44.6094 42.8438
Q40.5312 48.4844 33.4062 48.4844
Q26.2656 48.4844 22.1875 42.8438
Q18.1094 37.2031 18.1094 27.2969
Q18.1094 17.3906 22.1875 11.75
Q26.2656 6.10938 33.4062 6.10938
Q40.5312 6.10938 44.6094 11.75
Q48.6875 17.3906 48.6875 27.2969" id="BitstreamVeraSans-Roman-70"/>
    </defs>
    <g transform="translate(252.957775884 382.712035185)scale(0.1 -0.1)">
     <use xlink:href="#BitstreamVeraSans-Roman-70"/>
     <use x="63.4765625" xlink:href="#BitstreamVeraSans-Roman-65"/>
     <use x="125.0" xlink:href="#BitstreamVeraSans-Roman-74"/>
     <use x="164.208984375" xlink:href="#BitstreamVeraSans-Roman-61"/>
     <use x="225.48828125" xlink:href="#BitstreamVeraSans-Roman-6c"/>
    </g>
   </g>
   <g id="text_12">
    <!-- ringo -->
    <g transform="translate(308.608568538 345.274709303)scale(0.1 -0.1)">
     <use xlink:href="#BitstreamVeraSans-Roman-72"/>
     <use x="41.11328125" xlink:href="#BitstreamVeraSans-Roman-69"/>
     <use x="68.896484375" xlink:href="#BitstreamVeraSans-Roman-6e"/>
     <use x="132.275390625" xlink:href="#BitstreamVeraSans-Roman-67"/>
     <use x="195.751953125" xlink:href="#BitstreamVeraSans-Roman-6f"/>
    </g>
   </g>
   <g id="text_13">
    <!-- rona -->
    <g transform="translate(347.83808192 289.245791649)scale(0.1 -0.1)">
     <use xlink:href="#BitstreamVeraSans-Roman-72"/>
     <use x="38.86328125" xlink:href="#BitstreamVeraSans-Roman-6f"/>
     <use x="100.044921875" xlink:href="#BitstreamVeraSans-Roman-6e"/>
     <use x="163.423828125" xlink:href="#BitstreamVeraSans-Roman-61"/>
    </g>
   </g>
   <g id="text_14">
    <!-- saw -->
    <defs>
     <path d="
M4.20312 54.6875
L13.1875 54.6875
L24.4219 12.0156
L35.5938 54.6875
L46.1875 54.6875
L57.4219 12.0156
L68.6094 54.6875
L77.5938 54.6875
L63.2812 0
L52.6875 0
L40.9219 44.8281
L29.1094 0
L18.5 0
z
" id="BitstreamVeraSans-Roman-77"/>
    </defs>
    <g transform="translate(362.034322535 223.155177033)scale(0.1 -0.1)">
     <use xlink:href="#BitstreamVeraSans-Roman-73"/>
     <use x="52.099609375" xlink:href="#BitstreamVeraSans-Roman-61"/>
     <use x="113.37890625" xlink:href="#BitstreamVeraSans-Roman-77"/>
    </g>
   </g>
   <g id="text_15">
    <!-- skaarf -->
    <g transform="translate(342.98495692 157.064562416)scale(0.1 -0.1)">
     <use xlink:href="#BitstreamVeraSans-Roman-73"/>
     <use x="52.099609375" xlink:href="#BitstreamVeraSans-Roman-6b"/>
     <use x="108.259765625" xlink:href="#BitstreamVeraSans-Roman-61"/>
     <use x="169.5390625" xlink:href="#BitstreamVeraSans-Roman-61"/>
     <use x="230.818359375" xlink:href="#BitstreamVeraSans-Roman-72"/>
     <use x="271.931640625" xlink:href="#BitstreamVeraSans-Roman-66"/>
    </g>
   </g>
   <g id="text_16">
    <!-- taka -->
    <g transform="translate(310.420287288 101.035644762)scale(0.1 -0.1)">
     <use xlink:href="#BitstreamVeraSans-Roman-74"/>
     <use x="39.208984375" xlink:href="#BitstreamVeraSans-Roman-61"/>
     <use x="100.48828125" xlink:href="#BitstreamVeraSans-Roman-6b"/>
     <use x="156.6484375" xlink:href="#BitstreamVeraSans-Roman-61"/>
    </g>
   </g>
   <g id="text_17">
    <!-- vox -->
    <defs>
     <path d="
M54.8906 54.6875
L35.1094 28.0781
L55.9062 0
L45.3125 0
L29.3906 21.4844
L13.4844 0
L2.875 0
L24.125 28.6094
L4.6875 54.6875
L15.2812 54.6875
L29.7812 35.2031
L44.2812 54.6875
z
" id="BitstreamVeraSans-Roman-78"/>
    </defs>
    <g transform="translate(256.190588384 63.5983188801)scale(0.1 -0.1)">
     <use xlink:href="#BitstreamVeraSans-Roman-76"/>
     <use x="59.1796875" xlink:href="#BitstreamVeraSans-Roman-6f"/>
     <use x="117.236328125" xlink:href="#BitstreamVeraSans-Roman-78"/>
    </g>
   </g>
  </g>
 </g>
 <defs>
  <clipPath id="p9294ba8a6a">
   <rect height="392.08" width="379.240717898" x="8.98820856829" y="21.318125"/>
  </clipPath>
 </defs>
</svg>
