<?xml version="1.0" encoding="utf-8" standalone="no"?>
<!DOCTYPE svg PUBLIC "-//W3C//DTD SVG 1.1//EN"
  "http://www.w3.org/Graphics/SVG/1.1/DTD/svg11.dtd">
<!-- Created with matplotlib (http://matplotlib.org/) -->
<svg height="420pt" version="1.1" viewBox="0 0 407 420" width="407pt" xmlns="http://www.w3.org/2000/svg" xmlns:xlink="http://www.w3.org/1999/xlink">
 <defs>
  <style type="text/css">
*{stroke-linecap:butt;stroke-linejoin:round;}
  </style>
 </defs>
 <g id="figure_1">
  <g id="patch_1">
   <path d="
M0 420.598
L407.695 420.598
L407.695 0
L0 0
z
" style="fill:#ffffff;"/>
  </g>
  <g id="axes_1">
   <g id="patch_2">
    <path d="
M8.41547 413.398
L400.495 413.398
L400.495 21.3181
L8.41547 21.3181
z
" style="fill:#ffffff;"/>
   </g>
   <g id="patch_3">
    <path clip-path="url(#pc581fc927e)" d="
M370.075 139.102
Q372.331 105.188 342.253 95.0101" style="fill:none;stroke:#000000;stroke-linecap:round;stroke-width:2.0;"/>
    <path clip-path="url(#pc581fc927e)" d="
M350.122 102.951
L342.253 95.0101
L353.328 93.479
L350.122 102.951
z
" style="stroke:#000000;stroke-linecap:round;stroke-width:2.0;"/>
   </g>
   <g id="patch_4">
    <path clip-path="url(#pc581fc927e)" d="
M357.871 145.124
Q327.793 134.947 330.049 101.032" style="fill:none;stroke:#000000;stroke-linecap:round;stroke-width:2.0;"/>
    <path clip-path="url(#pc581fc927e)" d="
M350.001 137.183
L357.871 145.124
L346.796 146.655
L350.001 137.183
z
" style="stroke:#000000;stroke-linecap:round;stroke-width:2.0;"/>
   </g>
   <g id="patch_5">
    <path clip-path="url(#pc581fc927e)" d="
M211.364 388.748
Q309.204 287.349 364.55 160.203" style="fill:none;stroke:#000000;stroke-linecap:round;stroke-width:2.0;"/>
    <path clip-path="url(#pc581fc927e)" d="
M355.975 167.377
L364.55 160.203
L365.144 171.368
L355.975 167.377
z
" style="stroke:#000000;stroke-linecap:round;stroke-width:2.0;"/>
   </g>
   <g id="patch_6">
    <path clip-path="url(#pc581fc927e)" d="
M209.319 384.735
Q264.666 257.59 362.505 156.19" style="fill:none;stroke:#000000;stroke-linecap:round;stroke-width:2.0;"/>
    <path clip-path="url(#pc581fc927e)" d="
M217.895 377.561
L209.319 384.735
L208.726 373.57
L217.895 377.561
z
" style="stroke:#000000;stroke-linecap:round;stroke-width:2.0;"/>
   </g>
   <g id="patch_7">
    <path clip-path="url(#pc581fc927e)" d="
M32.8053 224.527
Q76.7973 270.236 77.9684 331.428" style="fill:none;stroke:#000000;stroke-linecap:round;stroke-width:2.0;"/>
    <path clip-path="url(#pc581fc927e)" d="
M82.7761 321.334
L77.9684 331.428
L72.778 321.526
L82.7761 321.334
z
" style="stroke:#000000;stroke-linecap:round;stroke-width:2.0;"/>
   </g>
   <g id="patch_8">
    <path clip-path="url(#pc581fc927e)" d="
M26.1386 229.542
Q27.3097 290.734 71.3018 336.443" style="fill:none;stroke:#000000;stroke-linecap:round;stroke-width:2.0;"/>
    <path clip-path="url(#pc581fc927e)" d="
M21.3309 239.636
L26.1386 229.542
L31.3291 239.444
L21.3309 239.636
z
" style="stroke:#000000;stroke-linecap:round;stroke-width:2.0;"/>
   </g>
   <g id="patch_9">
    <path clip-path="url(#pc581fc927e)" d="
M49.4452 148.852
Q190.328 146.335 319.369 95.5657" style="fill:none;stroke:#000000;stroke-linecap:round;stroke-width:2.0;"/>
    <path clip-path="url(#pc581fc927e)" d="
M308.233 94.5741
L319.369 95.5657
L311.894 103.88
L308.233 94.5741
z
" style="stroke:#000000;stroke-linecap:round;stroke-width:2.0;"/>
   </g>
   <g id="patch_10">
    <path clip-path="url(#pc581fc927e)" d="
M50.8367 144.568
Q179.878 93.7992 320.761 91.282" style="fill:none;stroke:#000000;stroke-linecap:round;stroke-width:2.0;"/>
    <path clip-path="url(#pc581fc927e)" d="
M61.973 145.56
L50.8367 144.568
L58.3118 136.254
L61.973 145.56
z
" style="stroke:#000000;stroke-linecap:round;stroke-width:2.0;"/>
   </g>
   <g id="patch_11">
    <path clip-path="url(#pc581fc927e)" d="
M382.815 207.41
Q381.601 143.982 339.16 99.8844" style="fill:none;stroke:#000000;stroke-linecap:round;stroke-width:2.0;"/>
    <path clip-path="url(#pc581fc927e)" d="
M342.492 110.557
L339.16 99.8844
L349.697 103.622
L342.492 110.557
z
" style="stroke:#000000;stroke-linecap:round;stroke-width:2.0;"/>
   </g>
   <g id="patch_12">
    <path clip-path="url(#pc581fc927e)" d="
M374.555 208.578
Q332.114 164.48 330.9 101.052" style="fill:none;stroke:#000000;stroke-linecap:round;stroke-width:2.0;"/>
    <path clip-path="url(#pc581fc927e)" d="
M371.223 197.906
L374.555 208.578
L364.018 204.84
L371.223 197.906
z
" style="stroke:#000000;stroke-linecap:round;stroke-width:2.0;"/>
   </g>
   <g id="patch_13">
    <path clip-path="url(#pc581fc927e)" d="
M86.2031 337.698
Q223.394 236.296 323.466 100.904" style="fill:none;stroke:#000000;stroke-linecap:round;stroke-width:2.0;"/>
    <path clip-path="url(#pc581fc927e)" d="
M313.501 105.974
L323.466 100.904
L321.543 111.918
L313.501 105.974
z
" style="stroke:#000000;stroke-linecap:round;stroke-width:2.0;"/>
   </g>
   <g id="patch_14">
    <path clip-path="url(#pc581fc927e)" d="
M85.4448 333.812
Q185.517 198.42 322.708 97.0184" style="fill:none;stroke:#000000;stroke-linecap:round;stroke-width:2.0;"/>
    <path clip-path="url(#pc581fc927e)" d="
M95.4096 328.742
L85.4448 333.812
L87.3679 322.799
L95.4096 328.742
z
" style="stroke:#000000;stroke-linecap:round;stroke-width:2.0;"/>
   </g>
   <g id="patch_15">
    <path clip-path="url(#pc581fc927e)" d="
M327.52 81.6791
Q316.626 49.483 284.943 51.5906" style="fill:none;stroke:#000000;stroke-linecap:round;stroke-width:2.0;"/>
    <path clip-path="url(#pc581fc927e)" d="
M295.253 55.9158
L284.943 51.5906
L294.589 45.9379
L295.253 55.9158
z
" style="stroke:#000000;stroke-linecap:round;stroke-width:2.0;"/>
   </g>
   <g id="patch_16">
    <path clip-path="url(#pc581fc927e)" d="
M318.55 91.9131
Q286.867 94.0207 275.973 61.8245" style="fill:none;stroke:#000000;stroke-linecap:round;stroke-width:2.0;"/>
    <path clip-path="url(#pc581fc927e)" d="
M308.24 87.5878
L318.55 91.9131
L308.904 97.5658
L308.24 87.5878
z
" style="stroke:#000000;stroke-linecap:round;stroke-width:2.0;"/>
   </g>
   <g id="patch_17">
    <path clip-path="url(#pc581fc927e)" d="
M84.9167 336.27
Q197.761 212.885 267.623 63.4388" style="fill:none;stroke:#000000;stroke-linecap:round;stroke-width:2.0;"/>
    <path clip-path="url(#pc581fc927e)" d="
M258.859 70.3805
L267.623 63.4388
L267.918 74.6153
L258.859 70.3805
z
" style="stroke:#000000;stroke-linecap:round;stroke-width:2.0;"/>
   </g>
   <g id="patch_18">
    <path clip-path="url(#pc581fc927e)" d="
M83.3621 332.573
Q153.224 183.126 266.068 59.7417" style="fill:none;stroke:#000000;stroke-linecap:round;stroke-width:2.0;"/>
    <path clip-path="url(#pc581fc927e)" d="
M92.1265 325.631
L83.3621 332.573
L83.0674 321.396
L92.1265 325.631
z
" style="stroke:#000000;stroke-linecap:round;stroke-width:2.0;"/>
   </g>
   <g id="patch_19">
    <path clip-path="url(#pc581fc927e)" d="
M367.597 275.904
Q345.843 158.794 279.682 62.4451" style="fill:none;stroke:#000000;stroke-linecap:round;stroke-width:2.0;"/>
    <path clip-path="url(#pc581fc927e)" d="
M281.221 73.519
L279.682 62.4451
L289.464 67.8583
L281.221 73.519
z
" style="stroke:#000000;stroke-linecap:round;stroke-width:2.0;"/>
   </g>
   <g id="patch_20">
    <path clip-path="url(#pc581fc927e)" d="
M362.516 275.641
Q296.355 179.292 274.601 62.1821" style="fill:none;stroke:#000000;stroke-linecap:round;stroke-width:2.0;"/>
    <path clip-path="url(#pc581fc927e)" d="
M360.977 264.567
L362.516 275.641
L352.733 270.227
L360.977 264.567
z
" style="stroke:#000000;stroke-linecap:round;stroke-width:2.0;"/>
   </g>
   <g id="patch_21">
    <path clip-path="url(#pc581fc927e)" d="
M276.426 373.058
Q328.014 241.936 330.492 103.288" style="fill:none;stroke:#000000;stroke-linecap:round;stroke-width:2.0;"/>
    <path clip-path="url(#pc581fc927e)" d="
M325.314 113.197
L330.492 103.288
L335.312 113.376
L325.314 113.197
z
" style="stroke:#000000;stroke-linecap:round;stroke-width:2.0;"/>
   </g>
   <g id="patch_22">
    <path clip-path="url(#pc581fc927e)" d="
M273.001 370.133
Q275.479 231.486 327.067 100.363" style="fill:none;stroke:#000000;stroke-linecap:round;stroke-width:2.0;"/>
    <path clip-path="url(#pc581fc927e)" d="
M278.179 360.224
L273.001 370.133
L268.181 360.045
L278.179 360.224
z
" style="stroke:#000000;stroke-linecap:round;stroke-width:2.0;"/>
   </g>
   <g id="patch_23">
    <path clip-path="url(#pc581fc927e)" d="
M48.1136 294.303
Q87.8121 334.002 129.092 375.281" style="fill:none;stroke:#000000;stroke-linecap:round;stroke-width:2.0;"/>
    <path clip-path="url(#pc581fc927e)" d="
M51.6492 304.91
L48.1136 294.303
L58.7202 297.839
L51.6492 304.91
z
" style="stroke:#000000;stroke-linecap:round;stroke-width:2.0;"/>
   </g>
   <g id="patch_24">
    <path clip-path="url(#pc581fc927e)" d="
M86.4747 338.084
Q223.808 246.321 359.282 155.8" style="fill:none;stroke:#000000;stroke-linecap:round;stroke-width:2.0;"/>
    <path clip-path="url(#pc581fc927e)" d="
M348.189 157.199
L359.282 155.8
L353.745 165.513
L348.189 157.199
z
" style="stroke:#000000;stroke-linecap:round;stroke-width:2.0;"/>
   </g>
   <g id="patch_25">
    <path clip-path="url(#pc581fc927e)" d="
M215.714 43.4715
Q267.582 64.9562 321.517 87.2965" style="fill:none;stroke:#000000;stroke-linecap:round;stroke-width:2.0;"/>
    <path clip-path="url(#pc581fc927e)" d="
M223.039 51.9178
L215.714 43.4715
L226.866 42.679
L223.039 51.9178
z
" style="stroke:#000000;stroke-linecap:round;stroke-width:2.0;"/>
   </g>
   <g id="patch_26">
    <path clip-path="url(#pc581fc927e)" d="
M87.9604 345.553
Q175.493 362.964 260.832 379.939" style="fill:none;stroke:#000000;stroke-linecap:round;stroke-width:2.0;"/>
    <path clip-path="url(#pc581fc927e)" d="
M251.999 373.085
L260.832 379.939
L250.048 382.892
L251.999 373.085
z
" style="stroke:#000000;stroke-linecap:round;stroke-width:2.0;"/>
   </g>
   <g id="patch_27">
    <path clip-path="url(#pc581fc927e)" d="
M36.0378 210.588
Q149.345 134.879 264.51 57.9274" style="fill:none;stroke:#000000;stroke-linecap:round;stroke-width:2.0;"/>
    <path clip-path="url(#pc581fc927e)" d="
M47.1304 209.19
L36.0378 210.588
L41.5747 200.875
L47.1304 209.19
z
" style="stroke:#000000;stroke-linecap:round;stroke-width:2.0;"/>
   </g>
   <g id="patch_28">
    <path clip-path="url(#pc581fc927e)" d="
M211.491 45.8438
Q293.73 128.083 374.389 208.741" style="fill:none;stroke:#000000;stroke-linecap:round;stroke-width:2.0;"/>
    <path clip-path="url(#pc581fc927e)" d="
M370.853 198.135
L374.389 208.741
L363.782 205.206
L370.853 198.135
z
" style="stroke:#000000;stroke-linecap:round;stroke-width:2.0;"/>
   </g>
   <g id="patch_29">
    <path clip-path="url(#pc581fc927e)" d="
M87.9604 341.671
Q223.808 314.649 357.462 288.064" style="fill:none;stroke:#000000;stroke-linecap:round;stroke-width:2.0;"/>
    <path clip-path="url(#pc581fc927e)" d="
M346.679 285.111
L357.462 288.064
L348.63 294.918
L346.679 285.111
z
" style="stroke:#000000;stroke-linecap:round;stroke-width:2.0;"/>
   </g>
   <g id="patch_30">
    <path clip-path="url(#pc581fc927e)" d="
M328.332 331.66
Q301.746 198.006 274.725 62.1582" style="fill:none;stroke:#000000;stroke-linecap:round;stroke-width:2.0;"/>
    <path clip-path="url(#pc581fc927e)" d="
M331.285 320.877
L328.332 331.66
L321.477 322.828
L331.285 320.877
z
" style="stroke:#000000;stroke-linecap:round;stroke-width:2.0;"/>
   </g>
   <g id="patch_31">
    <path clip-path="url(#pc581fc927e)" d="
M83.7295 99.3773
Q175.493 236.711 266.013 372.184" style="fill:none;stroke:#000000;stroke-linecap:round;stroke-width:2.0;"/>
    <path clip-path="url(#pc581fc927e)" d="
M264.615 361.092
L266.013 372.184
L256.3 366.648
L264.615 361.092
z
" style="stroke:#000000;stroke-linecap:round;stroke-width:2.0;"/>
   </g>
   <g id="patch_32">
    <path clip-path="url(#pc581fc927e)" d="
M367.037 273.734
Q350.062 188.395 332.651 100.863" style="fill:none;stroke:#000000;stroke-linecap:round;stroke-width:2.0;"/>
    <path clip-path="url(#pc581fc927e)" d="
M369.99 262.951
L367.037 273.734
L360.182 264.902
L369.99 262.951
z
" style="stroke:#000000;stroke-linecap:round;stroke-width:2.0;"/>
   </g>
   <g id="patch_33">
    <path clip-path="url(#pc581fc927e)" d="
M46.267 295.819
Q58.8492 314.649 72.6736 335.339" style="fill:none;stroke:#000000;stroke-linecap:round;stroke-width:2.0;"/>
    <path clip-path="url(#pc581fc927e)" d="
M47.6653 306.911
L46.267 295.819
L55.98 301.355
L47.6653 306.911
z
" style="stroke:#000000;stroke-linecap:round;stroke-width:2.0;"/>
   </g>
   <g id="patch_34">
    <path clip-path="url(#pc581fc927e)" d="
M199.792 50.0666
Q141.329 191.21 82.0093 334.419" style="fill:none;stroke:#000000;stroke-linecap:round;stroke-width:2.0;"/>
    <path clip-path="url(#pc581fc927e)" d="
M191.346 57.392
L199.792 50.0666
L200.585 61.2188
L191.346 57.392
z
" style="stroke:#000000;stroke-linecap:round;stroke-width:2.0;"/>
   </g>
   <g id="patch_35">
    <path clip-path="url(#pc581fc927e)" d="
M78.2016 103.29
Q78.2016 217.358 78.2016 333.662" style="fill:none;stroke:#000000;stroke-linecap:round;stroke-width:2.0;"/>
    <path clip-path="url(#pc581fc927e)" d="
M73.2016 113.29
L78.2016 103.29
L83.2016 113.29
L73.2016 113.29
z
" style="stroke:#000000;stroke-linecap:round;stroke-width:2.0;"/>
   </g>
   <g id="patch_36">
    <path clip-path="url(#pc581fc927e)" d="
M48.1136 277.069
Q156.14 169.043 265.748 59.4351" style="fill:none;stroke:#000000;stroke-linecap:round;stroke-width:2.0;"/>
    <path clip-path="url(#pc581fc927e)" d="
M58.7202 273.534
L48.1136 277.069
L51.6492 266.463
L58.7202 273.534
z
" style="stroke:#000000;stroke-linecap:round;stroke-width:2.0;"/>
   </g>
   <g id="patch_37">
    <path clip-path="url(#pc581fc927e)" d="
M272.784 370.131
Q272.784 217.358 272.784 62.3494" style="fill:none;stroke:#000000;stroke-linecap:round;stroke-width:2.0;"/>
    <path clip-path="url(#pc581fc927e)" d="
M277.784 360.131
L272.784 370.131
L267.784 360.131
L277.784 360.131
z
" style="stroke:#000000;stroke-linecap:round;stroke-width:2.0;"/>
   </g>
   <g id="patch_38">
    <path clip-path="url(#pc581fc927e)" d="
M50.7552 144.367
Q156.14 100.715 263.591 56.2071" style="fill:none;stroke:#000000;stroke-linecap:round;stroke-width:2.0;"/>
    <path clip-path="url(#pc581fc927e)" d="
M61.9074 145.159
L50.7552 144.367
L58.0806 135.92
L61.9074 145.159
z
" style="stroke:#000000;stroke-linecap:round;stroke-width:2.0;"/>
   </g>
   <g id="patch_39">
    <path clip-path="url(#pc581fc927e)" d="
M148.079 54.7768
Q233.418 71.7518 320.951 89.1631" style="fill:none;stroke:#000000;stroke-linecap:round;stroke-width:2.0;"/>
    <path clip-path="url(#pc581fc927e)" d="
M156.912 61.6316
L148.079 54.7768
L158.863 51.8238
L156.912 61.6316
z
" style="stroke:#000000;stroke-linecap:round;stroke-width:2.0;"/>
   </g>
   <g id="patch_40">
    <path clip-path="url(#pc581fc927e)" d="
M146.26 375.547
Q259.566 299.837 374.732 222.886" style="fill:none;stroke:#000000;stroke-linecap:round;stroke-width:2.0;"/>
    <path clip-path="url(#pc581fc927e)" d="
M157.352 374.148
L146.26 375.547
L151.797 365.834
L157.352 374.148
z
" style="stroke:#000000;stroke-linecap:round;stroke-width:2.0;"/>
   </g>
   <g id="patch_41">
    <path clip-path="url(#pc581fc927e)" d="
M86.8184 99.7211
Q204.455 217.358 323.674 336.576" style="fill:none;stroke:#000000;stroke-linecap:round;stroke-width:2.0;"/>
    <path clip-path="url(#pc581fc927e)" d="
M90.3539 110.328
L86.8184 99.7211
L97.425 103.257
L90.3539 110.328
z
" style="stroke:#000000;stroke-linecap:round;stroke-width:2.0;"/>
   </g>
   <g id="patch_42">
    <path clip-path="url(#pc581fc927e)" d="
M88.1516 343.612
Q204.455 343.612 318.523 343.612" style="fill:none;stroke:#000000;stroke-linecap:round;stroke-width:2.0;"/>
    <path clip-path="url(#pc581fc927e)" d="
M308.523 338.612
L318.523 343.612
L308.523 348.612
L308.523 338.612
z
" style="stroke:#000000;stroke-linecap:round;stroke-width:2.0;"/>
   </g>
   <g id="patch_43">
    <path clip-path="url(#pc581fc927e)" d="
M90.1535 88.7268
Q175.493 71.7518 263.025 54.3406" style="fill:none;stroke:#000000;stroke-linecap:round;stroke-width:2.0;"/>
    <path clip-path="url(#pc581fc927e)" d="
M100.937 91.6798
L90.1535 88.7268
L98.9859 81.872
L100.937 91.6798
z
" style="stroke:#000000;stroke-linecap:round;stroke-width:2.0;"/>
   </g>
   <g id="patch_44">
    <path clip-path="url(#pc581fc927e)" d="
M140.791 371.058
Q204.455 217.358 268.976 61.592" style="fill:none;stroke:#000000;stroke-linecap:round;stroke-width:2.0;"/>
    <path clip-path="url(#pc581fc927e)" d="
M149.237 363.733
L140.791 371.058
L139.998 359.906
L149.237 363.733
z
" style="stroke:#000000;stroke-linecap:round;stroke-width:2.0;"/>
   </g>
   <g id="patch_45">
    <path clip-path="url(#pc581fc927e)" d="
M145.886 384.258
Q170.291 389.112 192.504 393.531" style="fill:none;stroke:#000000;stroke-linecap:round;stroke-width:2.0;"/>
    <path clip-path="url(#pc581fc927e)" d="
M183.671 386.676
L192.504 393.531
L181.72 396.484
L183.671 386.676
z
" style="stroke:#000000;stroke-linecap:round;stroke-width:2.0;"/>
   </g>
   <g id="patch_46">
    <path clip-path="url(#pc581fc927e)" d="
M360.797 140.413
Q321.099 100.715 279.819 59.4351" style="fill:none;stroke:#000000;stroke-linecap:round;stroke-width:2.0;"/>
    <path clip-path="url(#pc581fc927e)" d="
M357.262 129.807
L360.797 140.413
L350.191 136.878
L357.262 129.807
z
" style="stroke:#000000;stroke-linecap:round;stroke-width:2.0;"/>
   </g>
   <g id="patch_47">
    <path clip-path="url(#pc581fc927e)" d="
M87.3942 339.804
Q230.604 280.485 371.747 222.022" style="fill:none;stroke:#000000;stroke-linecap:round;stroke-width:2.0;"/>
    <path clip-path="url(#pc581fc927e)" d="
M360.595 221.229
L371.747 222.022
L364.422 230.468
L360.595 221.229
z
" style="stroke:#000000;stroke-linecap:round;stroke-width:2.0;"/>
   </g>
   <g id="patch_48">
    <path clip-path="url(#pc581fc927e)" d="
M216.407 41.1855
Q238.62 45.6038 263.025 50.4583" style="fill:none;stroke:#000000;stroke-linecap:round;stroke-width:2.0;"/>
    <path clip-path="url(#pc581fc927e)" d="
M225.24 48.0403
L216.407 41.1855
L227.191 38.2325
L225.24 48.0403
z
" style="stroke:#000000;stroke-linecap:round;stroke-width:2.0;"/>
   </g>
   <g id="patch_49">
    <path clip-path="url(#pc581fc927e)" d="
M148.313 52.3994
Q204.455 52.3994 262.834 52.3994" style="fill:none;stroke:#000000;stroke-linecap:round;stroke-width:2.0;"/>
    <path clip-path="url(#pc581fc927e)" d="
M158.313 57.3994
L148.313 52.3994
L158.313 47.3994
L158.313 57.3994
z
" style="stroke:#000000;stroke-linecap:round;stroke-width:2.0;"/>
   </g>
   <g id="patch_50">
    <path clip-path="url(#pc581fc927e)" d="
M90.3876 91.1042
Q204.455 91.1042 320.759 91.1042" style="fill:none;stroke:#000000;stroke-linecap:round;stroke-width:2.0;"/>
    <path clip-path="url(#pc581fc927e)" d="
M100.388 96.1042
L90.3876 91.1042
L100.388 86.1042
L100.388 96.1042
z
" style="stroke:#000000;stroke-linecap:round;stroke-width:2.0;"/>
   </g>
   <g id="patch_51">
    <path clip-path="url(#pc581fc927e)" d="
M35.0981 221.166
Q178.307 280.485 319.451 338.949" style="fill:none;stroke:#000000;stroke-linecap:round;stroke-width:2.0;"/>
    <path clip-path="url(#pc581fc927e)" d="
M312.126 330.502
L319.451 338.949
L308.299 339.741
L312.126 330.502
z
" style="stroke:#000000;stroke-linecap:round;stroke-width:2.0;"/>
   </g>
   <g id="patch_52">
    <path clip-path="url(#pc581fc927e)" d="
M43.3045 158.223
Q87.8121 265.673 131.464 371.058" style="fill:none;stroke:#000000;stroke-linecap:round;stroke-width:2.0;"/>
    <path clip-path="url(#pc581fc927e)" d="
M132.257 359.906
L131.464 371.058
L123.018 363.733
L132.257 359.906
z
" style="stroke:#000000;stroke-linecap:round;stroke-width:2.0;"/>
   </g>
   <g id="patch_53">
    <path clip-path="url(#pc581fc927e)" d="
M41.8742 160.982
Q58.8492 246.321 76.2604 333.853" style="fill:none;stroke:#000000;stroke-linecap:round;stroke-width:2.0;"/>
    <path clip-path="url(#pc581fc927e)" d="
M38.9211 171.765
L41.8742 160.982
L48.729 169.814
L38.9211 171.765
z
" style="stroke:#000000;stroke-linecap:round;stroke-width:2.0;"/>
   </g>
   <g id="patch_54">
    <path clip-path="url(#pc581fc927e)" d="
M206.833 383.956
Q238.62 224.154 270.842 62.1582" style="fill:none;stroke:#000000;stroke-linecap:round;stroke-width:2.0;"/>
    <path clip-path="url(#pc581fc927e)" d="
M213.688 375.124
L206.833 383.956
L203.88 373.173
L213.688 375.124
z
" style="stroke:#000000;stroke-linecap:round;stroke-width:2.0;"/>
   </g>
   <g id="patch_55">
    <path clip-path="url(#pc581fc927e)" d="
M87.3942 347.42
Q141.329 369.76 193.197 391.245" style="fill:none;stroke:#000000;stroke-linecap:round;stroke-width:2.0;"/>
    <path clip-path="url(#pc581fc927e)" d="
M185.872 382.798
L193.197 391.245
L182.045 392.037
L185.872 382.798
z
" style="stroke:#000000;stroke-linecap:round;stroke-width:2.0;"/>
   </g>
   <g id="patch_56">
    <path clip-path="url(#pc581fc927e)" d="
M337.48 333.48
Q350.062 314.649 363.886 293.959" style="fill:none;stroke:#000000;stroke-linecap:round;stroke-width:2.0;"/>
    <path clip-path="url(#pc581fc927e)" d="
M347.193 327.943
L337.48 333.48
L338.878 322.387
L347.193 327.943
z
" style="stroke:#000000;stroke-linecap:round;stroke-width:2.0;"/>
   </g>
   <g id="patch_57">
    <path clip-path="url(#pc581fc927e)" d="
M330.709 331.426
Q330.709 217.358 330.709 101.054" style="fill:none;stroke:#000000;stroke-linecap:round;stroke-width:2.0;"/>
    <path clip-path="url(#pc581fc927e)" d="
M335.709 321.426
L330.709 331.426
L325.709 321.426
L335.709 321.426
z
" style="stroke:#000000;stroke-linecap:round;stroke-width:2.0;"/>
   </g>
   <g id="patch_58">
    <path clip-path="url(#pc581fc927e)" d="
M86.4747 349.14
Q107.164 362.964 125.995 375.547" style="fill:none;stroke:#000000;stroke-linecap:round;stroke-width:2.0;"/>
    <path clip-path="url(#pc581fc927e)" d="
M120.458 365.834
L125.995 375.547
L114.902 374.148
L120.458 365.834
z
" style="stroke:#000000;stroke-linecap:round;stroke-width:2.0;"/>
   </g>
   <g id="patch_59">
    <path clip-path="url(#pc581fc927e)" d="
M133.75 64.3513
Q107.164 198.006 80.1427 333.853" style="fill:none;stroke:#000000;stroke-linecap:round;stroke-width:2.0;"/>
    <path clip-path="url(#pc581fc927e)" d="
M126.895 73.1837
L133.75 64.3513
L136.703 75.1347
L126.895 73.1837
z
" style="stroke:#000000;stroke-linecap:round;stroke-width:2.0;"/>
   </g>
   <g id="patch_60">
    <path clip-path="url(#pc581fc927e)" d="
M376.235 207.226
Q327.895 134.879 278.312 60.6726" style="fill:none;stroke:#000000;stroke-linecap:round;stroke-width:2.0;"/>
    <path clip-path="url(#pc581fc927e)" d="
M374.837 196.133
L376.235 207.226
L366.522 201.689
L374.837 196.133
z
" style="stroke:#000000;stroke-linecap:round;stroke-width:2.0;"/>
   </g>
   <g id="patch_61">
    <path clip-path="url(#pc581fc927e)" d="
M142.898 372.184
Q233.418 236.711 325.181 99.3773" style="fill:none;stroke:#000000;stroke-linecap:round;stroke-width:2.0;"/>
    <path clip-path="url(#pc581fc927e)" d="
M152.611 366.648
L142.898 372.184
L144.296 361.092
L152.611 366.648
z
" style="stroke:#000000;stroke-linecap:round;stroke-width:2.0;"/>
   </g>
   <g id="patch_62">
    <path clip-path="url(#pc581fc927e)" d="
M37.1639 212.695
Q178.307 154.231 321.517 94.9119" style="fill:none;stroke:#000000;stroke-linecap:round;stroke-width:2.0;"/>
    <path clip-path="url(#pc581fc927e)" d="
M48.3161 213.487
L37.1639 212.695
L44.4893 204.248
L48.3161 213.487
z
" style="stroke:#000000;stroke-linecap:round;stroke-width:2.0;"/>
   </g>
   <g id="patch_63">
    <path clip-path="url(#pc581fc927e)" d="
M333.087 331.66
Q350.062 246.321 367.473 158.789" style="fill:none;stroke:#000000;stroke-linecap:round;stroke-width:2.0;"/>
    <path clip-path="url(#pc581fc927e)" d="
M339.942 322.828
L333.087 331.66
L330.134 320.877
L339.942 322.828
z
" style="stroke:#000000;stroke-linecap:round;stroke-width:2.0;"/>
   </g>
   <g id="patch_64">
    <path clip-path="url(#pc581fc927e)" d="
M49.6291 278.916
Q185.103 188.395 322.436 96.6321" style="fill:none;stroke:#000000;stroke-linecap:round;stroke-width:2.0;"/>
    <path clip-path="url(#pc581fc927e)" d="
M60.7217 277.518
L49.6291 278.916
L55.166 269.203
L60.7217 277.518
z
" style="stroke:#000000;stroke-linecap:round;stroke-width:2.0;"/>
   </g>
   <g id="patch_65">
    <path clip-path="url(#pc581fc927e)" d="
M144.4 57.9274
Q259.566 134.879 372.873 210.588" style="fill:none;stroke:#000000;stroke-linecap:round;stroke-width:2.0;"/>
    <path clip-path="url(#pc581fc927e)" d="
M367.336 200.875
L372.873 210.588
L361.781 209.19
L367.336 200.875
z
" style="stroke:#000000;stroke-linecap:round;stroke-width:2.0;"/>
   </g>
   <g id="patch_66">
    <path clip-path="url(#pc581fc927e)" d="
M209.119 384.65
Q267.582 243.506 326.902 100.297" style="fill:none;stroke:#000000;stroke-linecap:round;stroke-width:2.0;"/>
    <path clip-path="url(#pc581fc927e)" d="
M217.565 377.324
L209.119 384.65
L208.326 373.497
L217.565 377.324
z
" style="stroke:#000000;stroke-linecap:round;stroke-width:2.0;"/>
   </g>
   <g id="patch_67">
    <path clip-path="url(#pc581fc927e)" d="
M47.7699 291.214
Q121.976 340.797 194.323 389.138" style="fill:none;stroke:#000000;stroke-linecap:round;stroke-width:2.0;"/>
    <path clip-path="url(#pc581fc927e)" d="
M188.786 379.425
L194.323 389.138
L183.231 387.74
L188.786 379.425
z
" style="stroke:#000000;stroke-linecap:round;stroke-width:2.0;"/>
   </g>
   <g id="patch_68">
    <path clip-path="url(#pc581fc927e)" d="
M148.313 382.317
Q204.455 382.317 262.834 382.317" style="fill:none;stroke:#000000;stroke-linecap:round;stroke-width:2.0;"/>
    <path clip-path="url(#pc581fc927e)" d="
M158.313 387.317
L148.313 382.317
L158.313 377.317
L158.313 387.317
z
" style="stroke:#000000;stroke-linecap:round;stroke-width:2.0;"/>
   </g>
   <g id="matplotlib.axis_1"/>
   <g id="matplotlib.axis_2"/>
   <g id="text_1">
    <!-- Threatening - 1 guides -->
    <defs>
     <path id="BitstreamVeraSans-Roman-20"/>
     <path d="
M12.4062 8.29688
L28.5156 8.29688
L28.5156 63.9219
L10.9844 60.4062
L10.9844 69.3906
L28.4219 72.9062
L38.2812 72.9062
L38.2812 8.29688
L54.3906 8.29688
L54.3906 0
L12.4062 0
z
" id="BitstreamVeraSans-Roman-31"/>
     <path d="
M54.8906 33.0156
L54.8906 0
L45.9062 0
L45.9062 32.7188
Q45.9062 40.4844 42.875 44.3281
Q39.8438 48.1875 33.7969 48.1875
Q26.5156 48.1875 22.3125 43.5469
Q18.1094 38.9219 18.1094 30.9062
L18.1094 0
L9.07812 0
L9.07812 54.6875
L18.1094 54.6875
L18.1094 46.1875
Q21.3438 51.125 25.7031 53.5625
Q30.0781 56 35.7969 56
Q45.2188 56 50.0469 50.1719
Q54.8906 44.3438 54.8906 33.0156" id="BitstreamVeraSans-Roman-6e"/>
     <path d="
M34.2812 27.4844
Q23.3906 27.4844 19.1875 25
Q14.9844 22.5156 14.9844 16.5
Q14.9844 11.7188 18.1406 8.90625
Q21.2969 6.10938 26.7031 6.10938
Q34.1875 6.10938 38.7031 11.4062
Q43.2188 16.7031 43.2188 25.4844
L43.2188 27.4844
z

M52.2031 31.2031
L52.2031 0
L43.2188 0
L43.2188 8.29688
Q40.1406 3.32812 35.5469 0.953125
Q30.9531 -1.42188 24.3125 -1.42188
Q15.9219 -1.42188 10.9531 3.29688
Q6 8.01562 6 15.9219
Q6 25.1406 12.1719 29.8281
Q18.3594 34.5156 30.6094 34.5156
L43.2188 34.5156
L43.2188 35.4062
Q43.2188 41.6094 39.1406 45
Q35.0625 48.3906 27.6875 48.3906
Q23 48.3906 18.5469 47.2656
Q14.1094 46.1406 10.0156 43.8906
L10.0156 52.2031
Q14.9375 54.1094 19.5781 55.0469
Q24.2188 56 28.6094 56
Q40.4844 56 46.3438 49.8438
Q52.2031 43.7031 52.2031 31.2031" id="BitstreamVeraSans-Roman-61"/>
     <path d="
M44.2812 53.0781
L44.2812 44.5781
Q40.4844 46.5312 36.375 47.5
Q32.2812 48.4844 27.875 48.4844
Q21.1875 48.4844 17.8438 46.4375
Q14.5 44.3906 14.5 40.2812
Q14.5 37.1562 16.8906 35.375
Q19.2812 33.5938 26.5156 31.9844
L29.5938 31.2969
Q39.1562 29.25 43.1875 25.5156
Q47.2188 21.7812 47.2188 15.0938
Q47.2188 7.46875 41.1875 3.01562
Q35.1562 -1.42188 24.6094 -1.42188
Q20.2188 -1.42188 15.4531 -0.5625
Q10.6875 0.296875 5.42188 2
L5.42188 11.2812
Q10.4062 8.6875 15.2344 7.39062
Q20.0625 6.10938 24.8125 6.10938
Q31.1562 6.10938 34.5625 8.28125
Q37.9844 10.4531 37.9844 14.4062
Q37.9844 18.0625 35.5156 20.0156
Q33.0625 21.9688 24.7031 23.7812
L21.5781 24.5156
Q13.2344 26.2656 9.51562 29.9062
Q5.8125 33.5469 5.8125 39.8906
Q5.8125 47.6094 11.2812 51.7969
Q16.75 56 26.8125 56
Q31.7812 56 36.1719 55.2656
Q40.5781 54.5469 44.2812 53.0781" id="BitstreamVeraSans-Roman-73"/>
     <path d="
M-0.296875 72.9062
L61.375 72.9062
L61.375 64.5938
L35.5 64.5938
L35.5 0
L25.5938 0
L25.5938 64.5938
L-0.296875 64.5938
z
" id="BitstreamVeraSans-Roman-54"/>
     <path d="
M54.8906 33.0156
L54.8906 0
L45.9062 0
L45.9062 32.7188
Q45.9062 40.4844 42.875 44.3281
Q39.8438 48.1875 33.7969 48.1875
Q26.5156 48.1875 22.3125 43.5469
Q18.1094 38.9219 18.1094 30.9062
L18.1094 0
L9.07812 0
L9.07812 75.9844
L18.1094 75.9844
L18.1094 46.1875
Q21.3438 51.125 25.7031 53.5625
Q30.0781 56 35.7969 56
Q45.2188 56 50.0469 50.1719
Q54.8906 44.3438 54.8906 33.0156" id="BitstreamVeraSans-Roman-68"/>
     <path d="
M45.4062 46.3906
L45.4062 75.9844
L54.3906 75.9844
L54.3906 0
L45.4062 0
L45.4062 8.20312
Q42.5781 3.32812 38.25 0.953125
Q33.9375 -1.42188 27.875 -1.42188
Q17.9688 -1.42188 11.7344 6.48438
Q5.51562 14.4062 5.51562 27.2969
Q5.51562 40.1875 11.7344 48.0938
Q17.9688 56 27.875 56
Q33.9375 56 38.25 53.625
Q42.5781 51.2656 45.4062 46.3906
M14.7969 27.2969
Q14.7969 17.3906 18.875 11.75
Q22.9531 6.10938 30.0781 6.10938
Q37.2031 6.10938 41.2969 11.75
Q45.4062 17.3906 45.4062 27.2969
Q45.4062 37.2031 41.2969 42.8438
Q37.2031 48.4844 30.0781 48.4844
Q22.9531 48.4844 18.875 42.8438
Q14.7969 37.2031 14.7969 27.2969" id="BitstreamVeraSans-Roman-64"/>
     <path d="
M56.2031 29.5938
L56.2031 25.2031
L14.8906 25.2031
Q15.4844 15.9219 20.4844 11.0625
Q25.4844 6.20312 34.4219 6.20312
Q39.5938 6.20312 44.4531 7.46875
Q49.3125 8.73438 54.1094 11.2812
L54.1094 2.78125
Q49.2656 0.734375 44.1875 -0.34375
Q39.1094 -1.42188 33.8906 -1.42188
Q20.7969 -1.42188 13.1562 6.1875
Q5.51562 13.8125 5.51562 26.8125
Q5.51562 40.2344 12.7656 48.1094
Q20.0156 56 32.3281 56
Q43.3594 56 49.7812 48.8906
Q56.2031 41.7969 56.2031 29.5938
M47.2188 32.2344
Q47.125 39.5938 43.0938 43.9844
Q39.0625 48.3906 32.4219 48.3906
Q24.9062 48.3906 20.3906 44.1406
Q15.875 39.8906 15.1875 32.1719
z
" id="BitstreamVeraSans-Roman-65"/>
     <path d="
M9.42188 54.6875
L18.4062 54.6875
L18.4062 0
L9.42188 0
z

M9.42188 75.9844
L18.4062 75.9844
L18.4062 64.5938
L9.42188 64.5938
z
" id="BitstreamVeraSans-Roman-69"/>
     <path d="
M18.3125 70.2188
L18.3125 54.6875
L36.8125 54.6875
L36.8125 47.7031
L18.3125 47.7031
L18.3125 18.0156
Q18.3125 11.3281 20.1406 9.42188
Q21.9688 7.51562 27.5938 7.51562
L36.8125 7.51562
L36.8125 0
L27.5938 0
Q17.1875 0 13.2344 3.875
Q9.28125 7.76562 9.28125 18.0156
L9.28125 47.7031
L2.6875 47.7031
L2.6875 54.6875
L9.28125 54.6875
L9.28125 70.2188
z
" id="BitstreamVeraSans-Roman-74"/>
     <path d="
M8.5 21.5781
L8.5 54.6875
L17.4844 54.6875
L17.4844 21.9219
Q17.4844 14.1562 20.5 10.2656
Q23.5312 6.39062 29.5938 6.39062
Q36.8594 6.39062 41.0781 11.0312
Q45.3125 15.6719 45.3125 23.6875
L45.3125 54.6875
L54.2969 54.6875
L54.2969 0
L45.3125 0
L45.3125 8.40625
Q42.0469 3.42188 37.7188 1
Q33.4062 -1.42188 27.6875 -1.42188
Q18.2656 -1.42188 13.375 4.4375
Q8.5 10.2969 8.5 21.5781" id="BitstreamVeraSans-Roman-75"/>
     <path d="
M41.1094 46.2969
Q39.5938 47.1719 37.8125 47.5781
Q36.0312 48 33.8906 48
Q26.2656 48 22.1875 43.0469
Q18.1094 38.0938 18.1094 28.8125
L18.1094 0
L9.07812 0
L9.07812 54.6875
L18.1094 54.6875
L18.1094 46.1875
Q20.9531 51.1719 25.4844 53.5781
Q30.0312 56 36.5312 56
Q37.4531 56 38.5781 55.875
Q39.7031 55.7656 41.0625 55.5156
z
" id="BitstreamVeraSans-Roman-72"/>
     <path d="
M45.4062 27.9844
Q45.4062 37.75 41.375 43.1094
Q37.3594 48.4844 30.0781 48.4844
Q22.8594 48.4844 18.8281 43.1094
Q14.7969 37.75 14.7969 27.9844
Q14.7969 18.2656 18.8281 12.8906
Q22.8594 7.51562 30.0781 7.51562
Q37.3594 7.51562 41.375 12.8906
Q45.4062 18.2656 45.4062 27.9844
M54.3906 6.78125
Q54.3906 -7.17188 48.1875 -13.9844
Q42 -20.7969 29.2031 -20.7969
Q24.4688 -20.7969 20.2656 -20.0938
Q16.0625 -19.3906 12.1094 -17.9219
L12.1094 -9.1875
Q16.0625 -11.3281 19.9219 -12.3438
Q23.7812 -13.375 27.7812 -13.375
Q36.625 -13.375 41.0156 -8.76562
Q45.4062 -4.15625 45.4062 5.17188
L45.4062 9.625
Q42.625 4.78125 38.2812 2.39062
Q33.9375 0 27.875 0
Q17.8281 0 11.6719 7.65625
Q5.51562 15.3281 5.51562 27.9844
Q5.51562 40.6719 11.6719 48.3281
Q17.8281 56 27.875 56
Q33.9375 56 38.2812 53.6094
Q42.625 51.2188 45.4062 46.3906
L45.4062 54.6875
L54.3906 54.6875
z
" id="BitstreamVeraSans-Roman-67"/>
     <path d="
M4.89062 31.3906
L31.2031 31.3906
L31.2031 23.3906
L4.89062 23.3906
z
" id="BitstreamVeraSans-Roman-2d"/>
    </defs>
    <g transform="translate(136.829845817 16.318125)scale(0.12 -0.12)">
     <use xlink:href="#BitstreamVeraSans-Roman-54"/>
     <use x="61.083984375" xlink:href="#BitstreamVeraSans-Roman-68"/>
     <use x="124.462890625" xlink:href="#BitstreamVeraSans-Roman-72"/>
     <use x="163.326171875" xlink:href="#BitstreamVeraSans-Roman-65"/>
     <use x="224.849609375" xlink:href="#BitstreamVeraSans-Roman-61"/>
     <use x="286.12890625" xlink:href="#BitstreamVeraSans-Roman-74"/>
     <use x="325.337890625" xlink:href="#BitstreamVeraSans-Roman-65"/>
     <use x="386.861328125" xlink:href="#BitstreamVeraSans-Roman-6e"/>
     <use x="450.240234375" xlink:href="#BitstreamVeraSans-Roman-69"/>
     <use x="478.0234375" xlink:href="#BitstreamVeraSans-Roman-6e"/>
     <use x="541.40234375" xlink:href="#BitstreamVeraSans-Roman-67"/>
     <use x="604.87890625" xlink:href="#BitstreamVeraSans-Roman-20"/>
     <use x="636.666015625" xlink:href="#BitstreamVeraSans-Roman-2d"/>
     <use x="672.75" xlink:href="#BitstreamVeraSans-Roman-20"/>
     <use x="704.537109375" xlink:href="#BitstreamVeraSans-Roman-31"/>
     <use x="768.16015625" xlink:href="#BitstreamVeraSans-Roman-20"/>
     <use x="799.947265625" xlink:href="#BitstreamVeraSans-Roman-67"/>
     <use x="863.423828125" xlink:href="#BitstreamVeraSans-Roman-75"/>
     <use x="926.802734375" xlink:href="#BitstreamVeraSans-Roman-69"/>
     <use x="954.5859375" xlink:href="#BitstreamVeraSans-Roman-64"/>
     <use x="1018.0625" xlink:href="#BitstreamVeraSans-Roman-65"/>
     <use x="1079.5859375" xlink:href="#BitstreamVeraSans-Roman-73"/>
    </g>
   </g>
   <g id="patch_69">
    <path clip-path="url(#pc581fc927e)" d="
M78.2016 117.887
C81.753 117.887 85.1594 116.476 87.6706 113.965
C90.1818 111.453 91.5928 108.047 91.5928 104.495
C91.5928 100.944 90.1818 97.5376 87.6706 95.0264
C85.1594 92.5152 81.753 91.1042 78.2016 91.1042
C74.6502 91.1042 71.2437 92.5152 68.7325 95.0264
C66.2213 97.5376 64.8103 100.944 64.8103 104.495
C64.8103 108.047 66.2213 111.453 68.7325 113.965
C71.2437 116.476 74.6502 117.887 78.2016 117.887
L78.2016 117.887" style="fill:none;stroke:#000000;stroke-linejoin:miter;"/>
   </g>
   <g id="patch_70">
    <path clip-path="url(#pc581fc927e)" d="
M330.709 117.887
C334.261 117.887 337.667 116.476 340.178 113.965
C342.69 111.453 344.101 108.047 344.101 104.495
C344.101 100.944 342.69 97.5376 340.178 95.0264
C337.667 92.5152 334.261 91.1042 330.709 91.1042
C327.158 91.1042 323.752 92.5152 321.24 95.0264
C318.729 97.5376 317.318 100.944 317.318 104.495
C317.318 108.047 318.729 111.453 321.24 113.965
C323.752 116.476 327.158 117.887 330.709 117.887
L330.709 117.887" style="fill:none;stroke:#000000;stroke-linejoin:miter;"/>
   </g>
   <g id="patch_71">
    <path clip-path="url(#pc581fc927e)" d="
M78.2016 370.395
C81.753 370.395 85.1594 368.984 87.6706 366.472
C90.1818 363.961 91.5928 360.555 91.5928 357.003
C91.5928 353.452 90.1818 350.045 87.6706 347.534
C85.1594 345.023 81.753 343.612 78.2016 343.612
C74.6502 343.612 71.2437 345.023 68.7325 347.534
C66.2213 350.045 64.8103 353.452 64.8103 357.003
C64.8103 360.555 66.2213 363.961 68.7325 366.472
C71.2437 368.984 74.6502 370.395 78.2016 370.395
L78.2016 370.395" style="fill:none;stroke:#000000;stroke-linejoin:miter;"/>
   </g>
   <g id="patch_72">
    <path clip-path="url(#pc581fc927e)" d="
M272.784 79.1819
C276.335 79.1819 279.741 77.7709 282.253 75.2597
C284.764 72.7485 286.175 69.3421 286.175 65.7907
C286.175 62.2393 284.764 58.8329 282.253 56.3216
C279.741 53.8104 276.335 52.3994 272.784 52.3994
C269.232 52.3994 265.826 53.8104 263.315 56.3216
C260.803 58.8329 259.392 62.2393 259.392 65.7907
C259.392 69.3421 260.803 72.7485 263.315 75.2597
C265.826 77.7709 269.232 79.1819 272.784 79.1819
L272.784 79.1819" style="fill:none;stroke:#000000;stroke-linejoin:miter;"/>
   </g>
   <g id="patch_73">
    <path d="
M204.455 48.7581
C207.094 48.7581 209.625 47.7097 211.491 45.8438
C213.357 43.9779 214.405 41.4469 214.405 38.8081
C214.405 36.1694 213.357 33.6383 211.491 31.7724
C209.625 29.9065 207.094 28.8581 204.455 28.8581
C201.817 28.8581 199.286 29.9065 197.42 31.7724
C195.554 33.6383 194.505 36.1694 194.505 38.8081
C194.505 41.4469 195.554 43.9779 197.42 45.8438
C199.286 47.7097 201.817 48.7581 204.455 48.7581
z
" style="fill:#00bfff;stroke:#000000;stroke-linejoin:miter;"/>
   </g>
   <g id="patch_74">
    <path d="
M136.127 62.3494
C138.766 62.3494 141.297 61.301 143.163 59.4351
C145.029 57.5693 146.077 55.0382 146.077 52.3994
C146.077 49.7607 145.029 47.2296 143.163 45.3637
C141.297 43.4978 138.766 42.4494 136.127 42.4494
C133.489 42.4494 130.958 43.4978 129.092 45.3637
C127.226 47.2296 126.177 49.7607 126.177 52.3994
C126.177 55.0382 127.226 57.5693 129.092 59.4351
C130.958 61.301 133.489 62.3494 136.127 62.3494
z
" style="fill:#00bfff;stroke:#000000;stroke-linejoin:miter;"/>
   </g>
   <g id="patch_75">
    <path d="
M272.784 62.3494
C275.422 62.3494 277.953 61.301 279.819 59.4351
C281.685 57.5693 282.734 55.0382 282.734 52.3994
C282.734 49.7607 281.685 47.2296 279.819 45.3637
C277.953 43.4978 275.422 42.4494 272.784 42.4494
C270.145 42.4494 267.614 43.4978 265.748 45.3637
C263.882 47.2296 262.834 49.7607 262.834 52.3994
C262.834 55.0382 263.882 57.5693 265.748 59.4351
C267.614 61.301 270.145 62.3494 272.784 62.3494
z
" style="fill:#00bfff;stroke:#000000;stroke-linejoin:miter;"/>
   </g>
   <g id="patch_76">
    <path d="
M204.455 405.858
C207.094 405.858 209.625 404.81 211.491 402.944
C213.357 401.078 214.405 398.547 214.405 395.908
C214.405 393.269 213.357 390.738 211.491 388.872
C209.625 387.007 207.094 385.958 204.455 385.958
C201.817 385.958 199.286 387.007 197.42 388.872
C195.554 390.738 194.505 393.269 194.505 395.908
C194.505 398.547 195.554 401.078 197.42 402.944
C199.286 404.81 201.817 405.858 204.455 405.858
z
" style="fill:#00bfff;stroke:#000000;stroke-linejoin:miter;"/>
   </g>
   <g id="patch_77">
    <path d="
M39.4968 158.98
C42.1355 158.98 44.6666 157.932 46.5325 156.066
C48.3984 154.2 49.4468 151.669 49.4468 149.03
C49.4468 146.391 48.3984 143.86 46.5325 141.994
C44.6666 140.128 42.1355 139.08 39.4968 139.08
C36.858 139.08 34.327 140.128 32.4611 141.994
C30.5952 143.86 29.5468 146.391 29.5468 149.03
C29.5468 151.669 30.5952 154.2 32.4611 156.066
C34.327 157.932 36.858 158.98 39.4968 158.98
z
" style="fill:#00bfff;stroke:#000000;stroke-linejoin:miter;"/>
   </g>
   <g id="patch_78">
    <path d="
M330.709 353.562
C333.348 353.562 335.879 352.514 337.745 350.648
C339.611 348.782 340.659 346.251 340.659 343.612
C340.659 340.973 339.611 338.442 337.745 336.576
C335.879 334.71 333.348 333.662 330.709 333.662
C328.071 333.662 325.54 334.71 323.674 336.576
C321.808 338.442 320.759 340.973 320.759 343.612
C320.759 346.251 321.808 348.782 323.674 350.648
C325.54 352.514 328.071 353.562 330.709 353.562
z
" style="fill:#00bfff;stroke:#000000;stroke-linejoin:miter;"/>
   </g>
   <g id="patch_79">
    <path d="
M78.2016 101.054
C80.8403 101.054 83.3714 100.006 85.2373 98.1399
C87.1032 96.274 88.1516 93.743 88.1516 91.1042
C88.1516 88.4654 87.1032 85.9344 85.2373 84.0685
C83.3714 82.2026 80.8403 81.1542 78.2016 81.1542
C75.5628 81.1542 73.0317 82.2026 71.1658 84.0685
C69.3 85.9344 68.2516 88.4654 68.2516 91.1042
C68.2516 93.743 69.3 96.274 71.1658 98.1399
C73.0317 100.006 75.5628 101.054 78.2016 101.054
z
" style="fill:#00bfff;stroke:#000000;stroke-linejoin:miter;"/>
   </g>
   <g id="patch_80">
    <path d="
M369.414 158.98
C372.053 158.98 374.584 157.932 376.45 156.066
C378.316 154.2 379.364 151.669 379.364 149.03
C379.364 146.391 378.316 143.86 376.45 141.994
C374.584 140.128 372.053 139.08 369.414 139.08
C366.775 139.08 364.244 140.128 362.378 141.994
C360.513 143.86 359.464 146.391 359.464 149.03
C359.464 151.669 360.513 154.2 362.378 156.066
C364.244 157.932 366.775 158.98 369.414 158.98
z
" style="fill:#00bfff;stroke:#000000;stroke-linejoin:miter;"/>
   </g>
   <g id="patch_81">
    <path d="
M136.127 392.267
C138.766 392.267 141.297 391.218 143.163 389.353
C145.029 387.487 146.077 384.956 146.077 382.317
C146.077 379.678 145.029 377.147 143.163 375.281
C141.297 373.415 138.766 372.367 136.127 372.367
C133.489 372.367 130.958 373.415 129.092 375.281
C127.226 377.147 126.177 379.678 126.177 382.317
C126.177 384.956 127.226 387.487 129.092 389.353
C130.958 391.218 133.489 392.267 136.127 392.267
z
" style="fill:#00bfff;stroke:#000000;stroke-linejoin:miter;"/>
   </g>
   <g id="patch_82">
    <path d="
M330.709 101.054
C333.348 101.054 335.879 100.006 337.745 98.1399
C339.611 96.274 340.659 93.743 340.659 91.1042
C340.659 88.4654 339.611 85.9344 337.745 84.0685
C335.879 82.2026 333.348 81.1542 330.709 81.1542
C328.071 81.1542 325.54 82.2026 323.674 84.0685
C321.808 85.9344 320.759 88.4654 320.759 91.1042
C320.759 93.743 321.808 96.274 323.674 98.1399
C325.54 100.006 328.071 101.054 330.709 101.054
z
" style="fill:#00bfff;stroke:#000000;stroke-linejoin:miter;"/>
   </g>
   <g id="patch_83">
    <path d="
M272.784 392.267
C275.422 392.267 277.953 391.218 279.819 389.353
C281.685 387.487 282.734 384.956 282.734 382.317
C282.734 379.678 281.685 377.147 279.819 375.281
C277.953 373.415 275.422 372.367 272.784 372.367
C270.145 372.367 267.614 373.415 265.748 375.281
C263.882 377.147 262.834 379.678 262.834 382.317
C262.834 384.956 263.882 387.487 265.748 389.353
C267.614 391.218 270.145 392.267 272.784 392.267
z
" style="fill:#00bfff;stroke:#000000;stroke-linejoin:miter;"/>
   </g>
   <g id="patch_84">
    <path d="
M369.414 295.636
C372.053 295.636 374.584 294.588 376.45 292.722
C378.316 290.856 379.364 288.325 379.364 285.686
C379.364 283.047 378.316 280.516 376.45 278.651
C374.584 276.785 372.053 275.736 369.414 275.736
C366.775 275.736 364.244 276.785 362.378 278.651
C360.513 280.516 359.464 283.047 359.464 285.686
C359.464 288.325 360.513 290.856 362.378 292.722
C364.244 294.588 366.775 295.636 369.414 295.636
z
" style="fill:#00bfff;stroke:#000000;stroke-linejoin:miter;"/>
   </g>
   <g id="patch_85">
    <path d="
M39.4968 295.636
C42.1355 295.636 44.6666 294.588 46.5325 292.722
C48.3984 290.856 49.4468 288.325 49.4468 285.686
C49.4468 283.047 48.3984 280.516 46.5325 278.651
C44.6666 276.785 42.1355 275.736 39.4968 275.736
C36.858 275.736 34.327 276.785 32.4611 278.651
C30.5952 280.516 29.5468 283.047 29.5468 285.686
C29.5468 288.325 30.5952 290.856 32.4611 292.722
C34.327 294.588 36.858 295.636 39.4968 295.636
z
" style="fill:#00bfff;stroke:#000000;stroke-linejoin:miter;"/>
   </g>
   <g id="patch_86">
    <path d="
M383.005 227.308
C385.644 227.308 388.175 226.26 390.041 224.394
C391.907 222.528 392.955 219.997 392.955 217.358
C392.955 214.719 391.907 212.188 390.041 210.322
C388.175 208.457 385.644 207.408 383.005 207.408
C380.367 207.408 377.836 208.457 375.97 210.322
C374.104 212.188 373.055 214.719 373.055 217.358
C373.055 219.997 374.104 222.528 375.97 224.394
C377.836 226.26 380.367 227.308 383.005 227.308
z
" style="fill:#00bfff;stroke:#000000;stroke-linejoin:miter;"/>
   </g>
   <g id="patch_87">
    <path d="
M78.2016 353.562
C80.8403 353.562 83.3714 352.514 85.2373 350.648
C87.1032 348.782 88.1516 346.251 88.1516 343.612
C88.1516 340.973 87.1032 338.442 85.2373 336.576
C83.3714 334.71 80.8403 333.662 78.2016 333.662
C75.5628 333.662 73.0317 334.71 71.1658 336.576
C69.3 338.442 68.2516 340.973 68.2516 343.612
C68.2516 346.251 69.3 348.782 71.1658 350.648
C73.0317 352.514 75.5628 353.562 78.2016 353.562
z
" style="fill:#00bfff;stroke:#000000;stroke-linejoin:miter;"/>
   </g>
   <g id="patch_88">
    <path d="
M25.9055 227.308
C28.5442 227.308 31.0753 226.26 32.9412 224.394
C34.8071 222.528 35.8555 219.997 35.8555 217.358
C35.8555 214.719 34.8071 212.188 32.9412 210.322
C31.0753 208.457 28.5442 207.408 25.9055 207.408
C23.2667 207.408 20.7357 208.457 18.8698 210.322
C17.0039 212.188 15.9555 214.719 15.9555 217.358
C15.9555 219.997 17.0039 222.528 18.8698 224.394
C20.7357 226.26 23.2667 227.308 25.9055 227.308
z
" style="fill:#00bfff;stroke:#000000;stroke-linejoin:miter;"/>
   </g>
   <g id="text_2">
    <!-- adagio -->
    <defs>
     <path d="
M30.6094 48.3906
Q23.3906 48.3906 19.1875 42.75
Q14.9844 37.1094 14.9844 27.2969
Q14.9844 17.4844 19.1562 11.8438
Q23.3438 6.20312 30.6094 6.20312
Q37.7969 6.20312 41.9844 11.8594
Q46.1875 17.5312 46.1875 27.2969
Q46.1875 37.0156 41.9844 42.7031
Q37.7969 48.3906 30.6094 48.3906
M30.6094 56
Q42.3281 56 49.0156 48.375
Q55.7188 40.7656 55.7188 27.2969
Q55.7188 13.875 49.0156 6.21875
Q42.3281 -1.42188 30.6094 -1.42188
Q18.8438 -1.42188 12.1719 6.21875
Q5.51562 13.875 5.51562 27.2969
Q5.51562 40.7656 12.1719 48.375
Q18.8438 56 30.6094 56" id="BitstreamVeraSans-Roman-6f"/>
    </defs>
    <g transform="translate(188.103908317 41.5674979327)scale(0.1 -0.1)">
     <use xlink:href="#BitstreamVeraSans-Roman-61"/>
     <use x="61.279296875" xlink:href="#BitstreamVeraSans-Roman-64"/>
     <use x="124.755859375" xlink:href="#BitstreamVeraSans-Roman-61"/>
     <use x="186.03515625" xlink:href="#BitstreamVeraSans-Roman-67"/>
     <use x="249.51171875" xlink:href="#BitstreamVeraSans-Roman-69"/>
     <use x="277.294921875" xlink:href="#BitstreamVeraSans-Roman-6f"/>
    </g>
   </g>
   <g id="text_3">
    <!-- ardan -->
    <g transform="translate(122.412499427 55.1588075602)scale(0.1 -0.1)">
     <use xlink:href="#BitstreamVeraSans-Roman-61"/>
     <use x="61.279296875" xlink:href="#BitstreamVeraSans-Roman-72"/>
     <use x="100.642578125" xlink:href="#BitstreamVeraSans-Roman-64"/>
     <use x="164.119140625" xlink:href="#BitstreamVeraSans-Roman-61"/>
     <use x="225.3984375" xlink:href="#BitstreamVeraSans-Roman-6e"/>
    </g>
   </g>
   <g id="text_4">
    <!-- catherine -->
    <defs>
     <path d="
M48.7812 52.5938
L48.7812 44.1875
Q44.9688 46.2969 41.1406 47.3438
Q37.3125 48.3906 33.4062 48.3906
Q24.6562 48.3906 19.8125 42.8438
Q14.9844 37.3125 14.9844 27.2969
Q14.9844 17.2812 19.8125 11.7344
Q24.6562 6.20312 33.4062 6.20312
Q37.3125 6.20312 41.1406 7.25
Q44.9688 8.29688 48.7812 10.4062
L48.7812 2.09375
Q45.0156 0.34375 40.9844 -0.53125
Q36.9688 -1.42188 32.4219 -1.42188
Q20.0625 -1.42188 12.7812 6.34375
Q5.51562 14.1094 5.51562 27.2969
Q5.51562 40.6719 12.8594 48.3281
Q20.2188 56 33.0156 56
Q37.1562 56 41.1094 55.1406
Q45.0625 54.2969 48.7812 52.5938" id="BitstreamVeraSans-Roman-63"/>
    </defs>
    <g transform="translate(55.0351473246 93.8635827574)scale(0.1 -0.1)">
     <use xlink:href="#BitstreamVeraSans-Roman-63"/>
     <use x="54.98046875" xlink:href="#BitstreamVeraSans-Roman-61"/>
     <use x="116.259765625" xlink:href="#BitstreamVeraSans-Roman-74"/>
     <use x="155.46875" xlink:href="#BitstreamVeraSans-Roman-68"/>
     <use x="218.84765625" xlink:href="#BitstreamVeraSans-Roman-65"/>
     <use x="280.37109375" xlink:href="#BitstreamVeraSans-Roman-72"/>
     <use x="321.484375" xlink:href="#BitstreamVeraSans-Roman-69"/>
     <use x="349.267578125" xlink:href="#BitstreamVeraSans-Roman-6e"/>
     <use x="412.646484375" xlink:href="#BitstreamVeraSans-Roman-65"/>
    </g>
   </g>
   <g id="text_5">
    <!-- celeste -->
    <defs>
     <path d="
M9.42188 75.9844
L18.4062 75.9844
L18.4062 0
L9.42188 0
z
" id="BitstreamVeraSans-Roman-6c"/>
    </defs>
    <g transform="translate(22.1061533775 151.78937236)scale(0.1 -0.1)">
     <use xlink:href="#BitstreamVeraSans-Roman-63"/>
     <use x="54.98046875" xlink:href="#BitstreamVeraSans-Roman-65"/>
     <use x="116.50390625" xlink:href="#BitstreamVeraSans-Roman-6c"/>
     <use x="144.287109375" xlink:href="#BitstreamVeraSans-Roman-65"/>
     <use x="205.810546875" xlink:href="#BitstreamVeraSans-Roman-73"/>
     <use x="257.91015625" xlink:href="#BitstreamVeraSans-Roman-74"/>
     <use x="297.119140625" xlink:href="#BitstreamVeraSans-Roman-65"/>
    </g>
   </g>
   <g id="text_6">
    <!-- fortress -->
    <defs>
     <path d="
M37.1094 75.9844
L37.1094 68.5
L28.5156 68.5
Q23.6875 68.5 21.7969 66.5469
Q19.9219 64.5938 19.9219 59.5156
L19.9219 54.6875
L34.7188 54.6875
L34.7188 47.7031
L19.9219 47.7031
L19.9219 0
L10.8906 0
L10.8906 47.7031
L2.29688 47.7031
L2.29688 54.6875
L10.8906 54.6875
L10.8906 58.5
Q10.8906 67.625 15.1406 71.7969
Q19.3906 75.9844 28.6094 75.9844
z
" id="BitstreamVeraSans-Roman-66"/>
    </defs>
    <g transform="translate(7.2 220.1175)scale(0.1 -0.1)">
     <use xlink:href="#BitstreamVeraSans-Roman-66"/>
     <use x="35.205078125" xlink:href="#BitstreamVeraSans-Roman-6f"/>
     <use x="96.38671875" xlink:href="#BitstreamVeraSans-Roman-72"/>
     <use x="137.5" xlink:href="#BitstreamVeraSans-Roman-74"/>
     <use x="176.708984375" xlink:href="#BitstreamVeraSans-Roman-72"/>
     <use x="215.572265625" xlink:href="#BitstreamVeraSans-Roman-65"/>
     <use x="277.095703125" xlink:href="#BitstreamVeraSans-Roman-73"/>
     <use x="329.1953125" xlink:href="#BitstreamVeraSans-Roman-73"/>
    </g>
   </g>
   <g id="text_7">
    <!-- glaive -->
    <defs>
     <path d="
M2.98438 54.6875
L12.5 54.6875
L29.5938 8.79688
L46.6875 54.6875
L56.2031 54.6875
L35.6875 0
L23.4844 0
z
" id="BitstreamVeraSans-Roman-76"/>
    </defs>
    <g transform="translate(24.9866221275 288.44562764)scale(0.1 -0.1)">
     <use xlink:href="#BitstreamVeraSans-Roman-67"/>
     <use x="63.4765625" xlink:href="#BitstreamVeraSans-Roman-6c"/>
     <use x="91.259765625" xlink:href="#BitstreamVeraSans-Roman-61"/>
     <use x="152.5390625" xlink:href="#BitstreamVeraSans-Roman-69"/>
     <use x="180.322265625" xlink:href="#BitstreamVeraSans-Roman-76"/>
     <use x="239.501953125" xlink:href="#BitstreamVeraSans-Roman-65"/>
    </g>
   </g>
   <g id="text_8">
    <!-- joule -->
    <defs>
     <path d="
M9.42188 54.6875
L18.4062 54.6875
L18.4062 -0.984375
Q18.4062 -11.4219 14.4219 -16.1094
Q10.4531 -20.7969 1.60938 -20.7969
L-1.8125 -20.7969
L-1.8125 -13.1875
L0.59375 -13.1875
Q5.71875 -13.1875 7.5625 -10.8125
Q9.42188 -8.45312 9.42188 -0.984375
z

M9.42188 75.9844
L18.4062 75.9844
L18.4062 64.5938
L9.42188 64.5938
z
" id="BitstreamVeraSans-Roman-6a"/>
    </defs>
    <g transform="translate(66.2945223246 346.371417243)scale(0.1 -0.1)">
     <use xlink:href="#BitstreamVeraSans-Roman-6a"/>
     <use x="27.783203125" xlink:href="#BitstreamVeraSans-Roman-6f"/>
     <use x="88.96484375" xlink:href="#BitstreamVeraSans-Roman-75"/>
     <use x="152.34375" xlink:href="#BitstreamVeraSans-Roman-6c"/>
     <use x="180.126953125" xlink:href="#BitstreamVeraSans-Roman-65"/>
    </g>
   </g>
   <g id="text_9">
    <!-- koshka -->
    <defs>
     <path d="
M9.07812 75.9844
L18.1094 75.9844
L18.1094 31.1094
L44.9219 54.6875
L56.3906 54.6875
L27.3906 29.1094
L57.625 0
L45.9062 0
L18.1094 26.7031
L18.1094 0
L9.07812 0
z
" id="BitstreamVeraSans-Roman-6b"/>
    </defs>
    <g transform="translate(119.616405677 385.07619244)scale(0.1 -0.1)">
     <use xlink:href="#BitstreamVeraSans-Roman-6b"/>
     <use x="54.28515625" xlink:href="#BitstreamVeraSans-Roman-6f"/>
     <use x="115.466796875" xlink:href="#BitstreamVeraSans-Roman-73"/>
     <use x="167.56640625" xlink:href="#BitstreamVeraSans-Roman-68"/>
     <use x="230.9453125" xlink:href="#BitstreamVeraSans-Roman-6b"/>
     <use x="287.10546875" xlink:href="#BitstreamVeraSans-Roman-61"/>
    </g>
   </g>
   <g id="text_10">
    <!-- krul -->
    <g transform="translate(195.869533317 398.667502067)scale(0.1 -0.1)">
     <use xlink:href="#BitstreamVeraSans-Roman-6b"/>
     <use x="57.91015625" xlink:href="#BitstreamVeraSans-Roman-72"/>
     <use x="99.0234375" xlink:href="#BitstreamVeraSans-Roman-75"/>
     <use x="162.40234375" xlink:href="#BitstreamVeraSans-Roman-6c"/>
    </g>
   </g>
   <g id="text_11">
    <!-- petal -->
    <defs>
     <path d="
M18.1094 8.20312
L18.1094 -20.7969
L9.07812 -20.7969
L9.07812 54.6875
L18.1094 54.6875
L18.1094 46.3906
Q20.9531 51.2656 25.2656 53.625
Q29.5938 56 35.5938 56
Q45.5625 56 51.7812 48.0938
Q58.0156 40.1875 58.0156 27.2969
Q58.0156 14.4062 51.7812 6.48438
Q45.5625 -1.42188 35.5938 -1.42188
Q29.5938 -1.42188 25.2656 0.953125
Q20.9531 3.32812 18.1094 8.20312
M48.6875 27.2969
Q48.6875 37.2031 44.6094 42.8438
Q40.5312 48.4844 33.4062 48.4844
Q26.2656 48.4844 22.1875 42.8438
Q18.1094 37.2031 18.1094 27.2969
Q18.1094 17.3906 22.1875 11.75
Q26.2656 6.10938 33.4062 6.10938
Q40.5312 6.10938 44.6094 11.75
Q48.6875 17.3906 48.6875 27.2969" id="BitstreamVeraSans-Roman-70"/>
    </defs>
    <g transform="translate(261.042192207 385.07619244)scale(0.1 -0.1)">
     <use xlink:href="#BitstreamVeraSans-Roman-70"/>
     <use x="63.4765625" xlink:href="#BitstreamVeraSans-Roman-65"/>
     <use x="125.0" xlink:href="#BitstreamVeraSans-Roman-74"/>
     <use x="164.208984375" xlink:href="#BitstreamVeraSans-Roman-61"/>
     <use x="225.48828125" xlink:href="#BitstreamVeraSans-Roman-6c"/>
    </g>
   </g>
   <g id="text_12">
    <!-- ringo -->
    <g transform="translate(318.58985681 346.371417243)scale(0.1 -0.1)">
     <use xlink:href="#BitstreamVeraSans-Roman-72"/>
     <use x="41.11328125" xlink:href="#BitstreamVeraSans-Roman-69"/>
     <use x="68.896484375" xlink:href="#BitstreamVeraSans-Roman-6e"/>
     <use x="132.275390625" xlink:href="#BitstreamVeraSans-Roman-67"/>
     <use x="195.751953125" xlink:href="#BitstreamVeraSans-Roman-6f"/>
    </g>
   </g>
   <g id="text_13">
    <!-- rona -->
    <g transform="translate(359.086819507 288.44562764)scale(0.1 -0.1)">
     <use xlink:href="#BitstreamVeraSans-Roman-72"/>
     <use x="38.86328125" xlink:href="#BitstreamVeraSans-Roman-6f"/>
     <use x="100.044921875" xlink:href="#BitstreamVeraSans-Roman-6e"/>
     <use x="163.423828125" xlink:href="#BitstreamVeraSans-Roman-61"/>
    </g>
   </g>
   <g id="text_14">
    <!-- saw -->
    <defs>
     <path d="
M4.20312 54.6875
L13.1875 54.6875
L24.4219 12.0156
L35.5938 54.6875
L46.1875 54.6875
L57.4219 12.0156
L68.6094 54.6875
L77.5938 54.6875
L63.2812 0
L52.6875 0
L40.9219 44.8281
L29.1094 0
L18.5 0
z
" id="BitstreamVeraSans-Roman-77"/>
    </defs>
    <g transform="translate(373.728129135 220.1175)scale(0.1 -0.1)">
     <use xlink:href="#BitstreamVeraSans-Roman-73"/>
     <use x="52.099609375" xlink:href="#BitstreamVeraSans-Roman-61"/>
     <use x="113.37890625" xlink:href="#BitstreamVeraSans-Roman-77"/>
    </g>
   </g>
   <g id="text_15">
    <!-- skaarf -->
    <g transform="translate(354.233694507 151.78937236)scale(0.1 -0.1)">
     <use xlink:href="#BitstreamVeraSans-Roman-73"/>
     <use x="52.099609375" xlink:href="#BitstreamVeraSans-Roman-6b"/>
     <use x="108.259765625" xlink:href="#BitstreamVeraSans-Roman-61"/>
     <use x="169.5390625" xlink:href="#BitstreamVeraSans-Roman-61"/>
     <use x="230.818359375" xlink:href="#BitstreamVeraSans-Roman-72"/>
     <use x="271.931640625" xlink:href="#BitstreamVeraSans-Roman-66"/>
    </g>
   </g>
   <g id="text_16">
    <!-- taka -->
    <g transform="translate(320.40157556 93.8635827574)scale(0.1 -0.1)">
     <use xlink:href="#BitstreamVeraSans-Roman-74"/>
     <use x="39.208984375" xlink:href="#BitstreamVeraSans-Roman-61"/>
     <use x="100.48828125" xlink:href="#BitstreamVeraSans-Roman-6b"/>
     <use x="156.6484375" xlink:href="#BitstreamVeraSans-Roman-61"/>
    </g>
   </g>
   <g id="text_17">
    <!-- vox -->
    <defs>
     <path d="
M54.8906 54.6875
L35.1094 28.0781
L55.9062 0
L45.3125 0
L29.3906 21.4844
L13.4844 0
L2.875 0
L24.125 28.6094
L4.6875 54.6875
L15.2812 54.6875
L29.7812 35.2031
L44.2812 54.6875
z
" id="BitstreamVeraSans-Roman-78"/>
    </defs>
    <g transform="translate(264.275004707 55.1588075602)scale(0.1 -0.1)">
     <use xlink:href="#BitstreamVeraSans-Roman-76"/>
     <use x="59.1796875" xlink:href="#BitstreamVeraSans-Roman-6f"/>
     <use x="117.236328125" xlink:href="#BitstreamVeraSans-Roman-78"/>
    </g>
   </g>
  </g>
 </g>
 <defs>
  <clipPath id="pc581fc927e">
   <rect height="392.08" width="392.08" x="8.41547081727" y="21.318125"/>
  </clipPath>
 </defs>
</svg>
